<svg width="48" height="48" viewBox="0 0 48 48" fill="none" xmlns="http://www.w3.org/2000/svg">
<path d="M23.8115 29.7596C27.0966 29.7596 29.7596 27.0966 29.7596 23.8115C29.7596 20.5264 27.0966 17.8633 23.8115 17.8633C20.5264 17.8633 17.8633 20.5264 17.8633 23.8115C17.8633 27.0966 20.5264 29.7596 23.8115 29.7596Z" stroke="white" stroke-width="3" stroke-linecap="round" stroke-linejoin="round"/>
<path d="M38.4822 29.7582C38.2182 30.3562 38.1395 31.0196 38.2561 31.6628C38.3728 32.306 38.6794 32.8995 39.1365 33.3667L39.2554 33.4857C39.6241 33.854 39.9166 34.2913 40.1162 34.7727C40.3157 35.2541 40.4185 35.7701 40.4185 36.2913C40.4185 36.8124 40.3157 37.3284 40.1162 37.8098C39.9166 38.2912 39.6241 38.7285 39.2554 39.0968C38.8872 39.4655 38.4498 39.758 37.9684 39.9576C37.487 40.1571 36.971 40.2598 36.4499 40.2598C35.9288 40.2598 35.4128 40.1571 34.9314 39.9576C34.45 39.758 34.0126 39.4655 33.6443 39.0968L33.5254 38.9779C33.0581 38.5208 32.4646 38.2141 31.8214 38.0975C31.1782 37.9809 30.5148 38.0596 29.9168 38.3236C29.3304 38.5749 28.8302 38.9922 28.4779 39.5242C28.1257 40.0561 27.9366 40.6795 27.9341 41.3175V41.6545C27.9341 42.7062 27.5163 43.7149 26.7726 44.4585C26.0289 45.2022 25.0203 45.62 23.9686 45.62C22.9169 45.62 21.9083 45.2022 21.1646 44.4585C20.421 43.7149 20.0032 42.7062 20.0032 41.6545V41.4761C19.9878 40.8198 19.7754 40.1834 19.3935 39.6494C19.0116 39.1155 18.4779 38.7088 17.8618 38.4822C17.2638 38.2182 16.6004 38.1395 15.9572 38.2561C15.314 38.3728 14.7205 38.6794 14.2533 39.1365L14.1343 39.2554C13.766 39.6241 13.3287 39.9166 12.8473 40.1162C12.3659 40.3157 11.8499 40.4185 11.3287 40.4185C10.8076 40.4185 10.2916 40.3157 9.8102 40.1162C9.3288 39.9166 8.89146 39.6241 8.52317 39.2554C8.15448 38.8872 7.86199 38.4498 7.66243 37.9684C7.46287 37.487 7.36016 36.971 7.36016 36.4499C7.36016 35.9288 7.46287 35.4128 7.66243 34.9314C7.86199 34.45 8.15448 34.0126 8.52317 33.6443L8.64214 33.5254C9.09923 33.0581 9.40585 32.4646 9.52248 31.8214C9.6391 31.1782 9.56037 30.5148 9.29644 29.9168C9.0451 29.3304 8.62777 28.8302 8.09583 28.4779C7.56388 28.1257 6.94053 27.9366 6.30252 27.9341H5.96545C4.91375 27.9341 3.90512 27.5163 3.16145 26.7726C2.41779 26.0289 2 25.0203 2 23.9686C2 22.9169 2.41779 21.9083 3.16145 21.1646C3.90512 20.421 4.91375 20.0032 5.96545 20.0032H6.1439C6.80017 19.9878 7.43665 19.7754 7.97058 19.3935C8.50452 19.0116 8.91122 18.4779 9.13782 17.8618C9.40175 17.2638 9.48048 16.6004 9.36386 15.9572C9.24724 15.314 8.94061 14.7205 8.48352 14.2533L8.36455 14.1343C7.99586 13.766 7.70337 13.3287 7.50381 12.8473C7.30426 12.3659 7.20154 11.8499 7.20154 11.3287C7.20154 10.8076 7.30426 10.2916 7.50381 9.8102C7.70337 9.3288 7.99586 8.89146 8.36455 8.52317C8.73284 8.15448 9.17018 7.86199 9.65158 7.66243C10.133 7.46287 10.649 7.36016 11.1701 7.36016C11.6912 7.36016 12.2072 7.46287 12.6886 7.66243C13.17 7.86199 13.6074 8.15448 13.9757 8.52317L14.0946 8.64214C14.5619 9.09923 15.1554 9.40585 15.7986 9.52248C16.4418 9.6391 17.1052 9.56037 17.7032 9.29644H17.8618C18.4482 9.0451 18.9484 8.62777 19.3007 8.09583C19.653 7.56388 19.842 6.94053 19.8445 6.30252V5.96545C19.8445 4.91375 20.2623 3.90512 21.006 3.16145C21.7497 2.41779 22.7583 2 23.81 2C24.8617 2 25.8703 2.41779 26.614 3.16145C27.3577 3.90512 27.7755 4.91375 27.7755 5.96545V6.1439C27.778 6.78191 27.967 7.40526 28.3193 7.93721C28.6716 8.46915 29.1718 8.88648 29.7582 9.13782C30.3562 9.40175 31.0196 9.48048 31.6628 9.36386C32.306 9.24724 32.8995 8.94061 33.3667 8.48352L33.4857 8.36455C33.854 7.99586 34.2913 7.70337 34.7727 7.50381C35.2541 7.30426 35.7701 7.20154 36.2913 7.20154C36.8124 7.20154 37.3284 7.30426 37.8098 7.50381C38.2912 7.70337 38.7285 7.99586 39.0968 8.36455C39.4655 8.73284 39.758 9.17018 39.9576 9.65158C40.1571 10.133 40.2598 10.649 40.2598 11.1701C40.2598 11.6912 40.1571 12.2072 39.9576 12.6886C39.758 13.17 39.4655 13.6074 39.0968 13.9757L38.9779 14.0946C38.5208 14.5619 38.2141 15.1554 38.0975 15.7986C37.9809 16.4418 38.0596 17.1052 38.3236 17.7032V17.8618C38.5749 18.4482 38.9922 18.9484 39.5242 19.3007C40.0561 19.653 40.6795 19.842 41.3175 19.8445H41.6545C42.7062 19.8445 43.7149 20.2623 44.4585 21.006C45.2022 21.7497 45.62 22.7583 45.62 23.81C45.62 24.8617 45.2022 25.8703 44.4585 26.614C43.7149 27.3577 42.7062 27.7755 41.6545 27.7755H41.4761C40.8381 27.778 40.2147 27.967 39.6828 28.3193C39.1508 28.6716 38.7335 29.1718 38.4822 29.7582Z" stroke="white" stroke-width="3" stroke-linecap="round" stroke-linejoin="round"/>
</svg>
