<svg width="55" height="48" viewBox="0 0 55 48" fill="none" xmlns="http://www.w3.org/2000/svg">
<path d="M5.46875 16.7168V38.6853" stroke="white" stroke-width="3" stroke-linecap="round" stroke-linejoin="round"/>
<path d="M3.21797 15.0461C1.62005 14.2807 1.62005 12.2157 3.21797 11.4502C5.31307 10.4466 8.443 9.02215 12.8702 7.17795C19.0214 4.61574 23.2232 3.09644 25.479 2.32639C26.7493 1.8912 28.1283 1.8912 29.3986 2.32639C31.6533 3.09644 35.8573 4.61574 42.0074 7.17795C46.4358 9.02215 49.5645 10.4466 51.6608 11.4502C53.2564 12.2157 53.2564 14.2807 51.6608 15.0461C49.5645 16.0498 46.4346 17.4742 42.0074 19.3184C35.8562 21.8806 31.6544 23.3999 29.3986 24.17C28.1283 24.6052 26.7493 24.6052 25.479 24.17C23.2243 23.3999 19.0202 21.8806 12.8702 19.3184C8.44184 17.4731 5.31307 16.0498 3.21797 15.0461Z" stroke="white" stroke-width="3" stroke-linecap="round" stroke-linejoin="round"/>
<path d="M12.5243 19.1738C12.443 20.7299 12.4036 22.288 12.4064 23.8462C12.4064 27.4236 12.5902 29.6701 12.7706 31.0148C12.929 32.1896 13.6019 33.1886 14.6518 33.7378C16.6821 34.8015 20.8064 36.3728 27.4375 36.3728C34.0685 36.3728 38.1928 34.8027 40.2231 33.7389C41.273 33.1897 41.9459 32.1907 42.1043 31.0172C42.2847 29.6713 42.4685 27.4247 42.4685 23.8485C42.4713 22.2899 42.432 20.7315 42.3506 19.175" stroke="white" stroke-width="3" stroke-linecap="round" stroke-linejoin="round"/>
<path d="M8.93741 42.1543C8.93741 43.0742 8.57196 43.9565 7.92145 44.607C7.27095 45.2575 6.38867 45.623 5.46871 45.623C4.54875 45.623 3.66647 45.2575 3.01596 44.607C2.36545 43.9565 2 43.0742 2 42.1543C2 41.2343 2.36545 40.352 3.01596 39.7015C3.66647 39.051 4.54875 38.6855 5.46871 38.6855C6.38867 38.6855 7.27095 39.051 7.92145 39.7015C8.57196 40.352 8.93741 41.2343 8.93741 42.1543Z" stroke="white" stroke-width="3" stroke-linecap="round" stroke-linejoin="round"/>
</svg>
