<svg width="549" height="408" viewBox="0 0 549 408" fill="none" xmlns="http://www.w3.org/2000/svg">
<g opacity="0.6">
<path opacity="0.18" d="M198.85 29.7207C184.433 43.1417 173.747 60.3933 158.427 72.7374C132.523 93.6493 97.3649 97.8072 66.9018 111.119C46.7513 119.926 27.6457 133.878 18.7306 154.061C11.505 170.372 12.4412 189.702 19.9247 205.864C23.4997 213.612 25.0881 222.136 24.5454 230.659C24.0027 239.182 21.346 247.433 16.8174 254.66C5.72443 272.314 -0.965258 292.483 0.113504 313.197C1.78253 345.056 25.8613 376.485 57.4847 379.416C68.3401 380.425 79.2499 378.21 89.9968 376.233C154.906 364.305 223.607 361.224 285.348 384.597C302.269 391.004 318.559 399.353 336.151 403.566C356.702 408.487 378.128 407.553 399.249 406.592C432.209 405.093 470.664 400.458 487.497 371.939C510.829 332.405 473.663 283.05 478.948 237.409C481.872 212.189 497.701 190.009 501.039 164.864C504.662 137.532 491.764 108.638 469.036 93.179C437.474 71.715 393.828 76.9225 361.241 57.0534C335.459 41.3286 317.738 10.6014 287.342 2.23799C257.531 -5.95502 220.547 9.51082 198.85 29.7207Z" fill="#68E1FD"/>
<path d="M61.6854 304.282C58.4966 282.286 50.8909 261.108 47.8107 239.092C44.7305 217.076 46.8744 192.865 60.9119 175.668C70.0712 164.469 83.2335 157.482 96.104 150.932C107.55 145.104 119.335 139.297 132.063 137.716C143.285 136.352 154.608 138.295 165.83 139.645C186.944 142.18 208.445 142.514 229.402 138.902C256.765 134.178 282.635 123.265 309.373 115.843C335.569 108.577 361.5 104.875 390.789 118.569C411.035 128.044 425.975 147.824 430.819 169.69C438.648 205.018 420.968 244.17 435.833 277.133C440.026 286.417 446.539 294.419 451.858 303.103C458.397 313.809 463.116 325.534 465.821 337.797C466.75 342.016 467.436 346.467 466.248 350.618C463.195 361.251 450.114 364.789 439.11 365.661C402.52 368.565 365.964 361.708 329.469 357.72C270.226 351.259 210.446 352.397 151.101 356.848C136.572 357.939 122.058 359.211 107.556 360.665C95.8529 361.817 73.6332 368.844 62.6013 365.498C50.3007 361.756 58.3744 353.651 60.9798 342.016C63.7818 329.699 63.4901 316.714 61.6854 304.282Z" fill="url(#paint0_linear_1419_8263)"/>
<path d="M260.523 93.5059C260.523 93.5059 254.912 116.422 246.526 122.815C237.869 129.413 228.886 116.735 228.886 116.735L223.893 125.814C223.893 125.814 233.14 140.81 242.462 141.158C251.784 141.505 259.967 133.121 259.967 133.121L260.523 93.5059Z" fill="#68E1FD"/>
<path d="M212.609 77.7669L213.878 77.2012L239.741 83.806L247.51 136.427H246.54L212.609 77.7669Z" fill="#3F3D56"/>
<path opacity="0.05" d="M90.2693 361.701C90.2693 361.701 33.8548 365.498 25.7403 370.93C17.6259 376.363 81.1711 377.556 182.568 374.495C283.965 371.435 362.036 374.495 417.317 380.098C472.599 385.701 547.583 384.617 548.621 370.896C549.659 357.175 411.74 357.012 411.74 357.012L90.2693 361.701Z" fill="#000405"/>
<path d="M440.989 252.479C440.989 252.479 439.096 268.306 426.924 269.86H373.475L365.869 181.959H422.182C426.728 181.959 436.043 186.88 437.902 193.846C438.152 195.136 438.317 196.441 438.397 197.752C439.618 211.268 440.989 252.479 440.989 252.479Z" fill="#68E1FD"/>
<path d="M438.409 197.766H386.846L371.54 182.675L370.834 181.959H422.194C426.74 181.959 436.055 186.88 437.914 193.846C438.164 195.14 438.33 196.45 438.409 197.766Z" fill="url(#paint1_linear_1419_8263)"/>
<path d="M97.168 190.138L92.1337 187.937C91.4786 187.65 90.9416 187.146 90.6133 186.509C90.2849 185.871 90.1852 185.14 90.331 184.437C90.4768 183.734 90.8591 183.104 91.4136 182.651C91.9681 182.198 92.6609 181.952 93.3753 181.952H365.868C369.234 181.92 372.564 182.652 375.61 184.091C378.656 185.531 381.339 187.642 383.461 190.268C385.229 192.423 386.399 195.01 386.853 197.766C388.081 205.993 387.328 241.825 386.989 255.28C386.805 262.587 381.446 268.878 374.227 269.785L373.453 269.86H109.53L97.168 190.138Z" fill="#68E1FD"/>
<path d="M97.168 190.138L92.1337 187.937C91.4786 187.65 90.9416 187.146 90.6133 186.509C90.2849 185.871 90.1852 185.14 90.331 184.437C90.4768 183.734 90.8591 183.104 91.4136 182.651C91.9681 182.198 92.6609 181.952 93.3753 181.952H365.868C369.234 181.92 372.564 182.652 375.61 184.091C378.656 185.531 381.339 187.642 383.461 190.268C385.229 192.423 386.399 195.01 386.853 197.766C388.081 205.993 387.328 241.825 386.989 255.28C386.805 262.587 381.446 268.878 374.227 269.785L373.453 269.86H109.53L97.168 190.138Z" fill="#68E1FD"/>
<path d="M387.009 255.28C386.826 262.587 381.466 268.878 374.247 269.785L373.474 269.86H109.55L97.168 190.138L92.1337 187.937C91.4786 187.65 90.9416 187.146 90.6133 186.509C90.2849 185.871 90.1852 185.14 90.331 184.437C90.4768 183.734 90.8591 183.104 91.4136 182.651C91.9681 182.198 92.6609 181.952 93.3753 181.952H365.868C369.234 181.92 372.564 182.652 375.61 184.091C378.656 185.531 381.339 187.642 383.461 190.268C385.229 192.423 386.399 195.01 386.853 197.766C388.101 205.993 387.348 241.825 387.009 255.28Z" fill="url(#paint2_linear_1419_8263)"/>
<path opacity="0.61" d="M83.5045 269.887H374.431C375.438 269.887 376.403 269.486 377.115 268.771C377.828 268.057 378.229 267.088 378.231 266.077C378.231 265.064 377.83 264.094 377.118 263.378C376.405 262.662 375.439 262.26 374.431 262.26H83.5045C82.4968 262.26 81.5304 262.662 80.8179 263.378C80.1054 264.094 79.7051 265.064 79.7051 266.077C79.7069 267.088 80.108 268.057 80.8203 268.771C81.5326 269.486 82.498 269.887 83.5045 269.887Z" fill="url(#paint3_linear_1419_8263)"/>
<path d="M83.5045 269.887H374.431C375.438 269.887 376.403 269.486 377.115 268.771C377.828 268.057 378.229 267.088 378.23 266.077C378.23 265.576 378.132 265.079 377.941 264.616C377.75 264.153 377.47 263.732 377.118 263.378C376.765 263.023 376.346 262.742 375.885 262.55C375.424 262.358 374.93 262.26 374.431 262.26H83.5045C82.4968 262.26 81.5304 262.662 80.8179 263.378C80.1054 264.094 79.7051 265.064 79.7051 266.077C79.7069 267.088 80.108 268.057 80.8203 268.771C81.5326 269.486 82.498 269.887 83.5045 269.887ZM434.129 294.93V342.609C434.13 345.689 433.527 348.74 432.354 351.586C431.181 354.433 429.462 357.019 427.294 359.198C425.126 361.376 422.552 363.105 419.719 364.284C416.886 365.463 413.85 366.07 410.783 366.07H103.845C100.777 366.074 97.7389 365.47 94.9039 364.293C92.069 363.115 89.4933 361.387 87.3244 359.208C85.1556 357.028 83.4362 354.44 82.2649 351.591C81.0937 348.743 80.4935 345.69 80.4989 342.609V294.93C80.4941 290.596 81.6924 286.347 83.9591 282.66C84.4542 281.843 85.0027 281.06 85.601 280.316C87.7849 277.56 90.5596 275.335 93.7185 273.807C96.8774 272.279 100.339 271.486 103.845 271.489H410.783C413.85 271.489 416.887 272.096 419.721 273.275C422.554 274.455 425.128 276.184 427.296 278.363C429.464 280.543 431.184 283.13 432.356 285.977C433.529 288.824 434.131 291.876 434.129 294.957V294.93Z" fill="#68E1FD"/>
<path opacity="0.61" d="M314.603 366.071H103.844C99.3681 366.072 94.9858 364.781 91.2195 362.351C87.4532 359.92 84.4618 356.454 82.6016 352.363H301.197C301.197 352.363 304.345 363.951 314.603 366.071Z" fill="url(#paint4_linear_1419_8263)"/>
<path d="M314.604 271.463C304.915 273.072 302.208 282.635 302.208 282.635H83.959L85.6009 280.29C87.7848 277.534 90.5596 275.309 93.7184 273.781C96.8773 272.253 100.339 271.46 103.845 271.463H314.604Z" fill="url(#paint5_linear_1419_8263)"/>
<path opacity="0.61" d="M434.129 294.93V342.609C434.132 346.805 433.014 350.926 430.891 354.539C428.768 358.153 425.718 361.128 422.059 363.153H325.656C323.731 363.154 321.824 362.773 320.046 362.034C318.267 361.295 316.65 360.21 315.289 358.843C313.927 357.476 312.847 355.852 312.11 354.066C311.373 352.279 310.994 350.364 310.994 348.43V290.581C310.993 288.647 311.372 286.731 312.108 284.943C312.845 283.156 313.925 281.532 315.286 280.164C316.648 278.796 318.265 277.711 320.044 276.971C321.823 276.231 323.73 275.851 325.656 275.852H424.38C427.398 278.023 429.857 280.887 431.553 284.205C433.248 287.523 434.132 291.2 434.129 294.93Z" fill="url(#paint6_linear_1419_8263)"/>
<path d="M434.131 294.931V342.61C434.132 343.489 434.084 344.367 433.989 345.241C433.948 345.623 433.894 345.997 433.833 346.372C433.579 348.006 433.147 349.606 432.544 351.144C432.401 351.532 432.245 351.907 432.069 352.282C431.312 353.981 430.355 355.583 429.219 357.053C428.921 357.435 428.609 357.817 428.276 358.185C426.506 360.201 424.404 361.896 422.061 363.195H339.512C337.427 363.198 335.365 362.753 333.466 361.889C331.567 361.025 329.874 359.762 328.501 358.185C328.183 357.823 327.885 357.445 327.605 357.053C326.571 355.615 325.809 353.998 325.36 352.282C325.258 351.914 325.176 351.532 325.109 351.144C324.939 350.256 324.855 349.355 324.857 348.451V290.582C324.855 289.551 324.964 288.522 325.183 287.515C325.252 287.132 325.345 286.754 325.461 286.383C325.962 284.655 326.782 283.037 327.877 281.612C328.173 281.216 328.493 280.839 328.833 280.481C330.2 279.011 331.854 277.839 333.691 277.039C335.528 276.24 337.51 275.829 339.512 275.832H424.382C426.2 277.141 427.82 278.706 429.192 280.481C429.477 280.849 429.755 281.224 430.02 281.612C431.042 283.097 431.884 284.699 432.53 286.383C432.679 286.758 432.822 287.14 432.937 287.515C433.46 289.062 433.81 290.662 433.982 292.286C434.03 292.661 434.063 293.043 434.084 293.425C434.118 293.902 434.131 294.426 434.131 294.931Z" fill="url(#paint7_linear_1419_8263)"/>
<path d="M430.019 281.631H327.876C328.172 281.236 328.491 280.858 328.832 280.5H429.184C429.476 280.868 429.754 281.243 430.019 281.631ZM432.936 287.514H325.182C325.251 287.131 325.344 286.753 325.46 286.382H432.529C432.678 286.757 432.821 287.139 432.936 287.514ZM434.083 293.403H324.85V292.265H433.981C434.029 292.64 434.062 293.021 434.083 293.403ZM324.856 298.154H434.137V299.285H324.856V298.154ZM324.856 304.036H434.137V305.168H324.856V304.036ZM324.856 309.925H434.137V311.057H324.856V309.925ZM324.856 315.814H434.137V316.939H324.856V315.814ZM324.856 321.697H434.137V322.821H324.856V321.697ZM324.856 327.586H434.137V328.711H324.856V327.586ZM324.856 333.468H434.137V334.593H324.856V333.468ZM324.856 339.357H434.137V340.489H324.856V339.357ZM433.988 345.24C433.947 345.621 433.893 345.996 433.832 346.371H324.856V345.24H433.988ZM432.577 351.122C432.434 351.511 432.278 351.886 432.102 352.26H325.379C325.277 351.892 325.196 351.511 325.128 351.122H432.577ZM429.218 357.011C428.92 357.393 428.608 357.775 428.275 358.143H328.5C328.182 357.781 327.883 357.403 327.604 357.011H429.218Z" fill="white"/>
<path d="M298.7 260.468H368.243C365.294 261.949 362.041 262.714 358.744 262.704H100.167C95.8866 262.733 91.702 261.433 88.1851 258.982C87.1896 258.292 86.2646 257.504 85.4237 256.631C85.1523 256.351 84.8877 256.058 84.6367 255.765C83.69 254.653 82.8833 253.429 82.2349 252.119C82.0924 251.832 81.9568 251.539 81.8346 251.253C81.3302 250.085 80.9658 248.861 80.7491 247.606C80.7016 247.32 80.6541 247.034 80.6202 246.734C80.5384 246.067 80.4976 245.395 80.4981 244.723V208.148C80.4981 207.752 80.498 207.364 80.5388 206.982C80.5795 206.6 80.5863 206.403 80.6202 206.116C80.7711 204.871 81.0648 203.647 81.4954 202.47C81.604 202.177 81.7193 201.89 81.8414 201.597C82.395 200.301 83.106 199.078 83.9582 197.957C84.1821 197.664 84.4128 197.371 84.6367 197.085C85.1376 196.497 85.6747 195.942 86.2447 195.422C90.069 191.981 95.0333 190.098 100.167 190.139H358.744C362.808 190.135 366.785 191.319 370.19 193.547H298.7C297.611 193.545 296.527 193.678 295.47 193.943C293.302 194.463 291.311 195.554 289.703 197.105C289.415 197.378 289.145 197.669 288.896 197.978C287.988 199.047 287.297 200.283 286.861 201.618C286.765 201.904 286.686 202.195 286.623 202.49C286.439 203.26 286.348 204.05 286.352 204.842V249.194C286.355 249.881 286.425 250.566 286.562 251.239C286.617 251.532 286.689 251.821 286.779 252.105C287.166 253.432 287.807 254.671 288.665 255.752C288.9 256.054 289.151 256.343 289.418 256.617C290.583 257.829 291.986 258.785 293.537 259.425C295.17 260.118 296.926 260.473 298.7 260.468Z" fill="#68E1FD"/>
<path d="M378.408 208.414V245.419C378.408 245.623 378.408 245.841 378.367 246.046C378.327 246.25 378.333 246.462 378.313 246.666C378.293 246.871 378.259 247.048 378.238 247.232C378.218 247.416 378.191 247.525 378.164 247.668C378.156 247.742 378.142 247.815 378.123 247.886C378.089 248.084 378.048 248.288 378.001 248.486C377.953 248.684 377.94 248.745 377.899 248.874C377.858 249.004 377.838 249.127 377.797 249.256C377.757 249.386 377.723 249.529 377.682 249.665L377.54 250.081C377.54 250.197 377.472 250.306 377.431 250.415C377.39 250.524 377.322 250.708 377.261 250.851L377.078 251.294C377.049 251.377 377.013 251.457 376.97 251.533C376.927 251.647 376.877 251.759 376.82 251.867C376.78 251.962 376.725 252.058 376.678 252.153C376.63 252.248 376.535 252.446 376.454 252.582C376.373 252.719 376.223 253.025 376.094 253.264L375.884 253.605C375.694 253.918 375.497 254.218 375.287 254.511C375.178 254.668 375.07 254.811 374.961 254.954C374.744 255.248 374.514 255.527 374.283 255.806C374.052 256.086 373.767 256.393 373.489 256.672C372.933 257.243 372.342 257.778 371.718 258.274C371.706 258.291 371.69 258.305 371.671 258.315C371.467 258.478 371.264 258.628 371.053 258.785L370.375 259.255L369.696 259.692C369.479 259.828 369.262 259.951 369.018 260.08L368.238 260.496H298.702C296.93 260.502 295.174 260.152 293.539 259.467C291.99 258.829 290.588 257.877 289.42 256.672C289.153 256.398 288.902 256.109 288.667 255.806C287.808 254.734 287.167 253.502 286.781 252.18C286.691 251.899 286.619 251.612 286.564 251.321C286.426 250.649 286.356 249.964 286.354 249.277V205.094C286.351 204.307 286.442 203.522 286.625 202.756C286.687 202.464 286.767 202.174 286.862 201.891C287.299 200.562 287.991 199.333 288.898 198.271C289.147 197.963 289.417 197.671 289.705 197.399C291.318 195.857 293.307 194.77 295.472 194.25C296.529 193.991 297.614 193.86 298.702 193.861H370.192C370.504 194.066 370.816 194.277 371.114 194.502L371.46 194.761C371.933 195.114 372.385 195.491 372.817 195.893L373.191 196.247L373.462 196.52L373.828 196.901L374.195 197.31L374.269 197.399L374.324 197.467C374.541 197.726 374.758 197.999 374.961 198.271C375.07 198.408 375.172 198.551 375.273 198.687C375.284 198.708 375.297 198.726 375.314 198.742C375.495 199.005 375.671 199.271 375.843 199.539L376.135 200.016C376.311 200.316 376.481 200.63 376.637 200.936C376.712 201.1 376.793 201.25 376.868 201.407C376.942 201.564 377.017 201.734 377.078 201.891C377.139 202.048 377.207 202.177 377.261 202.327C377.316 202.477 377.377 202.613 377.424 202.756C377.472 202.9 377.526 203.043 377.573 203.186C377.78 203.776 377.945 204.379 378.069 204.992C378.09 205.07 378.106 205.15 378.116 205.231C378.116 205.374 378.17 205.517 378.198 205.66C378.225 205.803 378.272 206.144 378.306 206.383C378.34 206.621 378.374 206.955 378.388 207.248V207.712C378.388 207.869 378.408 208.175 378.408 208.414Z" fill="url(#paint8_linear_1419_8263)"/>
<path d="M293.537 259.432C292.003 259.805 290.42 260.15 288.787 260.469H104.428C98.9784 260.5 93.5389 260.003 88.1851 258.983C87.1896 258.292 86.2646 257.505 85.4237 256.631C85.1523 256.352 84.8877 256.059 84.6367 255.765C83.69 254.654 82.8833 253.429 82.2349 252.119C82.0924 251.832 81.9568 251.539 81.8346 251.253C81.3302 250.085 80.9658 248.861 80.7491 247.606C80.7016 247.32 80.6541 247.034 80.6202 246.734C80.5384 246.067 80.4976 245.395 80.4981 244.723V208.148C80.4981 207.752 80.498 207.364 80.5388 206.982C80.5795 206.601 80.5863 206.403 80.6202 206.117C80.7711 204.871 81.0648 203.648 81.4954 202.47C81.604 202.177 81.7193 201.891 81.8414 201.598C82.395 200.301 83.106 199.079 83.9582 197.958C84.1821 197.665 84.4128 197.371 84.6367 197.085C85.1376 196.498 85.6747 195.942 86.2447 195.422C92.2185 194.127 98.3164 193.498 104.428 193.548H293.951L295.47 193.943C293.302 194.463 291.311 195.555 289.703 197.106C289.415 197.378 289.145 197.669 288.896 197.978C287.988 199.047 287.297 200.283 286.861 201.618C286.765 201.904 286.686 202.195 286.623 202.49C286.439 203.261 286.348 204.05 286.352 204.842V249.195C286.355 249.882 286.425 250.566 286.562 251.239C286.617 251.532 286.689 251.821 286.779 252.105C287.166 253.432 287.807 254.671 288.665 255.752C288.9 256.054 289.151 256.343 289.418 256.617C290.583 257.832 291.985 258.79 293.537 259.432Z" fill="#68E1FD"/>
<path d="M293.537 259.433C292.003 259.805 290.42 260.15 288.787 260.469H104.428C98.9784 260.5 93.5389 260.003 88.1851 258.983C87.1896 258.292 86.2646 257.505 85.4237 256.631C85.1523 256.352 84.8877 256.059 84.6367 255.765C83.69 254.654 82.8833 253.429 82.2349 252.119C82.0924 251.832 81.9568 251.539 81.8346 251.253C81.3302 250.085 80.9658 248.861 80.7491 247.606C80.7016 247.32 80.6541 247.034 80.6202 246.734C80.5384 246.067 80.4976 245.395 80.4981 244.723V208.148C80.4981 207.752 80.498 207.364 80.5388 206.982C80.5795 206.601 80.5863 206.403 80.6202 206.117C80.7711 204.871 81.0648 203.648 81.4954 202.47C81.604 202.177 81.7193 201.891 81.8414 201.598C82.395 200.301 83.106 199.079 83.9582 197.958C84.1821 197.665 84.4128 197.371 84.6367 197.085C85.1376 196.498 85.6747 195.942 86.2447 195.422C92.2185 194.127 98.3164 193.498 104.428 193.548H293.951L295.47 193.943C293.302 194.463 291.311 195.555 289.703 197.106C289.415 197.378 289.145 197.669 288.896 197.978C287.988 199.047 287.297 200.283 286.861 201.618C286.765 201.904 286.686 202.195 286.623 202.49C286.439 203.261 286.348 204.05 286.352 204.842V249.195C286.355 249.882 286.425 250.567 286.562 251.24C286.617 251.532 286.689 251.821 286.779 252.105C287.166 253.432 287.807 254.671 288.665 255.752C288.9 256.054 289.151 256.343 289.418 256.617C290.583 257.832 291.985 258.79 293.537 259.433Z" fill="url(#paint9_linear_1419_8263)"/>
<path d="M373.474 263.18C372.928 263.814 372.337 264.406 371.703 264.952C372.332 264.401 372.923 263.809 373.474 263.18Z" fill="url(#paint10_linear_1419_8263)"/>
<path d="M375.253 199.189C375.151 199.033 375.049 198.876 374.94 198.726C374.737 198.426 374.52 198.126 374.303 197.84C374.642 198.276 374.961 198.726 375.253 199.189Z" fill="url(#paint11_linear_1419_8263)"/>
<path d="M377.403 203.682C377.458 203.839 377.505 203.996 377.553 204.153C377.465 203.832 377.356 203.519 377.24 203.205C377.301 203.362 377.356 203.519 377.403 203.682Z" fill="url(#paint12_linear_1419_8263)"/>
<path d="M378.406 208.414V245.828C378.406 246.182 378.372 246.352 378.338 246.618C378.216 247.741 377.975 248.847 377.619 249.917C377.538 250.183 377.449 250.442 377.348 250.694C375.637 254.971 372.403 258.455 368.277 260.469H287.023C280.754 260.469 275.578 256.215 274.811 250.708C274.763 250.447 274.736 250.183 274.73 249.917C274.705 249.691 274.693 249.463 274.696 249.236V205.094C274.696 198.885 280.218 193.861 287.044 193.861H370.19C375.17 197.106 378.406 202.409 378.406 208.414Z" fill="#68E1FD"/>
<path d="M374.941 197.958H288.898C289.147 197.65 289.417 197.358 289.705 197.086H374.229C374.486 197.372 374.717 197.638 374.941 197.958ZM377.404 202.471H286.625C286.687 202.175 286.766 201.884 286.862 201.598H377.065C377.187 201.885 377.302 202.178 377.404 202.471ZM378.374 206.983H286.354V206.111H378.299C378.299 206.397 378.354 206.69 378.374 206.983ZM286.354 210.623H378.415V211.495H286.354V210.623ZM286.354 215.135H378.415V216.008H286.354V215.135ZM286.354 219.647H378.415V220.52H286.354V219.647ZM286.354 224.166H378.415V225.032H286.354V224.166ZM286.354 228.679H378.415V229.544H286.354V228.679ZM286.354 233.191H378.415V234.057H286.354V233.191ZM286.354 237.703H378.415V238.569H286.354V237.703ZM286.354 242.216H378.415V243.088H286.354V242.216ZM378.421 246.714C378.406 247.005 378.406 247.296 378.421 247.587H286.354V246.714H378.421ZM377.071 251.24C377.071 251.533 376.698 251.82 376.671 252.113H286.781C286.69 251.827 286.618 251.535 286.564 251.24H377.071Z" fill="white"/>
<path d="M292.201 197.958H83.9592C84.183 197.665 84.4137 197.372 84.6376 197.086H290.546C291.115 197.372 291.665 197.638 292.201 197.958ZM290.328 202.471H81.4963C81.6049 202.178 81.7202 201.891 81.8423 201.598H289.507C289.797 201.873 290.071 202.165 290.328 202.471ZM292.635 206.983H80.5397C80.5397 206.69 80.5872 206.404 80.6211 206.117H292.432C292.516 206.402 292.584 206.691 292.635 206.983ZM80.4922 210.623H292.73V211.488H80.4922V210.623ZM80.4922 215.135H292.73V216.001H80.4922V215.135ZM80.4922 219.647H292.73V220.52H80.4922V219.647ZM80.4922 224.166H292.73V225.032H80.4922V224.166ZM80.4922 228.686H292.73V229.544H80.4922V228.686ZM80.4922 233.191H292.73V234.05H80.4922V233.191ZM80.4922 237.703H292.73V238.569H80.4922V237.703ZM80.4922 242.216H292.73V243.088H80.4922V242.216ZM292.445 246.714C292.355 247.011 292.249 247.302 292.126 247.587H80.75C80.7025 247.3 80.655 247.014 80.6211 246.714H292.445ZM289.535 251.247C289.231 251.553 288.912 251.841 288.578 252.113H82.2358C82.0934 251.826 81.9577 251.533 81.8356 251.247H289.535Z" fill="white"/>
<path opacity="0.2" d="M300.133 181.959C297.073 185.653 293.117 189.368 291.55 190.193C282.635 194.91 272.309 198.556 267.078 207.179C260.456 218.085 264.737 232.351 261.697 244.77C261.141 247.033 260.279 249.343 258.536 250.904C256.792 252.465 253.99 252.997 252.138 251.586C250.509 250.352 250.102 248.116 249.797 246.092C247.123 226.982 247.023 207.598 249.499 188.462C239.322 193.028 232.435 202.666 227.001 212.414C221.566 222.161 217.007 232.61 209.435 240.796C207.284 243.113 204.455 245.383 201.334 244.933C197.582 240.162 199.55 233.189 201.68 227.477C205.948 216.006 210.229 204.507 215.724 193.567C217.502 190.022 219.476 186.464 222.462 183.861C223.279 183.15 224.16 182.518 225.094 181.973L300.133 181.959Z" fill="#3F3D56"/>
<path d="M374.267 255.758C374.037 256.065 373.779 256.303 373.521 256.623H85.4237C85.1524 256.344 84.8878 256.051 84.6367 255.758H374.267Z" fill="white"/>
<path d="M147.755 366.07H112.943C101.782 363.248 96.3751 351.122 96.3751 351.122C96.3751 351.122 95.3642 291.822 96.3751 284.324C97.386 276.826 114.293 271.441 114.293 271.441H147.755C136.595 273.05 128.487 283.983 128.487 283.983C128.487 283.983 127.808 349.52 128.487 353.93C129.165 358.34 147.755 366.07 147.755 366.07Z" fill="url(#paint13_linear_1419_8263)"/>
<path d="M147.756 366.07H136.595C125.448 363.248 120.04 351.122 120.04 351.122C120.04 351.122 119.023 291.822 120.04 284.324C121.058 276.826 137.952 271.441 137.952 271.441H147.756C136.595 273.05 128.487 283.983 128.487 283.983C128.487 283.983 127.809 349.52 128.487 353.93C129.166 358.34 147.756 366.07 147.756 366.07Z" fill="url(#paint14_linear_1419_8263)"/>
<path d="M196.239 224.799L192.996 230.456L200.527 233.748L203.641 228.364L196.239 224.799Z" fill="url(#paint15_linear_1419_8263)"/>
<path d="M246.872 239.992L246.52 246.297L254.729 245.82L255.075 239.992H246.872Z" fill="url(#paint16_linear_1419_8263)"/>
<path d="M194.473 229.203C194.307 228.86 194.077 228.552 193.795 228.296C193.461 228.074 193.08 227.934 192.682 227.887L179.649 225.256C179.178 225.14 178.695 225.087 178.21 225.099C176.962 225.181 175.938 226.101 175.117 227.049C174.646 227.496 174.344 228.093 174.262 228.739C174.31 229.144 174.44 229.535 174.646 229.887C174.851 230.239 175.127 230.544 175.456 230.784C176.372 231.637 177.334 232.438 178.339 233.183C180.271 234.544 182.28 235.789 184.357 236.912C185.755 237.702 187.153 238.493 188.584 239.216C190.938 240.402 193.381 241.397 195.837 242.365C195.918 242.416 196.008 242.45 196.102 242.465C196.196 242.481 196.293 242.477 196.385 242.455C196.478 242.433 196.566 242.392 196.643 242.336C196.72 242.279 196.785 242.208 196.834 242.126C198.611 240.265 200.012 238.075 200.959 235.678C201.197 235.085 201.638 233.783 200.959 233.292C200.722 233.122 200.05 233.149 199.752 233.081C199.307 232.973 198.871 232.829 198.449 232.652C196.795 231.952 195.404 230.745 194.473 229.203ZM247.353 243.435C247.037 243.223 246.685 243.073 246.315 242.992C245.915 242.968 245.516 243.038 245.148 243.196L232.569 247.511C232.104 247.647 231.66 247.844 231.246 248.097C230.208 248.779 229.781 250.142 229.543 251.348C229.362 251.972 229.403 252.64 229.659 253.236C229.9 253.56 230.205 253.829 230.556 254.027C230.906 254.225 231.294 254.348 231.694 254.388C232.911 254.664 234.144 254.869 235.385 255.002C237.733 255.206 240.092 255.268 242.448 255.186C244.056 255.186 245.657 255.145 247.258 255.043C249.89 254.879 252.503 254.504 255.101 254.102C255.29 254.109 255.473 254.042 255.613 253.915C255.753 253.787 255.837 253.61 255.847 253.42C256.45 250.912 256.568 248.312 256.193 245.759C256.098 245.125 255.807 243.789 254.986 243.714C254.694 243.68 254.131 244.048 253.839 244.137C253.396 244.273 252.942 244.369 252.482 244.423C250.711 244.647 248.916 244.301 247.353 243.435ZM298.279 158.41C298.279 158.41 296.148 178.443 277.769 181.974C265.326 184.366 250.108 183.514 241.586 182.717C239.571 182.53 237.544 182.906 235.728 183.805C233.913 184.704 232.381 186.089 231.3 187.808L204.84 230.15L197.174 226.428H197.112L194.399 225.12L216.435 173.467C217.729 170.258 219.717 167.379 222.253 165.035C224.79 162.692 227.813 160.944 231.104 159.917L256.417 152.044L262.333 150.204C262.333 150.204 286.026 147.804 298.279 158.41Z" fill="#3F3D56"/>
<path opacity="0.24" d="M256.438 152.018L258.101 155.555C258.101 155.555 228.927 164.144 225.344 168.322C220.561 173.911 197.181 226.429 197.181 226.429H197.12L194.406 225.121L216.443 173.468C217.737 170.259 219.724 167.379 222.261 165.036C224.798 162.693 227.82 160.945 231.111 159.917L256.438 152.018Z" fill="white"/>
<path d="M266.799 154.934C266.799 154.934 243.364 177.87 242.605 190.139C241.845 202.408 245.122 240.878 245.122 240.878H256.493C256.493 240.878 255.93 194.174 260.564 193.847C265.198 193.52 286.203 179.956 289.575 176.064C292.947 172.172 298.327 158.396 298.327 158.396L266.799 154.934Z" fill="#3F3D56"/>
<path d="M298.28 158.411C298.28 158.411 279.493 168.042 259.987 156.775C258.286 155.793 256.651 154.698 255.096 153.496C255.096 153.496 263.319 138.739 256.772 117.302C253.969 108.135 253.908 90.6309 267.783 88.1362H267.851C281.651 85.6756 280.871 89.0973 280.871 89.0973L287.113 95.1909C299.115 104.999 300.431 119.974 298.28 158.411Z" fill="#68E1FD"/>
<path opacity="0.24" d="M267.851 88.1211C267.272 89.382 266.377 90.4698 265.252 91.277C265.252 91.277 257.002 94.9509 258.651 107.104C260.3 119.257 263.319 142.63 263.319 142.63L259.987 156.773C258.286 155.792 256.651 154.696 255.096 153.495C255.096 153.495 263.319 138.738 256.772 117.301C253.969 108.133 253.908 90.6294 267.783 88.1347L267.851 88.1211Z" fill="white"/>
<path d="M280.259 87.3457C279.51 88.2447 278.586 88.9817 277.545 89.5122C276.504 90.0427 275.367 90.3556 274.202 90.432C273.037 90.5085 271.868 90.3469 270.767 89.957C269.666 89.5671 268.656 88.957 267.796 88.1636C267.796 88.1636 257.619 98.3879 267.904 99.6216C273.332 100.303 280.015 93.7052 281.949 89.9767L280.259 87.3457Z" fill="#3F3D56"/>
<path d="M283.314 77.7676C283.273 77.9039 281.36 83.7862 279.921 87.9918C278.854 91.2699 276.59 94.0198 273.584 95.6872C271.821 96.7563 269.858 97.4521 267.817 97.7321C267.33 97.7768 266.839 97.6853 266.4 97.4678C265.96 97.2502 265.589 96.9149 265.328 96.499C265.066 96.0831 264.924 95.6026 264.916 95.1106C264.909 94.6185 265.037 94.134 265.287 93.7105C265.762 92.8722 266.277 91.9043 266.752 90.875C267.743 88.7348 268.57 86.3559 268.435 84.4747V84.2702C268.313 83.2887 268.95 82.423 270.022 81.6664C271.535 80.6099 273.917 79.7783 276.244 79.1513C278.573 78.5582 280.933 78.0963 283.314 77.7676Z" fill="url(#paint17_linear_1419_8263)"/>
<path d="M268.23 90.7931C267.764 90.8876 267.288 90.9219 266.812 90.8954C267.803 88.7551 268.631 86.3763 268.495 84.495L270.069 81.6868L271.243 79.601L276.291 79.1716L281.393 78.7422C278.028 86.7375 272.376 90.0502 268.23 90.7931Z" fill="url(#paint18_linear_1419_8263)"/>
<path d="M277.707 50.8724C275.861 50.4836 273.955 50.4826 272.108 50.8696C270.262 51.2565 268.515 52.023 266.977 53.1208C265.44 54.2187 264.145 55.6241 263.174 57.2489C262.203 58.8737 261.577 60.6826 261.336 62.5621C260.293 68.0708 260.249 73.7236 261.207 79.248C263.534 87.8022 276.038 84.7009 278.576 82.1039C281.113 79.507 291.311 67.5378 289.642 62.8824C288.576 59.7197 284.845 52.4946 277.707 50.8724Z" fill="url(#paint19_linear_1419_8263)"/>
<path d="M267.634 42.53L269.561 44.2749C268.237 43.8827 266.839 43.8123 265.482 44.0695C264.126 44.3266 262.849 44.904 261.759 45.754C259.156 47.2505 257.245 49.7164 256.439 52.6179L260.721 51.8476C260.721 51.8476 259.16 56.4758 266.257 58.7865C273.354 61.0971 280.885 63.4623 280.885 63.4623L279.365 59.3727C279.365 59.3727 283.347 62.3854 283.68 64.2666C283.668 67.1198 283.441 69.968 283.001 72.7868C283.001 72.7868 286.041 68.629 286.502 69.8423C286.964 71.0555 284.318 74.8521 283.11 75.5269C281.902 76.2017 281.332 79.0032 281.183 79.2076C281.034 79.4121 286.611 76.8629 287.16 75.6087C287.71 74.3545 295.791 62.4195 293.586 58.8478L295.411 59.1954C294.542 58.1923 293.462 57.396 292.249 56.8643C292.249 56.8643 284.67 38.1404 267.634 42.53Z" fill="#3F3D56"/>
<path d="M264.946 143.177C263.921 142.148 262.911 140.921 261.479 140.676C260.977 141.875 262.001 143.109 262.436 144.329C262.501 144.465 262.535 144.614 262.535 144.765C262.535 144.917 262.501 145.066 262.436 145.202C262.232 145.529 261.757 145.549 261.384 145.522C259.574 145.392 257.798 144.963 256.126 144.254C254.579 143.573 253.093 142.693 251.417 142.523C251.238 142.487 251.052 142.511 250.888 142.591C250.481 142.85 250.719 143.477 251.01 143.859C251.633 144.683 252.34 145.439 253.12 146.115C251.938 145.59 250.677 145.266 249.389 145.154C249.029 145.154 248.541 145.229 248.547 145.59C248.571 145.739 248.642 145.875 248.751 145.979C249.705 147.076 250.855 147.982 252.143 148.651C251.207 148.452 250.25 148.372 249.294 148.412C248.88 148.412 248.33 148.63 248.391 149.039C248.422 149.172 248.487 149.295 248.581 149.394C249.728 150.787 251.279 151.786 253.019 152.25L250.305 152.311C250.134 152.303 249.963 152.338 249.809 152.413C249.321 152.727 249.748 153.497 250.223 153.831C252.313 155.296 254.973 155.555 257.53 155.739C262.422 156.094 267.572 156.285 271.982 154.117C272.301 153.954 272.66 153.736 272.721 153.381C272.735 153.196 272.707 153.009 272.64 152.836C272.104 151.043 271.832 147.792 270.211 146.701C269.424 146.176 268.454 145.877 267.646 145.338C266.839 144.8 265.869 143.641 264.946 143.177Z" fill="url(#paint20_linear_1419_8263)"/>
<path d="M302.261 139.372C300.727 154.511 273.385 156.365 273.385 156.365L270.569 146.638L270.074 144.927C270.074 144.927 284.702 143.073 287.497 138.472C290.293 133.872 278.786 118.447 285.74 109.845C292.694 101.243 294.275 103.887 294.275 103.887C294.275 103.887 303.78 124.234 302.261 139.372Z" fill="#68E1FD"/>
<path d="M228.908 116.742C228.908 116.742 228.908 117.308 228.793 118.16C228.562 120.28 227.904 124.158 226.153 125.569C223.69 127.553 223.351 124.663 223.406 123.524C223.46 122.899 223.562 122.279 223.711 121.67C224.281 119.203 227.3 117.512 228.46 116.953L228.908 116.742Z" fill="url(#paint21_linear_1419_8263)"/>
<path d="M228.792 118.162C228.561 120.282 227.903 124.16 226.152 125.571C225.392 125.019 224.415 124.283 223.404 123.526C222.048 122.504 220.602 121.427 219.578 120.677C218.667 120.063 217.837 119.334 217.108 118.51C216.473 117.67 215.944 116.754 215.534 115.783L213.431 111.189C212.753 109.683 212.074 107.692 213.282 106.527C213.587 106.227 216.369 105.682 216.552 105.286C217.061 104.155 213.838 101.762 214.042 100.515C214.143 100.175 214.359 99.8816 214.652 99.685C214.946 99.4883 215.299 99.401 215.65 99.438C216.328 99.4721 218.255 101.251 218.859 101.612C220.053 102.294 219.049 103.262 220.216 103.971C221.73 104.752 223.105 105.779 224.286 107.011C225.603 108.558 226.268 110.542 226.899 112.464C227.36 113.875 227.977 115.401 228.452 116.921C228.581 117.358 228.697 117.76 228.792 118.162Z" fill="url(#paint22_linear_1419_8263)"/>
<path d="M218.811 107.295L214.285 85.7357L212.609 77.7676L238.907 84.8496L246.54 136.427L222.101 128.943L218.811 107.295Z" fill="#68E1FD"/>
<path d="M224.285 107.034L213.877 83.8047L222.1 128.941L246.538 136.425L243.919 118.737L224.285 107.034Z" fill="url(#paint23_linear_1419_8263)"/>
<path d="M220.311 116.593C221.139 116.177 222.835 115.42 223.262 114.596C223.364 114.398 223.513 114.139 223.384 113.962C222.794 113.144 220.365 114.187 219.673 113.962C220.148 113.178 224.382 110.799 222.387 110.26C221.96 110.145 219.307 111.494 218.879 111.371C219.212 111.099 221.939 109.149 222.407 108.645C222.542 108.495 222.623 108.303 222.635 108.101C222.647 107.899 222.591 107.698 222.475 107.533C222.359 107.367 222.19 107.246 221.997 107.189C221.803 107.132 221.596 107.143 221.41 107.22C219.965 107.887 218.484 108.47 216.973 108.965C217.265 108.481 221.206 106.239 221.362 105.666C221.443 105.46 221.458 105.234 221.403 105.019C221.347 104.898 221.267 104.79 221.168 104.702C221.069 104.614 220.953 104.548 220.826 104.508C219.727 104.078 218.493 104.508 217.393 104.951L214.788 105.987C213.954 106.314 213.031 106.736 212.753 107.582C212.631 108.009 212.61 108.46 212.692 108.897C213.016 111.645 213.996 114.273 215.548 116.559C216.321 117.69 218.764 120.423 220.168 120.689C221.417 120.928 219.151 117.206 220.311 116.593Z" fill="url(#paint24_linear_1419_8263)"/>
<path opacity="0.24" d="M247.517 186.465C247.517 186.465 256.486 165.819 266.853 159.943L263.318 158.505C263.318 158.505 245.115 177.952 242.964 187.958C240.813 197.964 245.128 240.899 245.128 240.899H248.114C248.114 240.899 243.181 190.677 247.517 186.465ZM288.292 141.744C282.519 144.13 272.688 146.209 270.571 146.645L270.164 146.727L270.076 144.934C270.076 144.934 284.703 143.08 287.499 138.479C290.294 133.878 278.787 118.454 285.741 109.852C285.741 109.852 284.859 117.458 287.146 123.082C289.432 128.705 294.779 139.059 288.292 141.744Z" fill="white"/>
</g>
<defs>
<linearGradient id="paint0_linear_1419_8263" x1="285.145" y1="483.267" x2="174.258" y2="-128.398" gradientUnits="userSpaceOnUse">
<stop offset="0.02" stop-color="#68E1FD"/>
<stop offset="1" stop-color="white" stop-opacity="0"/>
</linearGradient>
<linearGradient id="paint1_linear_1419_8263" x1="399.079" y1="179.294" x2="441.491" y2="243.629" gradientUnits="userSpaceOnUse">
<stop stop-color="white" stop-opacity="0"/>
<stop offset="0.99" stop-color="white"/>
</linearGradient>
<linearGradient id="paint2_linear_1419_8263" x1="238.601" y1="232.467" x2="239.813" y2="123.245" gradientUnits="userSpaceOnUse">
<stop stop-color="white" stop-opacity="0"/>
<stop offset="0.99" stop-color="white"/>
</linearGradient>
<linearGradient id="paint3_linear_1419_8263" x1="279.697" y1="143.448" x2="222.774" y2="279.74" gradientUnits="userSpaceOnUse">
<stop offset="0.17" stop-color="#00272E"/>
<stop offset="1" stop-color="#69B9EB" stop-opacity="0"/>
</linearGradient>
<linearGradient id="paint4_linear_1419_8263" x1="196.835" y1="308.092" x2="199.725" y2="390.894" gradientUnits="userSpaceOnUse">
<stop offset="0.17" stop-color="#00272E"/>
<stop offset="1" stop-color="#69B9EB" stop-opacity="0"/>
</linearGradient>
<linearGradient id="paint5_linear_1419_8263" x1="200.431" y1="262.575" x2="196.795" y2="307.831" gradientUnits="userSpaceOnUse">
<stop stop-color="white" stop-opacity="0"/>
<stop offset="0.99" stop-color="white"/>
</linearGradient>
<linearGradient id="paint6_linear_1419_8263" x1="253.114" y1="318.153" x2="367.626" y2="319.409" gradientUnits="userSpaceOnUse">
<stop offset="0.18" stop-color="#00272E"/>
<stop offset="1" stop-color="#69B9EB" stop-opacity="0"/>
</linearGradient>
<linearGradient id="paint7_linear_1419_8263" x1="449.641" y1="325.14" x2="279.722" y2="311.194" gradientUnits="userSpaceOnUse">
<stop stop-color="#68E1FD"/>
<stop offset="1" stop-color="white"/>
</linearGradient>
<linearGradient id="paint8_linear_1419_8263" x1="379.602" y1="230.928" x2="284.835" y2="223.154" gradientUnits="userSpaceOnUse">
<stop stop-color="#68E1FD"/>
<stop offset="1" stop-color="white"/>
</linearGradient>
<linearGradient id="paint9_linear_1419_8263" x1="289.608" y1="226.994" x2="37.7207" y2="226.994" gradientUnits="userSpaceOnUse">
<stop stop-color="white" stop-opacity="0"/>
<stop offset="0.99" stop-color="white"/>
</linearGradient>
<linearGradient id="paint10_linear_1419_8263" x1="371.703" y1="264.066" x2="373.474" y2="264.066" gradientUnits="userSpaceOnUse">
<stop stop-color="#68E1FD"/>
<stop offset="1" stop-color="#69B9EB"/>
</linearGradient>
<linearGradient id="paint11_linear_1419_8263" x1="374.303" y1="198.515" x2="375.253" y2="198.515" gradientUnits="userSpaceOnUse">
<stop stop-color="#68E1FD"/>
<stop offset="1" stop-color="#69B9EB"/>
</linearGradient>
<linearGradient id="paint12_linear_1419_8263" x1="377.24" y1="203.682" x2="377.553" y2="203.682" gradientUnits="userSpaceOnUse">
<stop stop-color="#68E1FD"/>
<stop offset="1" stop-color="#69B9EB"/>
</linearGradient>
<linearGradient id="paint13_linear_1419_8263" x1="112.17" y1="385.871" x2="135.7" y2="242.957" gradientUnits="userSpaceOnUse">
<stop stop-color="white" stop-opacity="0"/>
<stop offset="0.99" stop-color="white"/>
</linearGradient>
<linearGradient id="paint14_linear_1419_8263" x1="137.986" y1="274.188" x2="127.413" y2="404.567" gradientUnits="userSpaceOnUse">
<stop offset="0.02" stop-color="#68E1FD"/>
<stop offset="1" stop-color="white"/>
</linearGradient>
<linearGradient id="paint15_linear_1419_8263" x1="204.815" y1="229.809" x2="189.155" y2="228.519" gradientUnits="userSpaceOnUse">
<stop stop-color="#ECC4D7"/>
<stop offset="0.42" stop-color="#EFD4D1"/>
<stop offset="1" stop-color="#F2EAC9"/>
</linearGradient>
<linearGradient id="paint16_linear_1419_8263" x1="256.623" y1="240.475" x2="242.266" y2="246.292" gradientUnits="userSpaceOnUse">
<stop stop-color="#ECC4D7"/>
<stop offset="0.42" stop-color="#EFD4D1"/>
<stop offset="1" stop-color="#F2EAC9"/>
</linearGradient>
<linearGradient id="paint17_linear_1419_8263" x1="267.491" y1="87.696" x2="280.37" y2="91.131" gradientUnits="userSpaceOnUse">
<stop stop-color="#ECC4D7"/>
<stop offset="0.42" stop-color="#EFD4D1"/>
<stop offset="1" stop-color="#F2EAC9"/>
</linearGradient>
<linearGradient id="paint18_linear_1419_8263" x1="278.445" y1="80.5962" x2="245.495" y2="112.26" gradientUnits="userSpaceOnUse">
<stop stop-color="#ECC4D7"/>
<stop offset="0.42" stop-color="#EFD4D1"/>
<stop offset="1" stop-color="#F2EAC9"/>
</linearGradient>
<linearGradient id="paint19_linear_1419_8263" x1="260.694" y1="66.639" x2="287.967" y2="73.9129" gradientUnits="userSpaceOnUse">
<stop stop-color="#ECC4D7"/>
<stop offset="0.42" stop-color="#EFD4D1"/>
<stop offset="1" stop-color="#F2EAC9"/>
</linearGradient>
<linearGradient id="paint20_linear_1419_8263" x1="248.357" y1="148.33" x2="272.681" y2="148.33" gradientUnits="userSpaceOnUse">
<stop stop-color="#ECC4D7"/>
<stop offset="0.42" stop-color="#EFD4D1"/>
<stop offset="1" stop-color="#F2EAC9"/>
</linearGradient>
<linearGradient id="paint21_linear_1419_8263" x1="223.406" y1="121.493" x2="228.908" y2="121.493" gradientUnits="userSpaceOnUse">
<stop stop-color="#183866"/>
<stop offset="1" stop-color="#1A7FC1"/>
</linearGradient>
<linearGradient id="paint22_linear_1419_8263" x1="212.61" y1="112.518" x2="228.792" y2="112.518" gradientUnits="userSpaceOnUse">
<stop stop-color="#ECC4D7"/>
<stop offset="0.42" stop-color="#EFD4D1"/>
<stop offset="1" stop-color="#F2EAC9"/>
</linearGradient>
<linearGradient id="paint23_linear_1419_8263" x1="221.917" y1="96.8849" x2="254.906" y2="176.287" gradientUnits="userSpaceOnUse">
<stop stop-color="white" stop-opacity="0"/>
<stop offset="0.99" stop-color="white"/>
</linearGradient>
<linearGradient id="paint24_linear_1419_8263" x1="212.61" y1="112.51" x2="223.439" y2="112.51" gradientUnits="userSpaceOnUse">
<stop stop-color="#ECC4D7"/>
<stop offset="0.42" stop-color="#EFD4D1"/>
<stop offset="1" stop-color="#F2EAC9"/>
</linearGradient>
</defs>
</svg>
