<svg xmlns="http://www.w3.org/2000/svg" xmlns:xlink="http://www.w3.org/1999/xlink" viewBox="0 0 1080 1080" width="502" height="502" preserveAspectRatio="xMidYMid meet" style="width: 100%; height: 100%; transform: translate3d(0px, 0px, 0px); content-visibility: visible;"><defs><clipPath id="__lottie_element_60"><rect width="1080" height="1080" x="0" y="0"/></clipPath></defs><g clip-path="url(#__lottie_element_60)"><g transform="matrix(1,0,0,1,0,0)" opacity="1" style="display: block;"><g opacity="1" transform="matrix(1,0,0,1,498.7309875488281,433.89599609375)"><path fill="rgb(255,255,255)" fill-opacity="1" d=" M-210.3249969482422,-263.89599609375 C-210.3249969482422,-263.89599609375 210.32400512695312,-263.89599609375 210.32400512695312,-263.89599609375 C219.30499267578125,-263.89599609375 226.5850067138672,-256.614990234375 226.5850067138672,-247.63499450683594 C226.5850067138672,-247.63499450683594 226.5850067138672,247.63499450683594 226.5850067138672,247.63499450683594 C226.5850067138672,256.614990234375 219.30499267578125,263.89599609375 210.32400512695312,263.89599609375 C210.32400512695312,263.89599609375 -210.3249969482422,263.89599609375 -210.3249969482422,263.89599609375 C-219.30499267578125,263.89599609375 -226.5850067138672,256.614990234375 -226.5850067138672,247.63499450683594 C-226.5850067138672,247.63499450683594 -226.5850067138672,-247.63499450683594 -226.5850067138672,-247.63499450683594 C-226.5850067138672,-256.614990234375 -219.30499267578125,-263.89599609375 -210.3249969482422,-263.89599609375z"/></g><g opacity="1" transform="matrix(1,0,0,1,498.7309875488281,433.89599609375)"><path stroke-linecap="round" stroke-linejoin="round" fill-opacity="0" stroke="rgb(60,37,254)" stroke-opacity="1" stroke-width="3" d=" M-210.3249969482422,-262.89599609375 C-218.73899841308594,-262.89599609375 -225.5850067138672,-256.04901123046875 -225.5850067138672,-247.63499450683594 C-225.5850067138672,-247.63499450683594 -225.5850067138672,247.63499450683594 -225.5850067138672,247.63499450683594 C-225.5850067138672,256.04901123046875 -218.73899841308594,262.89599609375 -210.3249969482422,262.89599609375 C-210.3249969482422,262.89599609375 210.32400512695312,262.89599609375 210.32400512695312,262.89599609375 C218.73800659179688,262.89599609375 225.5850067138672,256.04901123046875 225.5850067138672,247.63499450683594 C225.5850067138672,247.63499450683594 225.5850067138672,-247.63499450683594 225.5850067138672,-247.63499450683594 C225.5850067138672,-256.04901123046875 218.73800659179688,-262.89599609375 210.32400512695312,-262.89599609375 C210.32400512695312,-262.89599609375 -210.3249969482422,-262.89599609375 -210.3249969482422,-262.89599609375z"/></g><g opacity="1" transform="matrix(1,0,0,1,546.3579711914062,240.10499572753906)"><path fill="rgb(112,128,253)" fill-opacity="1" d=" M0.0010000000474974513,-9.746999740600586 C5.383999824523926,-9.746999740600586 9.746999740600586,-5.382999897003174 9.746999740600586,0 C9.746999740600586,5.382999897003174 5.383999824523926,9.746999740600586 0.0010000000474974513,9.746999740600586 C-5.381999969482422,9.746999740600586 -9.746999740600586,5.382999897003174 -9.746999740600586,0 C-9.746999740600586,-5.382999897003174 -5.381999969482422,-9.746999740600586 0.0010000000474974513,-9.746999740600586z"/><path fill="rgb(112,128,253)" fill-opacity="1" d=" M0.0010000000474974513,-9.746999740600586 C5.383999824523926,-9.746999740600586 9.746999740600586,-5.382999897003174 9.746999740600586,0 C9.746999740600586,5.382999897003174 5.383999824523926,9.746999740600586 0.0010000000474974513,9.746999740600586 C-5.381999969482422,9.746999740600586 -9.746999740600586,5.382999897003174 -9.746999740600586,0 C-9.746999740600586,-5.382999897003174 -5.381999969482422,-9.746999740600586 0.0010000000474974513,-9.746999740600586z"/></g><g opacity="1" transform="matrix(1,0,0,1,546.3579711914062,289.78900146484375)"><path fill="rgb(41,40,45)" fill-opacity="1" d=" M0.0010000000474974513,-9.746999740600586 C5.383999824523926,-9.746999740600586 9.746999740600586,-5.382999897003174 9.746999740600586,0 C9.746999740600586,5.382999897003174 5.383999824523926,9.746999740600586 0.0010000000474974513,9.746999740600586 C-5.381999969482422,9.746999740600586 -9.746999740600586,5.382999897003174 -9.746999740600586,0 C-9.746999740600586,-5.382999897003174 -5.381999969482422,-9.746999740600586 0.0010000000474974513,-9.746999740600586z"/></g><g opacity="1" transform="matrix(1,0,0,1,546.3579711914062,339.4729919433594)"><path fill="rgb(153,163,255)" fill-opacity="1" d=" M0,-9.746999740600586 C5.382999897003174,-9.746999740600586 9.746999740600586,-5.382999897003174 9.746999740600586,0 C9.746999740600586,5.382999897003174 5.382999897003174,9.746999740600586 0,9.746999740600586 C-5.382999897003174,9.746999740600586 -9.748000144958496,5.382999897003174 -9.748000144958496,0 C-9.748000144958496,-5.382999897003174 -5.382999897003174,-9.746999740600586 0,-9.746999740600586z"/></g><g opacity="1" transform="matrix(1,0,0,1,546.3579711914062,389.1570129394531)"><path fill="rgb(214,218,255)" fill-opacity="1" d=" M0,-9.746999740600586 C5.382999897003174,-9.746999740600586 9.746999740600586,-5.382999897003174 9.746999740600586,0 C9.746999740600586,5.382999897003174 5.382999897003174,9.746999740600586 0,9.746999740600586 C-5.382999897003174,9.746999740600586 -9.748000144958496,5.382999897003174 -9.748000144958496,0 C-9.748000144958496,-5.382999897003174 -5.382999897003174,-9.746999740600586 0,-9.746999740600586z"/></g><g opacity="1" transform="matrix(1,0,0,1,625.4970092773438,240.10499572753906)"><path fill="rgb(112,128,253)" fill-opacity="1" d=" M56.45199966430664,0.7070000171661377 C56.45199966430664,0.7070000171661377 -56.45100021362305,0.7070000171661377 -56.45100021362305,0.7070000171661377 C-56.84199905395508,0.7070000171661377 -57.159000396728516,0.38999998569488525 -57.159000396728516,0 C-57.159000396728516,-0.38999998569488525 -56.84199905395508,-0.7070000171661377 -56.45100021362305,-0.7070000171661377 C-56.45100021362305,-0.7070000171661377 56.45199966430664,-0.7070000171661377 56.45199966430664,-0.7070000171661377 C56.84299850463867,-0.7070000171661377 57.159000396728516,-0.38999998569488525 57.159000396728516,0 C57.159000396728516,0.38999998569488525 56.84299850463867,0.7070000171661377 56.45199966430664,0.7070000171661377z"/></g><g opacity="1" transform="matrix(1,0,0,1,625.4970092773438,289.78900146484375)"><path fill="rgb(41,40,45)" fill-opacity="1" d=" M56.45199966430664,0.7070000171661377 C56.45199966430664,0.7070000171661377 -56.45100021362305,0.7070000171661377 -56.45100021362305,0.7070000171661377 C-56.84199905395508,0.7070000171661377 -57.159000396728516,0.38999998569488525 -57.159000396728516,0 C-57.159000396728516,-0.38999998569488525 -56.84199905395508,-0.7070000171661377 -56.45100021362305,-0.7070000171661377 C-56.45100021362305,-0.7070000171661377 56.45199966430664,-0.7070000171661377 56.45199966430664,-0.7070000171661377 C56.84299850463867,-0.7070000171661377 57.159000396728516,-0.38999998569488525 57.159000396728516,0 C57.159000396728516,0.38999998569488525 56.84299850463867,0.7070000171661377 56.45199966430664,0.7070000171661377z"/></g><g opacity="1" transform="matrix(1,0,0,1,625.4970092773438,339.4729919433594)"><path fill="rgb(153,163,255)" fill-opacity="1" d=" M56.45199966430664,0.7070000171661377 C56.45199966430664,0.7070000171661377 -56.45100021362305,0.7070000171661377 -56.45100021362305,0.7070000171661377 C-56.84199905395508,0.7070000171661377 -57.15800094604492,0.38999998569488525 -57.15800094604492,0 C-57.15800094604492,-0.38999998569488525 -56.84199905395508,-0.7070000171661377 -56.45100021362305,-0.7070000171661377 C-56.45100021362305,-0.7070000171661377 56.45199966430664,-0.7070000171661377 56.45199966430664,-0.7070000171661377 C56.84299850463867,-0.7070000171661377 57.159000396728516,-0.38999998569488525 57.159000396728516,0 C57.159000396728516,0.38999998569488525 56.84299850463867,0.7070000171661377 56.45199966430664,0.7070000171661377z"/></g><g opacity="1" transform="matrix(1,0,0,1,625.4970092773438,389.1570129394531)"><path fill="rgb(214,218,255)" fill-opacity="1" d=" M56.45199966430664,0.7070000171661377 C56.45199966430664,0.7070000171661377 -56.45100021362305,0.7070000171661377 -56.45100021362305,0.7070000171661377 C-56.84199905395508,0.7070000171661377 -57.15800094604492,0.38999998569488525 -57.15800094604492,0 C-57.15800094604492,-0.38999998569488525 -56.84199905395508,-0.7070000171661377 -56.45100021362305,-0.7070000171661377 C-56.45100021362305,-0.7070000171661377 56.45199966430664,-0.7070000171661377 56.45199966430664,-0.7070000171661377 C56.84299850463867,-0.7070000171661377 57.159000396728516,-0.38999998569488525 57.159000396728516,0 C57.159000396728516,0.38999998569488525 56.84299850463867,0.7070000171661377 56.45199966430664,0.7070000171661377z"/></g><g opacity="1" transform="matrix(1,0,0,1,498.7309875488281,554.7730102539062)"><path fill="rgb(234,236,255)" fill-opacity="1" d=" M183.7030029296875,105.11799621582031 C183.7030029296875,105.11799621582031 -183.7030029296875,105.11799621582031 -183.7030029296875,105.11799621582031 C-190.3470001220703,105.11799621582031 -195.75100708007812,99.71399688720703 -195.75100708007812,93.06900024414062 C-195.75100708007812,93.06900024414062 -195.75100708007812,-93.06900024414062 -195.75100708007812,-93.06900024414062 C-195.75100708007812,-99.71299743652344 -190.3459930419922,-105.11799621582031 -183.7030029296875,-105.11799621582031 C-183.7030029296875,-105.11799621582031 183.7030029296875,-105.11799621582031 183.7030029296875,-105.11799621582031 C190.3470001220703,-105.11799621582031 195.7519989013672,-99.71299743652344 195.7519989013672,-93.06900024414062 C195.7519989013672,-93.06900024414062 195.7519989013672,93.06900024414062 195.7519989013672,93.06900024414062 C195.7519989013672,99.71399688720703 190.3470001220703,105.11799621582031 183.7030029296875,105.11799621582031z"/></g></g><g transform="matrix(0.9998701810836792,0.016113238409161568,-0.016113238409161568,0.9998701810836792,15.28839111328125,-12.93634033203125)" opacity="1" style="display: block;"><g opacity="1" transform="matrix(1,0,0,1,822.1259765625,288.2359924316406)"><path fill="rgb(255,138,125)" fill-opacity="1" d=" M-36.55400085449219,7.243000030517578 C-36.38399887084961,7.2210001945495605 -34.49800109863281,38.50699996948242 1.8459999561309814,35.779998779296875 C27.009000778198242,33.89500045776367 35.97999954223633,7.198999881744385 36.555999755859375,7.198999881744385 C33.84299850463867,6.622000217437744 30.490999221801758,5.747000217437744 29.159000396728516,5.447000026702881 C24.73200035095215,4.448999881744385 19.20599937438965,0.796999990940094 17.92799949645996,-6.8979997634887695 C17.19300079345703,-11.333000183105469 18.441999435424805,-34.02000045776367 18.055999755859375,-38.50699996948242 C18.055999755859375,-38.50699996948242 -20.566999435424805,-29.88599967956543 -20.566999435424805,-29.88599967956543 C-20.027000427246094,-20.40999984741211 -16.25,1.559000015258789 -29.489999771118164,5.447000026702881 C-31.69300079345703,6.090000152587891 -34.064998626708984,6.681000232696533 -36.55500030517578,7.243000030517578 C-36.55500030517578,7.243000030517578 -36.55400085449219,7.243000030517578 -36.55400085449219,7.243000030517578z"/></g><g opacity="1" transform="matrix(1,0,0,1,814.0260009765625,270.0589904785156)"><path fill="rgb(12,12,12)" fill-opacity="1" d=" M-13.008000373840332,14.645000457763672 C-12.460000038146973,12.89900016784668 -12.135000228881836,11.380000114440918 -11.845999717712402,8.649999618530273 C-11.32800006866455,3.7679998874664307 -11.604000091552734,-0.7200000286102295 -12.097999572753906,-5.293000221252441 C-4.295000076293945,-6.331999778747559 3.196000099182129,-9.61299991607666 9.25,-14.645000457763672 C9.967000007629395,-11.996000289916992 13.90999984741211,-0.4230000078678131 12.817999839782715,2.0940001010894775 C10.755000114440918,6.8520002365112305 1.0549999475479126,14.644000053405762 -13.006999969482422,14.644000053405762 C-13.006999969482422,14.644000053405762 -13.008000373840332,14.645000457763672 -13.008000373840332,14.645000457763672z"/></g><g opacity="1" transform="matrix(0.9967560172080994,-0.08048254251480103,0.08048254251480103,0.9967560172080994,-19.50244140625,66.51606750488281)"><g opacity="1" transform="matrix(1,0,0,1,806.7340087890625,188.61700439453125)"><path fill="rgb(12,12,12)" fill-opacity="1" d=" M-7.632999897003174,-2.7190001010894775 C-5.422999858856201,-8.923999786376953 -0.2150000035762787,-12.737000465393066 4.000999927520752,-11.236000061035156 C8.217000007629395,-9.734000205993652 9.843000411987305,-3.48799991607666 7.632999897003174,2.7179999351501465 C5.422999858856201,8.92300033569336 0.21400000154972076,12.73799991607666 -4.001999855041504,11.236000061035156 C-8.218000411987305,9.734999656677246 -9.843000411987305,3.486999988555908 -7.632999897003174,-2.7190001010894775z"/></g><g opacity="1" transform="matrix(1,0,0,1,789.530029296875,196.81700134277344)"><path fill="rgb(12,12,12)" fill-opacity="1" d=" M-5.136000156402588,22.027999877929688 C-5.136000156402588,22.027999877929688 -14.927000045776367,12.289999961853027 -15.032999992370605,-7.052000045776367 C-15.116000175476074,-22.027999877929688 -2.86899995803833,-10.656000137329102 -2.86899995803833,-10.656000137329102 C-2.86899995803833,-10.656000137329102 -2.8239998817443848,-21.440000534057617 4.745999813079834,-19.33300018310547 C12.3149995803833,-17.225000381469727 15.116000175476074,-5.50600004196167 15.116000175476074,-5.50600004196167"/></g><g opacity="1" transform="matrix(1,0,0,1,852.8579711914062,213.8560028076172)"><path fill="rgb(12,12,12)" fill-opacity="1" d=" M-18.863000869750977,-29.66900062561035 C-18.863000869750977,-29.66900062561035 18.86400032043457,-20.319000244140625 -2.0840001106262207,29.66900062561035 C-2.0840001106262207,29.66900062561035 -5.505000114440918,29.43199920654297 -5.505000114440918,29.43199920654297 C-5.505000114440918,29.43199920654297 -12.444999694824219,28.951000213623047 -12.444999694824219,28.951000213623047"/></g><g opacity="1" transform="matrix(1,0,0,1,816.0989990234375,231.09100341796875)"><path fill="rgb(255,138,125)" fill-opacity="1" d=" M-9.305000305175781,44.487998962402344 C5.9770002365112305,45.20199966430664 25.351999282836914,38.13800048828125 28.420000076293945,17.68199920654297 C28.420000076293945,17.68199920654297 31.187999725341797,-0.7760000228881836 31.187999725341797,-0.7760000228881836 C34.25699996948242,-21.232999801635742 25.99799919128418,-39.426998138427734 6.736999988555908,-42.314998626708984 C-12.52400016784668,-45.202999114990234 -29.406999588012695,-30.77899932861328 -32.474998474121094,-10.321999549865723 C-32.474998474121094,-10.321999549865723 -33.70000076293945,-2.1500000953674316 -33.70000076293945,-2.1500000953674316 C-33.95100021362305,-0.46799999475479126 -34.22800064086914,2.5769999027252197 -34.237998962402344,6.335999965667725 C-34.25699996948242,13.835000038146973 -34.25699996948242,25.242000579833984 -30.29599952697754,33.500999450683594 C-26.555999755859375,41.29800033569336 -19.06800079345703,44.03300094604492 -9.305000305175781,44.4900016784668 C-9.305000305175781,44.4900016784668 -9.305000305175781,44.487998962402344 -9.305000305175781,44.487998962402344z"/></g><g opacity="1" transform="matrix(1,0,0,1,0,2.7697906494140625)"><g opacity="1" transform="matrix(1,0,0,1,790.60400390625,234.95199584960938)"><path fill="rgb(10,10,10)" fill-opacity="1" d=" M0.0010000000474974513,-2.124000072479248 C1.1740000247955322,-2.124000072479248 2.124000072479248,-1.1729999780654907 2.124000072479248,0 C2.124000072479248,1.1729999780654907 1.1740000247955322,2.124000072479248 0.0010000000474974513,2.124000072479248 C-1.1729999780654907,2.124000072479248 -2.124000072479248,1.1729999780654907 -2.124000072479248,0 C-2.124000072479248,-1.1729999780654907 -1.1729999780654907,-2.124000072479248 0.0010000000474974513,-2.124000072479248z"/></g><g opacity="1" transform="matrix(1,0,0,1,801.0460205078125,242.29600524902344)"><path fill="rgb(10,10,10)" fill-opacity="1" d=" M2.760999917984009,6.173999786376953 C3.191999912261963,6.173999786376953 3.559999942779541,5.848999977111816 3.6059999465942383,5.413000106811523 C3.6549999713897705,4.946000099182129 3.315999984741211,4.5279998779296875 2.8480000495910645,4.480000019073486 C2.8480000495910645,4.480000019073486 -1.6510000228881836,4.010000228881836 -1.6510000228881836,4.010000228881836 C-1.6510000228881836,4.010000228881836 1.1180000305175781,-4.97599983215332 1.1180000305175781,-4.97599983215332 C1.25600004196167,-5.423999786376953 1.003999948501587,-5.900000095367432 0.5559999942779541,-6.038000106811523 C0.10899999737739563,-6.176000118255615 -0.367000013589859,-5.925000190734863 -0.5059999823570251,-5.47599983215332 C-0.5059999823570251,-5.47599983215332 -3.5789999961853027,4.498000144958496 -3.5789999961853027,4.498000144958496 C-3.6540000438690186,4.741000175476074 -3.615999937057495,5.004000186920166 -3.4739999771118164,5.216000080108643 C-3.3340001106262207,5.427999973297119 -3.1070001125335693,5.565999984741211 -2.8540000915527344,5.5929999351501465 C-2.8540000915527344,5.5929999351501465 2.6730000972747803,6.171000003814697 2.6730000972747803,6.171000003814697 C2.703000068664551,6.173999786376953 2.7339999675750732,6.176000118255615 2.76200008392334,6.176000118255615 C2.76200008392334,6.176000118255615 2.760999917984009,6.173999786376953 2.760999917984009,6.173999786376953z"/></g><g opacity="1" transform="matrix(1,0,0,1,808.27197265625,254.98899841308594)"><path fill="rgb(10,10,10)" fill-opacity="1" d=" M-3.4660000801086426,3.1010000705718994 C4.234000205993652,3.1010000705718994 6.52400016784668,-1.5520000457763672 6.627999782562256,-1.7699999809265137 C6.827000141143799,-2.194000005722046 6.644999980926514,-2.700000047683716 6.2210001945495605,-2.9010000228881836 C5.801000118255615,-3.1010000705718994 5.296000003814697,-2.9210000038146973 5.093999862670898,-2.5 C4.997000217437744,-2.302000045776367 2.6459999084472656,2.2679998874664307 -5.827000141143799,1.2549999952316284 C-6.302999973297119,1.1959999799728394 -6.7170000076293945,1.531999945640564 -6.7729997634887695,1.9980000257492065 C-6.828000068664551,2.4639999866485596 -6.494999885559082,2.885999917984009 -6.03000020980835,2.941999912261963 C-5.116000175476074,3.0510001182556152 -4.263000011444092,3.1010000705718994 -3.4679999351501465,3.1010000705718994 C-3.4679999351501465,3.1010000705718994 -3.4660000801086426,3.1010000705718994 -3.4660000801086426,3.1010000705718994z"/></g><g opacity="1" transform="matrix(1,0,0,1,817.1309814453125,225.23899841308594)"><path fill="rgb(10,10,10)" fill-opacity="1" d=" M-5.8979997634887695,-0.9829999804496765 C-6.1020002365112305,-0.3499999940395355 -3.799999952316284,0.597000002861023 -0.5630000233650208,1.4639999866485596 C2.6730000972747803,2.3310000896453857 5.604000091552734,2.9570000171661377 5.823999881744385,2.1589999198913574 C6.1020002365112305,1.1510000228881836 3.690000057220459,-1.2230000495910645 0.453000009059906,-2.0899999141693115 C-2.7850000858306885,-2.9570000171661377 -5.578000068664551,-1.9780000448226929 -5.8979997634887695,-0.9829999804496765z"/></g><g opacity="1" transform="matrix(1,0,0,1,811.9010009765625,236.30599975585938)"><path fill="rgb(10,10,10)" fill-opacity="1" d=" M0,-2.124000072479248 C1.1729999780654907,-2.124000072479248 2.124000072479248,-1.1729999780654907 2.124000072479248,0 C2.124000072479248,1.1729999780654907 1.1729999780654907,2.124000072479248 0,2.124000072479248 C-1.1740000247955322,2.124000072479248 -2.124000072479248,1.1729999780654907 -2.124000072479248,0 C-2.124000072479248,-1.1729999780654907 -1.1740000247955322,-2.124000072479248 0,-2.124000072479248z"/></g><g opacity="1" transform="matrix(1,0,0,1,791.4390258789062,222.94000244140625)"><path fill="rgb(10,10,10)" fill-opacity="1" d=" M-6,1.7610000371932983 C-5.931000232696533,2.421999931335449 -3.441999912261963,2.3529999256134033 -0.13199999928474426,1.8320000171661377 C3.178999900817871,1.3109999895095825 6.110000133514404,0.6940000057220459 5.986999988555908,-0.12399999797344208 C5.833000183105469,-1.1579999923706055 3.009999990463257,-2.421999931335449 -0.3009999990463257,-1.9010000228881836 C-3.609999895095825,-1.3799999952316284 -6.110000133514404,0.7210000157356262 -6,1.7610000371932983z"/></g></g><g opacity="1" transform="matrix(1,0,0,1,846.5180053710938,244.66700744628906)"><path fill="rgb(255,138,125)" fill-opacity="1" d=" M-4.130000114440918,10.159000396728516 C1.7239999771118164,11.036999702453613 7.406000137329102,5.486999988555908 8.284000396728516,-0.3659999966621399 C9.161999702453613,-6.218999862670898 4.901000022888184,-10.15999984741211 -0.9520000219345093,-11.038000106811523 C-0.9520000219345093,-11.038000106811523 -4.557000160217285,-7.567999839782715 -4.557000160217285,-7.567999839782715 C-4.557000160217285,-7.567999839782715 -9.163000106811523,9.404999732971191 -9.163000106811523,9.404999732971191 C-9.163000106811523,9.404999732971191 -4.131999969482422,10.159000396728516 -4.131999969482422,10.159000396728516 C-4.131999969482422,10.159000396728516 -4.130000114440918,10.159000396728516 -4.130000114440918,10.159000396728516z"/></g><g opacity="1" transform="matrix(1,0,0,1,824.219970703125,212.45599365234375)"><path fill="rgb(12,12,12)" fill-opacity="1" d=" M15.4350004196167,32.233001708984375 C14.444999694824219,32.1870002746582 13.677000045776367,31.354000091552734 13.718000411987305,30.36400032043457 C13.986000061035156,23.966999053955078 14.336000442504883,2.431999921798706 7.070000171661377,-0.11400000005960464 C1.3760000467300415,-2.1089999675750732 -13.961000442504883,4.252999782562256 -26.770999908447266,-0.057999998331069946 C-32.375999450683594,-1.944000005722046 -38.034000396728516,-1.2680000066757202 -38.96099853515625,1.3739999532699585 C-39.33000183105469,2.4200000762939453 -40.79499816894531,-13.536999702453613 -30.176000595092773,-24.041000366210938 C-21.72100067138672,-32.40399932861328 2.119999885559082,-31.826000213623047 12.380999565124512,-27.298999786376953 C40.79600143432617,-14.76200008392334 22.3799991607666,22.614999771118164 22.3799991607666,22.614999771118164 C22.3799991607666,22.614999771118164 20.073999404907227,31.040000915527344 20.073999404907227,31.040000915527344 C19.85099983215332,31.85300064086914 19.093000411987305,32.40399932861328 18.250999450683594,32.36399841308594 C18.250999450683594,32.36399841308594 15.4350004196167,32.231998443603516 15.4350004196167,32.231998443603516 C15.4350004196167,32.231998443603516 15.4350004196167,32.233001708984375 15.4350004196167,32.233001708984375z"/></g></g><g opacity="1" transform="matrix(1,0,0,1,849.927001953125,920.5430297851562)"><path fill="rgb(112,128,253)" fill-opacity="1" d=" M4.0960001945495605,-21.735000610351562 C4.0960001945495605,-21.735000610351562 -0.41999998688697815,1.6690000295639038 -22.33300018310547,2.9730000495910645 C-44.24599838256836,4.2779998779296875 -39.365665435791016,22.42559814453125 -39.365665435791016,22.42559814453125 C-39.365665435791016,22.42559814453125 44.351173400878906,21.156116485595703 44.351173400878906,21.156116485595703 C44.351173400878906,21.156116485595703 44.244998931884766,-20.101999282836914 44.244998931884766,-20.101999282836914 C44.244998931884766,-20.101999282836914 4.0960001945495605,-21.735000610351562 4.0960001945495605,-21.735000610351562z"/></g><g opacity="1" transform="matrix(1,0,0,1,854.6810302734375,689.2930297851562)"><path fill="rgb(38,38,38)" fill-opacity="1" d=" M45.17100143432617,-217.41600036621094 C45.17100143432617,-217.41600036621094 44.90800094604492,-224.45199584960938 44.9640007019043,-208.49200439453125 C45.17100143432617,-148.96299743652344 43.18899917602539,224.4510040283203 43.18899917602539,224.4510040283203 C43.18899917602539,224.4510040283203 -11.838000297546387,223.99000549316406 -11.838000297546387,223.99000549316406 C-11.838000297546387,223.99000549316406 -45.17100143432617,-219.83299255371094 -45.17100143432617,-219.83299255371094 C-45.17100143432617,-219.83299255371094 45.17100143432617,-217.41400146484375 45.17100143432617,-217.41400146484375 C45.17100143432617,-217.41400146484375 45.17100143432617,-217.41600036621094 45.17100143432617,-217.41600036621094z"/></g><g opacity="1" transform="matrix(1,0,0,1,755.9650268554688,920.5430297851562)"><path fill="rgb(112,128,253)" fill-opacity="1" d=" M4.0960001945495605,-21.735000610351562 C4.0960001945495605,-21.735000610351562 -0.41999998688697815,1.6690000295639038 -22.33300018310547,2.9730000495910645 C-44.24599838256836,4.2779998779296875 -39.45891571044922,23.696928024291992 -39.45891571044922,23.696928024291992 C-39.45891571044922,23.696928024291992 44.375179290771484,22.541006088256836 44.375179290771484,22.541006088256836 C44.375179290771484,22.541006088256836 44.244998931884766,-20.101999282836914 44.244998931884766,-20.101999282836914 C44.244998931884766,-20.101999282836914 4.0960001945495605,-21.735000610351562 4.0960001945495605,-21.735000610351562z"/></g><g opacity="1" transform="matrix(1,0,0,1,795.2080078125,689.5269775390625)"><path fill="rgb(38,38,38)" fill-opacity="1" d=" M-45.790000915527344,-213.0260009765625 C-45.790000915527344,-213.0260009765625 -52.66400146484375,-9.569999694824219 -51.95000076293945,0.37400001287460327 C-51.95000076293945,0.37400001287460327 -45.486000061035156,222.677001953125 -45.486000061035156,222.677001953125 C-45.486000061035156,222.677001953125 8.630999565124512,223.677001953125 8.630999565124512,223.677001953125 C8.630999565124512,223.677001953125 17.35700035095215,-7.665999889373779 17.35700035095215,-7.665999889373779 C17.35700035095215,-7.665999889373779 23.07699966430664,-71.48200225830078 38.49599838256836,-130.73899841308594 C46.40800094604492,-161.14500427246094 51.10900115966797,-192.29600524902344 52.66400146484375,-223.677001953125 C52.66400146484375,-223.677001953125 -45.790000915527344,-213.0260009765625 -45.790000915527344,-213.0260009765625z"/></g><g opacity="1" transform="matrix(1,0,0,1,816.2369995117188,608.4219970703125)"><path fill="rgb(10,10,10)" fill-opacity="1" d=" M4.573999881744385,12.329000473022461 C4.573999881744385,12.329000473022461 0.061000000685453415,-56.68000030517578 0.061000000685453415,-56.68000030517578 C0.061000000685453415,-56.68000030517578 -4.572999954223633,-27.989999771118164 -4.572999954223633,-3.26200008392334 C-4.572999954223633,8.824999809265137 -2.0829999446868896,56.68000030517578 -2.0829999446868896,56.68000030517578 C-2.0829999446868896,56.68000030517578 4.573999881744385,12.329000473022461 4.573999881744385,12.329000473022461z"/></g><g opacity="1" transform="matrix(1,0,0,1,822.0750122070312,385.0050048828125)"><path fill="rgb(112,128,253)" fill-opacity="1" d=" M-80.62799835205078,-21.43600082397461 C-79.49299621582031,-8.104000091552734 -73.9749984741211,75.0739974975586 -72.88300323486328,91.49500274658203 C-72.88300323486328,91.49500274658203 77.48999786376953,91.49500274658203 77.48999786376953,91.49500274658203 C78.33899688720703,76.68399810791016 82.15299987792969,11.920000076293945 85.375,-17.04400062561035 C88.44999694824219,-44.68199920654297 94.48200225830078,-58.51900100708008 90.05999755859375,-66.69000244140625 C82.83499908447266,-80.04399871826172 63.0890007019043,-87.76100158691406 49.625,-89.58399963378906 C41.402000427246094,-90.6969985961914 29.03700065612793,-91.49500274658203 29.03700065612793,-91.49500274658203 C29.03700065612793,-91.49500274658203 27.989999771118164,-70.31400299072266 3.0230000019073486,-69.13600158691406 C-30.961999893188477,-67.53299713134766 -28.69099998474121,-91.49500274658203 -28.858999252319336,-91.49500274658203 C-34.3650016784668,-91.49500274658203 -65.81800079345703,-88.01000213623047 -73.51300048828125,-83.4489974975586 C-94.48200225830078,-71.03199768066406 -83.03700256347656,-49.689998626708984 -80.62799835205078,-21.437000274658203 C-80.62799835205078,-21.437000274658203 -80.62799835205078,-21.43600082397461 -80.62799835205078,-21.43600082397461z"/></g><g opacity="1" transform="matrix(1,0,0,1,738.8519897460938,383.7799987792969)"><path fill="rgb(112,128,253)" fill-opacity="1" d=" M-30.415000915527344,81.37200164794922 C-34.645999908447266,81.37200164794922 -38.93600082397461,80.31700134277344 -42.888999938964844,78.09600067138672 C-55.165000915527344,71.19400024414062 -59.520999908447266,55.64699935913086 -52.61800003051758,43.37099838256836 C-52.61800003051758,43.37099838256836 8.161999702453613,-64.73899841308594 8.161999702453613,-64.73899841308594 C15.064000129699707,-77.01499938964844 30.610000610351562,-81.37200164794922 42.88800048828125,-74.47000122070312 C55.16400146484375,-67.56800079345703 59.520999908447266,-52.020999908447266 52.617000579833984,-39.744998931884766 C52.617000579833984,-39.744998931884766 -8.163000106811523,68.36499786376953 -8.163000106811523,68.36499786376953 C-12.843999862670898,76.68900299072266 -21.5,81.37200164794922 -30.415000915527344,81.37200164794922z"/></g><g opacity="1" transform="matrix(0.9988317489624023,0.04832298308610916,-0.04832298308610916,0.9988317489624023,16.9132080078125,-42.709197998046875)"><g opacity="1" transform="matrix(1,0,0,1,808.073974609375,368.072998046875)"><path fill="rgb(255,138,125)" fill-opacity="1" d=" M11.394000053405762,8.390000343322754 C11.394000053405762,8.390000343322754 -4.334000110626221,-10.019000053405762 -4.334000110626221,-10.019000053405762 C-5.751999855041504,-11.678999900817871 -8.284000396728516,-11.82800006866455 -9.887999534606934,-10.305000305175781 C-11.392999649047852,-8.876999855041504 -11.366000175476074,-6.453999996185303 -10.017999649047852,-4.876999855041504 C-10.017999649047852,-4.876999855041504 -6.6570000648498535,-0.9440000057220459 -6.6570000648498535,-0.9440000057220459 C-6.6570000648498535,-0.9440000057220459 10.156000137329102,11.82800006866455 10.156000137329102,11.82800006866455 C10.156000137329102,11.82800006866455 11.394000053405762,8.390000343322754 11.394000053405762,8.390000343322754z"/></g><g opacity="1" transform="matrix(1,0,0,1,763.3319702148438,338.1610107421875)"><path fill="rgb(41,40,45)" fill-opacity="1" d=" M31.46500015258789,43.154998779296875 C31.46500015258789,43.154998779296875 -18.194000244140625,46.249000549316406 -18.194000244140625,46.249000549316406 C-22.322999954223633,46.50600051879883 -25.97800064086914,43.60200119018555 -26.66200065612793,39.52199935913086 C-26.66200065612793,39.52199935913086 -38.928001403808594,-33.76100158691406 -38.928001403808594,-33.76100158691406 C-39.71900177001953,-38.486000061035156 -36.24599838256836,-42.856998443603516 -31.46500015258789,-43.154998779296875 C-31.46500015258789,-43.154998779296875 18.194000244140625,-46.249000549316406 18.194000244140625,-46.249000549316406 C22.322999954223633,-46.50600051879883 25.979000091552734,-43.60200119018555 26.66200065612793,-39.52199935913086 C26.66200065612793,-39.52199935913086 38.928001403808594,33.76100158691406 38.928001403808594,33.76100158691406 C39.71900177001953,38.486000061035156 36.24599838256836,42.856998443603516 31.46500015258789,43.154998779296875z"/></g><g opacity="1" transform="matrix(1,0,0,1,800.4359741210938,381.2200012207031)"><path fill="rgb(255,138,125)" fill-opacity="1" d=" M0.9800000190734863,-14.090999603271484 C0.9800000190734863,-14.090999603271484 -15.322999954223633,-21.63599967956543 -15.322999954223633,-21.63599967956543 C-17.121000289916992,-22.506999969482422 -19.884000778198242,-22.424999237060547 -20.72800064086914,-20.3439998626709 C-21.520999908447266,-18.707000732421875 -21.03700065612793,-16.788999557495117 -19.67799949645996,-15.696000099182129 C-19.68899917602539,-15.678999900817871 -19.704999923706055,-15.663999557495117 -19.71299934387207,-15.644000053405762 C-19.719999313354492,-15.630000114440918 -19.7189998626709,-15.61400032043457 -19.722999572753906,-15.600000381469727 C-19.722999572753906,-15.600000381469727 -22.496000289916992,-16.94300079345703 -22.496000289916992,-16.94300079345703 C-24.624000549316406,-17.972999572753906 -27.233999252319336,-16.85700035095215 -27.878000259399414,-14.449000358581543 C-28.35700035095215,-12.659000396728516 -27.374000549316406,-10.791999816894531 -25.707000732421875,-9.984999656677246 C-25.707000732421875,-9.984999656677246 -24.527000427246094,-9.413999557495117 -24.527000427246094,-9.413999557495117 C-24.527000427246094,-9.371000289916992 -24.52199935913086,-9.32800006866455 -24.506999969482422,-9.288000106811523 C-26.270000457763672,-9.689000129699707 -28.143999099731445,-8.800000190734863 -28.885000228881836,-7.039000034332275 C-29.690000534057617,-5.126999855041504 -28.694000244140625,-2.9179999828338623 -26.826000213623047,-2.0139999389648438 C-26.826000213623047,-2.0139999389648438 -23.926000595092773,-0.6110000014305115 -23.926000595092773,-0.6110000014305115 C-24.034000396728516,-0.5910000205039978 -24.132999420166016,-0.5270000100135803 -24.18600082397461,-0.4180000126361847 C-24.216999053955078,-0.3499999940395355 -24.2189998626709,-0.2800000011920929 -24.207000732421875,-0.21199999749660492 C-25.791000366210938,-0.13300000131130219 -27.27199935913086,0.9139999747276306 -27.735000610351562,2.6449999809265137 C-28.214000701904297,4.434999942779541 -27.231000900268555,6.302000045776367 -25.56399917602539,7.109000205993652 C-25.56399917602539,7.109000205993652 -0.8379999995231628,19.079999923706055 -0.8379999995231628,19.079999923706055 C6.23799991607666,22.506000518798828 14.6850004196167,21.295000076293945 20.514999389648438,16.020000457763672 C20.514999389648438,16.020000457763672 29.690000534057617,7.7179999351501465 29.690000534057617,7.7179999351501465 C29.690000534057617,7.7179999351501465 0.9800000190734863,-14.090999603271484 0.9800000190734863,-14.090999603271484z"/></g><g opacity="1" transform="matrix(1,0,0,1,788.7919921875,369.322998046875)"><path fill="rgb(12,12,12)" fill-opacity="1" d=" M8.0649995803833,3.753999948501587 C7.979000091552734,3.9260001182556152 7.7729997634887695,3.999000072479248 7.5980000495910645,3.9179999828338623 C7.5980000495910645,3.9179999828338623 -7.895999908447266,-3.2769999504089355 -7.895999908447266,-3.2769999504089355 C-8.074000358581543,-3.3589999675750732 -8.151000022888184,-3.569000005722046 -8.069000244140625,-3.746999979019165 C-8.003999710083008,-3.9189999103546143 -7.776000022888184,-4.000999927520752 -7.5980000495910645,-3.9189999103546143 C-7.5980000495910645,-3.9189999103546143 7.896999835968018,3.2760000228881836 7.896999835968018,3.2760000228881836 C8.074000358581543,3.3580000400543213 8.151000022888184,3.568000078201294 8.069000244140625,3.746000051498413 C8.069000244140625,3.746000051498413 8.0649995803833,3.753000020980835 8.0649995803833,3.753000020980835 C8.0649995803833,3.753000020980835 8.0649995803833,3.753999948501587 8.0649995803833,3.753999948501587z"/></g><g opacity="1" transform="matrix(1,0,0,1,784.9089965820312,375.8280029296875)"><path fill="rgb(12,12,12)" fill-opacity="1" d=" M8.963000297546387,4.170000076293945 C8.878000259399414,4.3420000076293945 8.670999526977539,4.414999961853027 8.496999740600586,4.334000110626221 C8.496999740600586,4.334000110626221 -8.795000076293945,-3.694999933242798 -8.795000076293945,-3.694999933242798 C-8.972000122070312,-3.7769999504089355 -9.048999786376953,-3.98799991607666 -8.967000007629395,-4.165999889373779 C-8.890999794006348,-4.327000141143799 -8.673999786376953,-4.420000076293945 -8.496999740600586,-4.3379998207092285 C-8.496999740600586,-4.3379998207092285 8.795000076293945,3.693000078201294 8.795000076293945,3.693000078201294 C8.972000122070312,3.7750000953674316 9.048999786376953,3.9839999675750732 8.967000007629395,4.1620001792907715 C8.967000007629395,4.1620001792907715 8.963000297546387,4.169000148773193 8.963000297546387,4.169000148773193 C8.963000297546387,4.169000148773193 8.963000297546387,4.170000076293945 8.963000297546387,4.170000076293945z"/></g><g opacity="1" transform="matrix(1,0,0,1,783.468994140625,384.15399169921875)"><path fill="rgb(12,12,12)" fill-opacity="1" d=" M7.214000225067139,3.359999895095825 C7.129000186920166,3.5320000648498535 6.921999931335449,3.6050000190734863 6.748000144958496,3.5239999294281006 C6.748000144958496,3.5239999294281006 -7.046000003814697,-2.88100004196167 -7.046000003814697,-2.88100004196167 C-7.2230000495910645,-2.9630000591278076 -7.300000190734863,-3.1730000972747803 -7.2179999351501465,-3.3510000705718994 C-7.13100004196167,-3.5280001163482666 -6.925000190734863,-3.6050000190734863 -6.748000144958496,-3.5230000019073486 C-6.748000144958496,-3.5230000019073486 7.046000003814697,2.881999969482422 7.046000003814697,2.881999969482422 C7.223999977111816,2.9639999866485596 7.300000190734863,3.1740000247955322 7.2179999351501465,3.3519999980926514 C7.2179999351501465,3.3519999980926514 7.214000225067139,3.3589999675750732 7.214000225067139,3.3589999675750732 C7.214000225067139,3.3589999675750732 7.214000225067139,3.359999895095825 7.214000225067139,3.359999895095825z"/></g><g opacity="1" transform="matrix(1,0,0,1,873.6820068359375,383.5220031738281)"><path fill="rgb(112,128,253)" fill-opacity="1" d=" M-73.26699829101562,23.87700080871582 C-73.26699829101562,23.87700080871582 33.9900016784668,76.48899841308594 33.9900016784668,76.48899841308594 C36.108001708984375,77.46399688720703 38.310001373291016,78.14099884033203 40.54199981689453,78.52799987792969 C48.07699966430664,79.83499908447266 55.944000244140625,77.83599853515625 62.000999450683594,72.81099700927734 C69.85299682617188,66.2959976196289 73.26899719238281,55.85499954223633 70.78600311279297,45.959999084472656 C70.78600311279297,45.959999084472656 42.145999908447266,-57.00899887084961 42.145999908447266,-57.00899887084961 C38.58300018310547,-71.20999908447266 24.18199920654297,-79.83499908447266 9.982999801635742,-76.27200317382812 C-4.2179999351501465,-72.70999908447266 -11.842000007629395,-58.31100082397461 -8.279999732971191,-44.111000061035156 C-8.279999732971191,-44.111000061035156 14.1899995803833,11.564000129699707 14.1899995803833,11.564000129699707 C14.1899995803833,11.564000129699707 -54.53799819946289,-17.250999450683594 -54.53799819946289,-17.250999450683594 C-54.53799819946289,-17.250999450683594 -73.26899719238281,23.87700080871582 -73.26899719238281,23.87700080871582 C-73.26899719238281,23.87700080871582 -73.26699829101562,23.87700080871582 -73.26699829101562,23.87700080871582z"/></g><g opacity="1" transform="matrix(1,0,0,1,850.5460205078125,405.0849914550781)"><path fill="rgb(12,12,12)" fill-opacity="1" d=" M50.06999969482422,52.03900146484375 C50.03799819946289,52.034000396728516 50.005001068115234,52.02399826049805 49.974998474121094,52.00899887084961 C49.974998474121094,52.00899887084961 -50.284000396728516,2.634000062942505 -50.284000396728516,2.634000062942505 C-50.457000732421875,2.549999952316284 -50.53300094604492,2.3440001010894775 -50.452999114990234,2.1700000762939453 C-50.452999114990234,2.1700000762939453 -31.72100067138672,-38.95899963378906 -31.72100067138672,-38.95899963378906 C-31.642000198364258,-39.13399887084961 -31.44099998474121,-39.21500015258789 -31.26300048828125,-39.138999938964844 C-31.26300048828125,-39.138999938964844 35.7869987487793,-11.609000205993652 35.7869987487793,-11.609000205993652 C35.7869987487793,-11.609000205993652 22.516000747680664,-51.57600021362305 22.516000747680664,-51.57600021362305 C22.464000701904297,-51.763999938964844 22.572999954223633,-51.95899963378906 22.760000228881836,-52.01300048828125 C22.950000762939453,-52.066001892089844 23.143999099731445,-51.95600128173828 23.197999954223633,-51.76900100708008 C23.197999954223633,-51.76900100708008 36.66699981689453,-11.093999862670898 36.66699981689453,-11.093999862670898 C36.70399856567383,-10.963000297546387 36.66299819946289,-10.822999954223633 36.560001373291016,-10.732999801635742 C36.45899963378906,-10.642999649047852 36.314998626708984,-10.619000434875488 36.189998626708984,-10.67199993133545 C36.189998626708984,-10.67199993133545 -31.22100067138672,-38.354000091552734 -31.22100067138672,-38.354000091552734 C-31.22100067138672,-38.354000091552734 -49.66699981689453,2.1480000019073486 -49.66699981689453,2.1480000019073486 C-49.66699981689453,2.1480000019073486 50.284000396728516,51.37300109863281 50.284000396728516,51.37300109863281 C50.459999084472656,51.45800018310547 50.53300094604492,51.66999816894531 50.448001861572266,51.84600067138672 C50.37799835205078,51.99100112915039 50.220001220703125,52.066001892089844 50.06999969482422,52.040000915527344 C50.06999969482422,52.040000915527344 50.06999969482422,52.03900146484375 50.06999969482422,52.03900146484375z"/></g><g opacity="1" transform="matrix(1,0,0,1,892.916015625,396.7720031738281)"><path fill="rgb(12,12,12)" fill-opacity="1" d=" M5.98199987411499,3.063999891281128 C5.953000068664551,3.059000015258789 5.923999786376953,3.0510001182556152 5.8979997634887695,3.0380001068115234 C5.8979997634887695,3.0380001068115234 -6.185999870300293,-2.36299991607666 -6.185999870300293,-2.36299991607666 C-6.364999771118164,-2.441999912261963 -6.445000171661377,-2.6519999504089355 -6.366000175476074,-2.8299999237060547 C-6.285999774932861,-3.009000062942505 -6.078000068664551,-3.0910000801086426 -5.89900016784668,-3.007999897003174 C-5.89900016784668,-3.007999897003174 6.184999942779541,2.3929998874664307 6.184999942779541,2.3929998874664307 C6.363999843597412,2.4719998836517334 6.443999767303467,2.681999921798706 6.364999771118164,2.859999895095825 C6.296000003814697,3.010999917984009 6.13700008392334,3.0910000801086426 5.98199987411499,3.063999891281128z"/></g></g><g opacity="1" transform="matrix(0.9988317489624023,-0.04832298308610916,0.04832298308610916,0.9988317489624023,-20.58233642578125,34.634521484375)"><g opacity="1" transform="matrix(1,0,0,1,738.4340209960938,335.19000244140625)"><path fill="rgb(255,138,125)" fill-opacity="1" d=" M23.850000381469727,-7.498000144958496 C22.707000732421875,-8.906999588012695 20.905000686645508,-9.251999855041504 19.41699981689453,-8.654000282287598 C19.399999618530273,-8.720000267028809 19.381000518798828,-8.788999557495117 19.325000762939453,-8.836999893188477 C19.224000930786133,-8.920000076293945 19.101999282836914,-8.918999671936035 18.98900032043457,-8.880999565124512 C18.98900032043457,-8.880999565124512 21.073999404907227,-11.401000022888184 21.073999404907227,-11.401000022888184 C22.36199951171875,-12.958000183105469 22.385000228881836,-15.300000190734863 20.945999145507812,-16.718000411987305 C19.538999557495117,-18.10300064086914 17.400999069213867,-18.163000106811523 15.928999900817871,-17.038999557495117 C15.925999641418457,-17.07699966430664 15.892999649047852,-17.104999542236328 15.876999855041504,-17.139999389648438 C15.876999855041504,-17.139999389648438 16.73200035095215,-18.172000885009766 16.73200035095215,-18.172000885009766 C17.905000686645508,-19.59000015258789 18.033000946044922,-21.67799949645996 16.87299919128418,-23.10700035095215 C15.289999961853027,-25.05900001525879 12.432999610900879,-24.996000289916992 10.918000221252441,-23.166000366210938 C10.918000221252441,-23.166000366210938 8.949000358581543,-20.78499984741211 8.949000358581543,-20.78499984741211 C8.937999725341797,-20.797000885009766 8.9399995803833,-20.81599998474121 8.928000450134277,-20.82699966430664 C8.911999702453613,-20.841999053955078 8.88700008392334,-20.836000442504883 8.869999885559082,-20.847000122070312 C9.65999984741211,-22.409000396728516 9.303999900817871,-24.361000061035156 7.89900016784668,-25.52400016784668 C6.267000198364258,-27.06599998474121 3.7200000286102295,-25.992000579833984 2.446000099182129,-24.452999114990234 C2.446000099182129,-24.452999114990234 -9.592000007629395,-10.168000221252441 -9.592000007629395,-10.168000221252441 C-9.592000007629395,-10.168000221252441 -9.244999885559082,-10.814000129699707 -9.244999885559082,-10.814000129699707 C-9.244999885559082,-10.814000129699707 -7.817999839782715,-15.805999755859375 -7.817999839782715,-15.805999755859375 C-7.263000011444092,-17.749000549316406 -8.182000160217285,-19.902999877929688 -10.069000244140625,-20.625 C-12.196999549865723,-21.437999725341797 -14.517999649047852,-20.246000289916992 -15.130999565124512,-18.10300064086914 C-15.130999565124512,-18.10300064086914 -21.784000396728516,5.177000045776367 -21.784000396728516,5.177000045776367 C-21.784000396728516,5.177000045776367 -23.39900016784668,10.829999923706055 -23.39900016784668,10.829999923706055 C-25.010000228881836,16.466999053955078 -21.8439998626709,22.363000869750977 -16.253999710083008,24.134000778198242 C-16.253999710083008,24.134000778198242 -14.496999740600586,24.69099998474121 -14.496999740600586,24.69099998474121 C-7.001999855041504,27.06599998474121 1.184000015258789,24.655000686645508 6.196000099182129,18.597999572753906 C6.196000099182129,18.597999572753906 23.70800018310547,-2.568000078201294 23.70800018310547,-2.568000078201294 C24.881999969482422,-3.9860000610351562 25.010000228881836,-6.072999954223633 23.851999282836914,-7.502999782562256 C23.851999282836914,-7.502999782562256 23.850000381469727,-7.498000144958496 23.850000381469727,-7.498000144958496z"/></g><g opacity="1" transform="matrix(1,0,0,1,741.5809936523438,321.125)"><path fill="rgb(12,12,12)" fill-opacity="1" d=" M-5.775000095367432,6.767000198364258 C-5.625999927520752,6.888000011444092 -5.4079999923706055,6.86899995803833 -5.2829999923706055,6.7230000495910645 C-5.2829999923706055,6.7230000495910645 5.820000171661377,-6.26200008392334 5.820000171661377,-6.26200008392334 C5.947000026702881,-6.409999847412109 5.927999973297119,-6.632999897003174 5.781000137329102,-6.760000228881836 C5.651000022888184,-6.889999866485596 5.408999919891357,-6.86899995803833 5.2829999923706055,-6.7210001945495605 C5.2829999923706055,-6.7210001945495605 -5.820000171661377,6.263999938964844 -5.820000171661377,6.263999938964844 C-5.947000026702881,6.4120001792907715 -5.927999973297119,6.635000228881836 -5.781000137329102,6.76200008392334 C-5.781000137329102,6.76200008392334 -5.775000095367432,6.767000198364258 -5.775000095367432,6.767000198364258z"/></g><g opacity="1" transform="matrix(1,0,0,1,747.8170166015625,325.42999267578125)"><path fill="rgb(12,12,12)" fill-opacity="1" d=" M-6.418000221252441,7.515999794006348 C-6.269999980926514,7.63700008392334 -6.052000045776367,7.618000030517578 -5.927000045776367,7.4720001220703125 C-5.927000045776367,7.4720001220703125 6.464000225067139,-7.019000053405762 6.464000225067139,-7.019000053405762 C6.591000080108643,-7.166999816894531 6.572000026702881,-7.389999866485596 6.425000190734863,-7.517000198364258 C6.289000034332275,-7.631999969482422 6.052999973297119,-7.625999927520752 5.927000045776367,-7.478000164031982 C5.927000045776367,-7.478000164031982 -6.4629998207092285,7.013000011444092 -6.4629998207092285,7.013000011444092 C-6.591000080108643,7.160999774932861 -6.572000026702881,7.383999824523926 -6.425000190734863,7.511000156402588 C-6.425000190734863,7.511000156402588 -6.418000221252441,7.515999794006348 -6.418000221252441,7.515999794006348z"/></g><g opacity="1" transform="matrix(1,0,0,1,752.5880126953125,332.4020080566406)"><path fill="rgb(12,12,12)" fill-opacity="1" d=" M-5.164999961853027,6.052999973297119 C-5.015999794006348,6.173999786376953 -4.797999858856201,6.15500020980835 -4.672999858856201,6.008999824523926 C-4.672999858856201,6.008999824523926 5.210000038146973,-5.550000190734863 5.210000038146973,-5.550000190734863 C5.336999893188477,-5.697999954223633 5.318999767303467,-5.921000003814697 5.171000003814697,-6.047999858856201 C5.019999980926514,-6.172999858856201 4.798999786376953,-6.1570000648498535 4.672999858856201,-6.008999824523926 C4.672999858856201,-6.008999824523926 -5.210000038146973,5.550000190734863 -5.210000038146973,5.550000190734863 C-5.336999893188477,5.697999954223633 -5.318999767303467,5.921000003814697 -5.171000003814697,6.047999858856201 C-5.171000003814697,6.047999858856201 -5.164999961853027,6.052999973297119 -5.164999961853027,6.052999973297119z"/></g><g opacity="1" transform="matrix(1,0,0,1,717.1599731445312,401.30999755859375)"><path fill="rgb(112,128,253)" fill-opacity="1" d=" M37.20500183105469,-48.25199890136719 C37.20500183105469,-48.25199890136719 17.47100067138672,40.492000579833984 17.47100067138672,40.492000579833984 C15.366999626159668,53.51300048828125 4.111000061035156,62.7760009765625 -8.666000366210938,62.7760009765625 C-10.071999549865723,62.7760009765625 -11.494999885559082,62.66400146484375 -12.928000450134277,62.43199920654297 C-27.381000518798828,60.09700012207031 -37.20500183105469,46.486000061035156 -34.86899948120117,32.03300094604492 C-34.86899948120117,32.03300094604492 -7.77400016784668,-62.7760009765625 -7.77400016784668,-62.7760009765625"/></g><g opacity="1" transform="matrix(1,0,0,1,741.72900390625,404.85198974609375)"><path fill="rgb(12,12,12)" fill-opacity="1" d=" M-5.563000202178955,20.966999053955078 C-5.605999946594238,20.966999053955078 -5.650000095367432,20.961999893188477 -5.693999767303467,20.948999404907227 C-5.960999965667725,20.87700080871582 -6.118000030517578,20.601999282836914 -6.046000003814697,20.334999084472656 C-6.046000003814697,20.334999084472656 5.079999923706055,-20.541000366210938 5.079999923706055,-20.541000366210938 C5.1519999504089355,-20.80699920654297 5.426000118255615,-20.966999053955078 5.692999839782715,-20.892000198364258 C5.960000038146973,-20.81999969482422 6.117000102996826,-20.545000076293945 6.045000076293945,-20.277999877929688 C6.045000076293945,-20.277999877929688 -5.080999851226807,20.597999572753906 -5.080999851226807,20.597999572753906 C-5.142000198364258,20.820999145507812 -5.3429999351501465,20.966999053955078 -5.563000202178955,20.966999053955078z"/></g></g></g><g transform="matrix(1,0,0,1,0,0)" opacity="1" style="display: block;"><g opacity="1" transform="matrix(1,0,0,2.5,576.1119995117188,943.2210083007812)"><path fill="rgb(41,40,45)" fill-opacity="1" d=" M348.06500244140625,1 C348.06500244140625,1 -348.06500244140625,1 -348.06500244140625,1 C-348.61700439453125,1 -349.06500244140625,0.5529999732971191 -349.06500244140625,0 C-349.06500244140625,-0.5519999861717224 -348.61700439453125,-1 -348.06500244140625,-1 C-348.06500244140625,-1 348.06500244140625,-1 348.06500244140625,-1 C348.61700439453125,-1 349.06500244140625,-0.5519999861717224 349.06500244140625,0 C349.06500244140625,0.5529999732971191 348.61700439453125,1 348.06500244140625,1z"/></g></g><g transform="matrix(1,0,0,1,0,0)" opacity="1" style="display: block;"><g opacity="1" transform="matrix(1,0,0,1,275.89898681640625,839.447021484375)"><path fill="rgb(41,40,45)" fill-opacity="1" d=" M-11.522000312805176,-97.31199645996094 C-11.522000312805176,-97.31199645996094 -9.795999526977539,-97.5009994506836 -9.795999526977539,-97.5009994506836 C-9.795999526977539,-97.5009994506836 11.522000312805176,97.31300354003906 11.522000312805176,97.31300354003906 C11.522000312805176,97.31300354003906 9.795999526977539,97.5009994506836 9.795999526977539,97.5009994506836 C9.795999526977539,97.5009994506836 -11.522000312805176,-97.31199645996094 -11.522000312805176,-97.31199645996094z"/></g><g opacity="1" transform="matrix(1,0,0,1,316.93798828125,878.958984375)"><path fill="rgb(41,40,45)" fill-opacity="1" d=" M-6.107999801635742,51.79100036621094 C-6.107999801635742,51.79100036621094 4.380000114440918,-51.9640007019043 4.380000114440918,-51.9640007019043 C4.380000114440918,-51.9640007019043 6.107999801635742,-51.78900146484375 6.107999801635742,-51.78900146484375 C6.107999801635742,-51.78900146484375 -4.380000114440918,51.96500015258789 -4.380000114440918,51.96500015258789 C-4.380000114440918,51.96500015258789 -6.107999801635742,51.79100036621094 -6.107999801635742,51.79100036621094z"/></g><g opacity="1" transform="matrix(1,0,0,1,300.4429931640625,930.8350219726562)"><path fill="rgb(41,40,45)" fill-opacity="1" d=" M-38.90999984741211,-12.628000259399414 C-38.90999984741211,-12.628000259399414 38.90999984741211,-12.628000259399414 38.90999984741211,-12.628000259399414 C38.90999984741211,-12.628000259399414 38.90999984741211,12.628000259399414 38.90999984741211,12.628000259399414 C38.90999984741211,12.628000259399414 -38.90999984741211,12.628000259399414 -38.90999984741211,12.628000259399414 C-38.90999984741211,12.628000259399414 -38.90999984741211,-12.628000259399414 -38.90999984741211,-12.628000259399414z"/></g><g opacity="1" transform="matrix(1,0,0,1,343.8789978027344,839.81201171875)"><path fill="rgb(42,54,156)" fill-opacity="1" d=" M-42.388999938964844,-31.893999099731445 C-27.64699935913086,-51.487998962402344 3.2820000648498535,-53.090999603271484 26.69300079345703,-35.47700119018555 C50.104000091552734,-17.863000869750977 57.13100051879883,12.300000190734863 42.38800048828125,31.893999099731445 C27.64699935913086,51.48699951171875 -3.2829999923706055,53.090999603271484 -26.694000244140625,35.47600173950195 C-50.10499954223633,17.86199951171875 -57.13100051879883,-12.300999641418457 -42.388999938964844,-31.893999099731445z"/></g><g opacity="1" transform="matrix(1,0,0,1,343.8789978027344,839.81201171875)"><path fill="rgb(60,74,200)" fill-opacity="1" d=" M-42.388999938964844,-31.893999099731445 C-27.64699935913086,-51.487998962402344 3.2820000648498535,-53.090999603271484 26.69300079345703,-35.47700119018555 C50.104000091552734,-17.863000869750977 57.13199996948242,12.300000190734863 42.388999938964844,31.893999099731445 C27.648000717163086,51.48699951171875 -3.2820000648498535,53.090999603271484 -26.69300079345703,35.47600173950195 C-50.104000091552734,17.86199951171875 -57.13100051879883,-12.300999641418457 -42.388999938964844,-31.893999099731445z"/></g><g opacity="1" transform="matrix(1,0,0,1,347.2099914550781,837.114990234375)"><path fill="rgb(159,166,228)" fill-opacity="1" d=" M39.05400085449219,34.59400177001953 C38.05099868774414,35.930999755859375 36.97100067138672,37.18299865722656 35.82099914550781,38.340999603271484 C19.593000411987305,48.70899963378906 -4.359000205993652,47.07699966430664 -23.36199951171875,32.7760009765625 C-46.770999908447266,15.164999961853027 -53.797000885009766,-14.998000144958496 -39.053001403808594,-34.590999603271484 C-38.04999923706055,-35.926998138427734 -36.970001220703125,-37.16999816894531 -35.827999114990234,-38.33599853515625 C-19.593000411987305,-48.71099853515625 4.353000164031982,-47.071998596191406 23.363000869750977,-32.77899932861328 C46.77199935913086,-15.15999984741211 53.797000885009766,15.00100040435791 39.05400085449219,34.59400177001953z"/></g><g opacity="1" transform="matrix(1,0,0,1,249.7480010986328,761.2080078125)"><path fill="rgb(42,54,156)" fill-opacity="1" d=" M-27.913999557495117,-36.1619987487793 C-4.7220001220703125,-54.0629997253418 26.576000213623047,-52.387001037597656 41.99300003051758,-32.415000915527344 C57.409000396728516,-12.442999839782715 51.10599899291992,18.259000778198242 27.913999557495117,36.1609992980957 C4.7220001220703125,54.0629997253418 -26.57699966430664,52.38600158691406 -41.99300003051758,32.415000915527344 C-57.409000396728516,12.442999839782715 -51.10599899291992,-18.260000228881836 -27.913999557495117,-36.1619987487793z"/></g><g opacity="1" transform="matrix(1,0,0,1,246.0749969482422,758.6409912109375)"><path fill="rgb(60,74,200)" fill-opacity="1" d=" M24.240999221801758,33.59400177001953 C6.28000020980835,47.46699905395508 -16.54599952697754,49.58000183105469 -33.09199905395508,40.54999923706055 C-34.98099899291992,38.887001037597656 -36.729000091552734,37.02899932861328 -38.314998626708984,34.97800064086914 C-53.73400115966797,15.01200008392334 -47.430999755859375,-15.694000244140625 -24.239999771118164,-33.59400177001953 C-6.2789998054504395,-47.45899963378906 16.547000885009766,-49.58100128173828 33.084999084472656,-40.55699920654297 C34.98099899291992,-38.89400100708008 36.72999954223633,-37.02899932861328 38.314998626708984,-34.97700119018555 C53.73400115966797,-15.01099967956543 47.430999755859375,15.694999694824219 24.239999771118164,33.59400177001953 C24.239999771118164,33.59400177001953 24.240999221801758,33.59400177001953 24.240999221801758,33.59400177001953z"/></g></g><g transform="matrix(0.8881912231445312,0.45947402715682983,-0.45947402715682983,0.8881912231445312,421.33807373046875,574.6366577148438)" opacity="1" style="display: block;"><g opacity="1" transform="matrix(1,0,0,1,-130.5,-226.5)"><path stroke-linecap="butt" stroke-linejoin="miter" fill-opacity="0" stroke-miterlimit="4" stroke="rgb(60,37,254)" stroke-opacity="1" stroke-width="40" d=" M-66.56800079345703,41.5989990234375 C-74.12799835205078,29.53499984741211 -78.5,15.27400016784668 -78.5,0 C-78.5,-43.32415008544922 -43.32415008544922,-78.5 0,-78.5"/></g><g opacity="1" transform="matrix(1,0,0,1,-130.5,-226.5)"><path stroke-linecap="butt" stroke-linejoin="miter" fill-opacity="0" stroke-miterlimit="4" stroke="rgb(214,218,255)" stroke-opacity="1" stroke-width="40" d=" M59.90599822998047,50.70800018310547 C45.500999450683594,67.7040023803711 24.000999450683594,78.5 0,78.5 C-29.81100082397461,78.5 -55.76499938964844,61.845001220703125 -69.05400085449219,37.34000015258789"/></g><g opacity="1" transform="matrix(1,0,0,1,-130.5,-226.5)"><path stroke-linecap="butt" stroke-linejoin="miter" fill-opacity="0" stroke-miterlimit="4" stroke="rgb(153,163,255)" stroke-opacity="1" stroke-width="40" d=" M75.9489974975586,19.906999588012695 C72.51200103759766,33.0359992980957 65.75700378417969,44.82899856567383 56.63600158691406,54.33399963378906"/></g><g opacity="1" transform="matrix(1,0,0,1,-130.5,-226.5)"><path stroke-linecap="butt" stroke-linejoin="miter" fill-opacity="0" stroke-miterlimit="4" stroke="rgb(56,75,255)" stroke-opacity="1" stroke-width="40" d=" M0,-78.5 C43.32415008544922,-78.5 78.5,-43.32415008544922 78.5,0 C78.5,6.876999855041504 77.61399841308594,13.548999786376953 75.9489974975586,19.906999588012695"/></g></g><g transform="matrix(1,0,0,1,538,540)" opacity="1" style="display: block;"><g opacity="1" transform="matrix(1,0,0,1,0,0)"><g opacity="1" transform="matrix(1,0,0,1,11,0)"><path stroke-linecap="butt" stroke-linejoin="miter" fill-opacity="0" stroke-miterlimit="4" stroke="rgb(142,154,255)" stroke-opacity="1" stroke-width="10" d=" M-202,29.37299919128418 C-202,61.43600082397461 -202,91.5 -202,91.5"/></g><g opacity="1" transform="matrix(1,0,0,1,0,0)"><path stroke-linecap="butt" stroke-linejoin="miter" fill-opacity="0" stroke-miterlimit="4" stroke="rgb(56,75,255)" stroke-opacity="1" stroke-width="10" d=" M-202,-17.121000289916992 C-202,23.400999069213867 -202,91.5 -202,91.5"/></g></g><g opacity="1" transform="matrix(1,0,0,1,45,0)"><g opacity="1" transform="matrix(1,0,0,1,11,0)"><path stroke-linecap="butt" stroke-linejoin="miter" fill-opacity="0" stroke-miterlimit="4" stroke="rgb(142,154,255)" stroke-opacity="1" stroke-width="10" d=" M-202,34.50600051879883 C-202,64.5719985961914 -202,91.5 -202,91.5"/></g><g opacity="1" transform="matrix(1,0,0,1,0,0)"><path stroke-linecap="butt" stroke-linejoin="miter" fill-opacity="0" stroke-miterlimit="4" stroke="rgb(56,75,255)" stroke-opacity="1" stroke-width="10" d=" M-202,2.3380000591278076 C-202,42.03799819946289 -202,91.5 -202,91.5"/></g></g><g opacity="1" transform="matrix(1,0,0,1,90,0)"><g opacity="1" transform="matrix(1,0,0,1,11,0)"><path stroke-linecap="butt" stroke-linejoin="miter" fill-opacity="0" stroke-miterlimit="4" stroke="rgb(142,154,255)" stroke-opacity="1" stroke-width="10" d=" M-202,42.53799819946289 C-202,69.20500183105469 -202,91.5 -202,91.5"/></g><g opacity="1" transform="matrix(1,0,0,1,0,0)"><path stroke-linecap="butt" stroke-linejoin="miter" fill-opacity="0" stroke-miterlimit="4" stroke="rgb(56,75,255)" stroke-opacity="1" stroke-width="10" d=" M-202,16.70400047302246 C-202,53.02299880981445 -202,91.5 -202,91.5"/></g></g><g opacity="1" transform="matrix(1,0,0,1,135,0)"><g opacity="1" transform="matrix(1,0,0,1,11,0)"><path stroke-linecap="butt" stroke-linejoin="miter" fill-opacity="0" stroke-miterlimit="4" stroke="rgb(142,154,255)" stroke-opacity="1" stroke-width="10" d=" M-202,-21.108999252319336 C-202,18.746999740600586 -202,91.5 -202,91.5"/></g><g opacity="1" transform="matrix(1,0,0,1,0,0)"><path stroke-linecap="butt" stroke-linejoin="miter" fill-opacity="0" stroke-miterlimit="4" stroke="rgb(56,75,255)" stroke-opacity="1" stroke-width="10" d=" M-202,-35.09000015258789 C-202,-2.0280001163482666 -202,91.5 -202,91.5"/></g></g><g opacity="1" transform="matrix(1,0,0,1,180,0)"><g opacity="1" transform="matrix(1,0,0,1,11,0)"><path stroke-linecap="butt" stroke-linejoin="miter" fill-opacity="0" stroke-miterlimit="4" stroke="rgb(142,154,255)" stroke-opacity="1" stroke-width="10" d=" M-202,16.856000900268555 C-202,53.130001068115234 -202,91.5 -202,91.5"/></g><g opacity="1" transform="matrix(1,0,0,1,0,0)"><path stroke-linecap="butt" stroke-linejoin="miter" fill-opacity="0" stroke-miterlimit="4" stroke="rgb(56,75,255)" stroke-opacity="1" stroke-width="10" d=" M-202,33.33300018310547 C-202,63.86800003051758 -202,91.5 -202,91.5"/></g></g><g opacity="1" transform="matrix(1,0,0,1,225,0)"><g opacity="1" transform="matrix(1,0,0,1,11,0)"><path stroke-linecap="butt" stroke-linejoin="miter" fill-opacity="0" stroke-miterlimit="4" stroke="rgb(142,154,255)" stroke-opacity="1" stroke-width="10" d=" M-202,-3.5 C-202,37 -202,91.5 -202,91.5"/></g><g opacity="1" transform="matrix(1,0,0,1,0,0)"><path stroke-linecap="butt" stroke-linejoin="miter" fill-opacity="0" stroke-miterlimit="4" stroke="rgb(56,75,255)" stroke-opacity="1" stroke-width="10" d=" M-202,60.32699966430664 C-202,78.4260025024414 -202,91.5 -202,91.5"/></g></g><g opacity="1" transform="matrix(1,0,0,1,270,0)"><g opacity="1" transform="matrix(1,0,0,1,11,0)"><path stroke-linecap="butt" stroke-linejoin="miter" fill-opacity="0" stroke-miterlimit="4" stroke="rgb(142,154,255)" stroke-opacity="1" stroke-width="10" d=" M-202,39.84700012207031 C-202,67.68800354003906 -202,91.5 -202,91.5"/></g><g opacity="1" transform="matrix(1,0,0,1,0,0)"><path stroke-linecap="butt" stroke-linejoin="miter" fill-opacity="0" stroke-miterlimit="4" stroke="rgb(56,75,255)" stroke-opacity="1" stroke-width="10" d=" M-202,48.196998596191406 C-202,72.28600311279297 -202,91.5 -202,91.5"/></g></g><g opacity="1" transform="matrix(1,0,0,1,315,0)"><g opacity="1" transform="matrix(1,0,0,1,11,0)"><path stroke-linecap="butt" stroke-linejoin="miter" fill-opacity="0" stroke-miterlimit="4" stroke="rgb(142,154,255)" stroke-opacity="1" stroke-width="10" d=" M-202,38.590999603271484 C-202,66.96800231933594 -202,91.5 -202,91.5"/></g><g opacity="1" transform="matrix(1,0,0,1,0,0)"><path stroke-linecap="butt" stroke-linejoin="miter" fill-opacity="0" stroke-miterlimit="4" stroke="rgb(56,75,255)" stroke-opacity="1" stroke-width="10" d=" M-202,26.985000610351562 C-202,59.926998138427734 -202,91.5 -202,91.5"/></g></g></g></g></svg>