<svg xmlns="http://www.w3.org/2000/svg" xmlns:xlink="http://www.w3.org/1999/xlink" viewBox="0 0 1000 700" width="502" height="352" preserveAspectRatio="xMidYMid meet" style="width: 100%; height: 100%; transform: translate3d(0px, 0px, 0px); content-visibility: visible;"><defs><clipPath id="__lottie_element_80"><rect width="1000" height="700" x="0" y="0"/></clipPath><clipPath id="__lottie_element_82"><path d="M0,0 L2000,0 L2000,1400 L0,1400z"/></clipPath><clipPath id="__lottie_element_86"><path d="M0,0 L2000,0 L2000,2000 L0,2000z"/></clipPath><clipPath id="__lottie_element_114"><path d="M0,0 L2000,0 L2000,2000 L0,2000z"/></clipPath><clipPath id="__lottie_element_145"><path d="M0,0 L2000,0 L2000,2000 L0,2000z"/></clipPath></defs><g clip-path="url(#__lottie_element_80)"><g clip-path="url(#__lottie_element_82)" transform="matrix(0.5,0,0,0.5,0,0)" opacity="1" style="display: block;"><g clip-path="url(#__lottie_element_145)" transform="matrix(2.700000047683716,0,0,2.700000047683716,-1700,-2000)" opacity="1" style="display: block;"><g transform="matrix(1,0,0,1,641.7498168945312,753.1480102539062)" opacity="1" style="display: block;"><g opacity="1" transform="matrix(1,0,0,1,310.4630126953125,316.2430114746094)"><path fill="rgb(234,152,142)" fill-opacity="1" d=" M-27.312999725341797,12.979000091552734 C-27.312999725341797,12.979000091552734 -37.040000915527344,3.943000078201294 -26.047000885009766,-8.652000427246094 C-26.047000885009766,-8.652000427246094 -9.486000061035156,-28.368000030517578 -9.486000061035156,-28.368000030517578 C-7.980999946594238,-30.086999893188477 -5.311999797821045,-30.101999282836914 -3.7880001068115234,-28.399999618530273 C-2.753000020980835,-27.2450008392334 -2.5230000019073486,-25.577999114990234 -3.2070000171661377,-24.184999465942383 C-3.2070000171661377,-24.184999465942383 -8.866999626159668,-12.131999969482422 -8.866999626159668,-12.131999969482422 C-8.866999626159668,-12.131999969482422 20.582000732421875,-28.32900047302246 20.582000732421875,-28.32900047302246 C22.753000259399414,-29.643999099731445 25.586000442504883,-28.70400047302246 26.540000915527344,-26.35099983215332 C27.277999877929688,-24.52899932861328 26.625999450683594,-22.43899917602539 24.983999252319336,-21.357999801635742 C24.983999252319336,-21.357999801635742 5.85699987411499,-9.16100025177002 5.85699987411499,-9.16100025177002 C5.85699987411499,-9.16100025177002 6.104000091552734,-8.03600025177002 6.104000091552734,-8.03600025177002 C6.104000091552734,-8.03600025177002 27.667999267578125,-17.80900001525879 27.667999267578125,-17.80900001525879 C30.030000686645508,-18.638999938964844 32.5620002746582,-17.10300064086914 32.91699981689453,-14.625 C33.18600082397461,-12.751999855041504 32.09700012207031,-10.949999809265137 30.312999725341797,-10.317999839782715 C30.312999725341797,-10.317999839782715 9.359000205993652,0.5239999890327454 9.359000205993652,0.5239999890327454 C9.359000205993652,0.5239999890327454 9.517999649047852,1.940999984741211 9.517999649047852,1.940999984741211 C9.517999649047852,1.940999984741211 29.584999084472656,-4.535999774932861 29.584999084472656,-4.535999774932861 C31.385000228881836,-4.908999919891357 36.446998596191406,-3.7139999866485596 36.75400161743164,-1.9019999504089355 C37.04100036621094,-0.20999999344348907 32.64799880981445,1.4129999876022339 30.976999282836914,1.7999999523162842 C30.976999282836914,1.7999999523162842 10.076000213623047,10.045000076293945 10.076000213623047,10.045000076293945 C10.076000213623047,10.045000076293945 10.173999786376953,11.357000350952148 10.173999786376953,11.357000350952148 C10.173999786376953,11.357000350952148 29.34600067138672,5.961999893188477 29.34600067138672,5.961999893188477 C31.16900062561035,5.880000114440918 32.60300064086914,7.5 32.29899978637695,9.300000190734863 C32.082000732421875,10.586999893188477 31.02199935913086,11.5649995803833 29.72100067138672,11.675999641418457 C29.72100067138672,11.675999641418457 7.763999938964844,18.719999313354492 7.763999938964844,18.719999313354492 C7.763999938964844,18.719999313354492 -12.746999740600586,30.10099983215332 -20.805999755859375,21.86199951171875 C-20.805999755859375,21.86199951171875 -27.312999725341797,12.979000091552734 -27.312999725341797,12.979000091552734z"/></g><g opacity="1" transform="matrix(1,0,0,1,302.5150146484375,314.3370056152344)"><path stroke-linecap="round" stroke-linejoin="round" fill-opacity="0" stroke="rgb(214,113,101)" stroke-opacity="1" stroke-width="1.441" d=" M-0.9190000295639038,-10.22599983215332 C-0.9190000295639038,-10.22599983215332 4.170000076293945,1.225000023841858 -4.171000003814697,10.22599983215332"/></g></g><g class="2" transform="matrix(1,0,0,1,641.7498168945312,753.1480102539062)" opacity="1" style="display: block;"><g opacity="1" transform="matrix(1,0,0,1,275.8479919433594,336.04400634765625)"><path fill="rgb(236,155,145)" fill-opacity="1" d=" M-22.496999740600586,-7.750999927520752 C-22.496999740600586,-7.750999927520752 10.536999702453613,-18.215999603271484 10.536999702453613,-18.215999603271484 C10.536999702453613,-18.215999603271484 22.496999740600586,2.3320000171661377 22.496999740600586,2.3320000171661377 C22.496999740600586,2.3320000171661377 -14.920999526977539,18.21500015258789 -14.920999526977539,18.21500015258789 C-14.920999526977539,18.21500015258789 -22.496999740600586,-7.750999927520752 -22.496999740600586,-7.750999927520752z"/></g><g opacity="1" transform="matrix(1,0,0,1,278.3659973144531,333.2279968261719)"><path fill="rgb(255,255,255)" fill-opacity="1" d=" M-12.881999969482422,-11.34000015258789 C-12.881999969482422,-11.34000015258789 0.9300000071525574,-15.401000022888184 0.9300000071525574,-15.401000022888184 C0.9300000071525574,-15.401000022888184 12.881999969482422,8.00100040435791 12.881999969482422,8.00100040435791 C12.881999969482422,8.00100040435791 -4.176000118255615,15.401000022888184 -4.176000118255615,15.401000022888184 C-4.176000118255615,15.401000022888184 -12.881999969482422,-11.34000015258789 -12.881999969482422,-11.34000015258789z"/></g><g opacity="1" transform="matrix(1,0,0,1,228.07000732421875,356.63800048828125)"><path fill="rgb(244,167,158)" fill-opacity="1" d=" M-38.94499969482422,-14.692999839782715 C-38.94499969482422,-14.692999839782715 29.64699935913086,-39.00600051879883 29.64699935913086,-39.00600051879883 C35.987998962402344,-41.150001525878906 42.91400146484375,-38.07400131225586 45.57400131225586,-31.930999755859375 C45.57400131225586,-31.930999755859375 53.40700149536133,-13.843999862670898 53.40700149536133,-13.843999862670898 C56.14899826049805,-7.511000156402588 53.40599822998047,-0.1420000046491623 47.189998626708984,2.8559999465942383 C47.189998626708984,2.8559999465942383 -17.47100067138672,35.638999938964844 -17.47100067138672,35.638999938964844 C-28.895999908447266,41.150001525878906 -42.63600158691406,36.88600158691406 -48.93600082397461,25.875999450683594 C-56.14899826049805,13.267999649047852 -52.34700012207031,-9.09000015258789 -38.94499969482422,-14.692999839782715z"/></g></g><g transform="matrix(0.9874264001846313,-0.15807946026325226,0.15807946026325226,0.9874264001846313,585.7254638671875,788.0496826171875)" opacity="1" style="display: block;"><g opacity="1" transform="matrix(1,0,0,1,211.1510009765625,313.4110107421875)"><path fill="rgb(244,167,158)" fill-opacity="1" d=" M8.163000106811523,-59.400001525878906 C8.163000106811523,-59.400001525878906 30.113000869750977,-40.90299987792969 0.10899999737739563,55.74599838256836 C0.10899999737739563,55.74599838256836 -40.4411735534668,56.947052001953125 -40.4411735534668,56.947052001953125 C-40.4411735534668,56.947052001953125 8.163000106811523,-59.400001525878906 8.163000106811523,-59.400001525878906z"/></g></g><g transform="matrix(1,0,0,1,625,750)" opacity="1" style="display: block;"><g opacity="1" transform="matrix(1,0,0,1,154.21800231933594,349.02099609375)"><path fill="rgb(235,64,45)" fill-opacity="1" d=" M-50.64699935913086,67.85700225830078 C-50.64699935913086,67.85700225830078 -3.305999994277954,105.83000183105469 41.79100036621094,72.9209976196289 C41.79100036621094,72.9209976196289 44.31399917602539,-20.649999618530273 44.31399917602539,-20.649999618530273 C44.31399917602539,-20.649999618530273 50.64699935913086,-84.19100189208984 50.64699935913086,-84.19100189208984 C50.64699935913086,-84.19100189208984 41.79100036621094,-99.05000305175781 41.79100036621094,-99.05000305175781 C41.79100036621094,-99.05000305175781 15.420000076293945,-105.8290023803711 15.420000076293945,-105.8290023803711 C15.420000076293945,-105.8290023803711 -16.131000518798828,-102.6969985961914 -16.131000518798828,-102.6969985961914 C-16.131000518798828,-102.6969985961914 -20.27199935913086,-46.856998443603516 -20.27199935913086,-46.856998443603516 C-20.27199935913086,-46.856998443603516 -50.64699935913086,67.85700225830078 -50.64699935913086,67.85700225830078z"/></g><g opacity="1" transform="matrix(1,0,0,1,175.45599365234375,251.9010009765625)"><path fill="rgb(236,155,145)" fill-opacity="1" d=" M-20.788999557495117,0.2800000011920929 C-20.788999557495117,0.2800000011920929 1.6629999876022339,25.309999465942383 23.023000717163086,4.952000141143799 C23.023000717163086,4.952000141143799 12.604000091552734,-24.083999633789062 12.604000091552734,-24.083999633789062 C12.604000091552734,-24.083999633789062 -23.02199935913086,-25.309999465942383 -23.02199935913086,-25.309999465942383 C-23.02199935913086,-25.309999465942383 -20.788999557495117,0.2800000011920929 -20.788999557495117,0.2800000011920929z"/></g><g opacity="1" transform="matrix(1,0,0,1,206.31700134277344,341.74200439453125)"><path fill="rgb(255,138,125)" fill-opacity="1" d=" M-10.307999610900879,-76.68199920654297 C-10.307999610900879,-76.68199920654297 -19.363000869750977,34.5260009765625 -14.5649995803833,98.70800018310547 C-14.359000205993652,101.45800018310547 -10.878999710083008,102.52100372314453 -9.154000282287598,100.37000274658203 C-5.632999897003174,94.56400299072266 -3.5950000286102295,87.98200225830078 -3.2190001010894775,81.2030029296875 C-3.2190001010894775,81.2030029296875 2.321000099182129,-18.617000579833984 2.321000099182129,-18.617000579833984 C2.321000099182129,-18.617000579833984 17.652999877929688,-71.33399963378906 17.652999877929688,-71.33399963378906 C19.363000869750977,-77.21399688720703 17.57200050354004,-83.53600311279297 13.057999610900879,-87.67400360107422 C8.26200008392334,-92.0719985961914 0.7459999918937683,-97.62699890136719 -10.293999671936035,-102.52100372314453 C-10.293999671936035,-102.52100372314453 -10.307999610900879,-76.68199920654297 -10.307999610900879,-76.68199920654297z"/></g><g opacity="1" transform="matrix(1,0,0,1,201.45599365234375,247.0290069580078)"><path fill="rgb(252,224,221)" fill-opacity="1" d=" M-11.935999870300293,-7.808000087738037 C-11.935999870300293,-7.808000087738037 -5.558000087738037,6.98199987411499 -6.206999778747559,25.702999114990234 C-6.206999778747559,25.702999114990234 11.935999870300293,3.615999937057495 -10.079999923706055,-25.702999114990234 C-10.079999923706055,-25.702999114990234 -11.935999870300293,-7.808000087738037 -11.935999870300293,-7.808000087738037z"/></g><g opacity="1" transform="matrix(1,0,0,1,156.10000610351562,221.56100463867188)"><path fill="rgb(229,229,229)" fill-opacity="1" d=" M-0.1720000058412552,-6.228000164031982 C-0.1720000058412552,-6.228000164031982 9.381999969482422,-5.353000164031982 9.381999969482422,-5.353000164031982 C9.381999969482422,-5.353000164031982 5.550000190734863,3.6510000228881836 5.550000190734863,3.6510000228881836 C5.550000190734863,3.6510000228881836 -7.184000015258789,6.228000164031982 -7.184000015258789,6.228000164031982 C-7.184000015258789,6.228000164031982 -9.380999565124512,4.077000141143799 -9.380999565124512,4.077000141143799 C-9.380999565124512,4.077000141143799 -0.1720000058412552,-6.228000164031982 -0.1720000058412552,-6.228000164031982z"/></g><g opacity="1" transform="matrix(1,0,0,1,149.0919952392578,244.86500549316406)"><path fill="rgb(252,224,221)" fill-opacity="1" d=" M6.835999965667725,-29.531999588012695 C6.835999965667725,-29.531999588012695 1.3899999856948853,-25.209999084472656 7.002999782562256,-10.520000457763672 C10.024999618530273,-2.614000082015991 14.041999816894531,3.4119999408721924 14.760000228881836,13.130000114440918 C15.145000457763672,18.319000244140625 12.00100040435791,30.7810001373291 12.00100040435791,30.7810001373291 C12.00100040435791,30.7810001373291 -15.145000457763672,-12.097999572753906 -15.145000457763672,-12.097999572753906 C-15.145000457763672,-12.097999572753906 -4.355999946594238,-30.7810001373291 6.835999965667725,-29.531999588012695z"/></g><g opacity="1" transform="matrix(1,0,0,1,122.88899993896484,339.1669921875)"><path fill="rgb(255,138,125)" fill-opacity="1" d=" M38.20399856567383,-63.52199935913086 C38.20399856567383,-63.52199935913086 45.237998962402344,23.469999313354492 9.321000099182129,100.3270034790039 C7.459000110626221,104.30999755859375 3.0190000534057617,106.4010009765625 -1.2339999675750732,105.28600311279297 C-10.692999839782715,102.80599975585938 -28.618999481201172,95.47899627685547 -45.237998962402344,67.43399810791016 C-45.237998962402344,67.43399810791016 -36.84700012207031,-75.31099700927734 -36.84700012207031,-75.31099700927734 C-36.50899887084961,-80.91300201416016 -33.46799850463867,-85.99199676513672 -28.687000274658203,-88.92900085449219 C-20.5,-93.95700073242188 -6.314000129699707,-101.5770034790039 11.057999610900879,-106.4010009765625 C11.057999610900879,-106.4010009765625 32.89099884033203,-93.8280029296875 38.20399856567383,-63.52199935913086z"/></g></g><g transform="matrix(1,0,0,1,625,750)" opacity="1" style="display: block;"><g opacity="1" transform="matrix(1,0,0,1,88.37999725341797,329.9930114746094)"><path fill="rgb(244,167,158)" fill-opacity="1" d=" M5.734000205993652,-79.70099639892578 C5.734000205993652,-79.70099639892578 43.86800003051758,-43.97200012207031 15.395000457763672,29.246000289916992 C15.395000457763672,29.246000289916992 10.612000465393066,55.12799835205078 10.612000465393066,55.12799835205078 C7.843999862670898,70.11100006103516 -6.934000015258789,79.70099639892578 -21.746000289916992,76.125 C-35.14400100708008,72.89199829101562 -43.86800003051758,59.957000732421875 -41.78300094604492,46.33300018310547 C-35.7130012512207,6.681000232696533 -20.81599998474121,-68.88400268554688 5.734000205993652,-79.70099639892578z"/></g></g><g transform="matrix(1,0,0,1,625,750)" opacity="1" style="display: block;"><g opacity="1" transform="matrix(1,0,0,1,198.44500732421875,358.82000732421875)"><path fill="rgb(236,155,145)" fill-opacity="1" d=" M-29.82200050354004,7.228000164031982 C-29.82200050354004,7.228000164031982 -36.35300064086914,-4.330999851226807 -22.062000274658203,-13.003000259399414 C-22.062000274658203,-13.003000259399414 -0.3059999942779541,-26.775999069213867 -0.3059999942779541,-26.775999069213867 C1.6490000486373901,-27.95800018310547 4.197999954223633,-27.163999557495117 5.133999824523926,-25.079999923706055 C5.769999980926514,-23.666000366210938 5.484000205993652,-22.006000518798828 4.410999774932861,-20.886999130249023 C4.410999774932861,-20.886999130249023 -4.635000228881836,-11.114999771118164 -4.635000228881836,-11.114999771118164 C-4.635000228881836,-11.114999771118164 28.336000442504883,-17.628999710083008 28.336000442504883,-17.628999710083008 C30.804000854492188,-18.225000381469727 33.21900177001953,-16.469999313354492 33.415000915527344,-13.939000129699707 C33.56700134277344,-11.979000091552734 32.31399917602539,-10.184000015258789 30.422000885009766,-9.651000022888184 C30.422000885009766,-9.651000022888184 8.496000289916992,-3.822999954223633 8.496000289916992,-3.822999954223633 C8.496000289916992,-3.822999954223633 8.390000343322754,-2.674999952316284 8.390000343322754,-2.674999952316284 C8.390000343322754,-2.674999952316284 31.90399932861328,-5.456999778747559 31.90399932861328,-5.456999778747559 C34.40599822998047,-5.5320000648498535 36.35300064086914,-3.3010001182556152 35.941001892089844,-0.8330000042915344 C35.630001068115234,1.034000039100647 34.04499816894531,2.4210000038146973 32.154998779296875,2.4839999675750732 C32.154998779296875,2.4839999675750732 8.899999618530273,6.4679999351501465 8.899999618530273,6.4679999351501465 C8.899999618530273,6.4679999351501465 8.623000144958496,7.867000102996826 8.623000144958496,7.867000102996826 C8.623000144958496,7.867000102996826 29.708999633789062,7.771999835968018 29.708999633789062,7.771999835968018 C31.53700065612793,7.961999893188477 32.84199905395508,9.631999969482422 32.58599853515625,11.45199966430664 C32.34600067138672,13.151000022888184 30.825000762939453,14.371000289916992 29.114999771118164,14.234000205993652 C29.114999771118164,14.234000205993652 6.698999881744385,15.758999824523926 6.698999881744385,15.758999824523926 C6.698999881744385,15.758999824523926 6.394999980926514,17.038000106811523 6.394999980926514,17.038000106811523 C6.394999980926514,17.038000106811523 26.302000045776367,17.707000732421875 26.302000045776367,17.707000732421875 C28.06399917602539,18.18000030517578 28.93899917602539,20.159000396728516 28.104999542236328,21.781999588012695 C27.506999969482422,22.94300079345703 26.200000762939453,23.552000045776367 24.927000045776367,23.264999389648438 C24.927000045776367,23.264999389648438 1.8669999837875366,23.326000213623047 1.8669999837875366,23.326000213623047 C1.8669999837875366,23.326000213623047 -21.128000259399414,27.95800018310547 -26.312000274658203,17.665000915527344 C-26.312000274658203,17.665000915527344 -29.82200050354004,7.228000164031982 -29.82200050354004,7.228000164031982z"/></g></g><g class="1" transform="matrix(1,0,0,1,625,750)" opacity="1" style="display: block;"><g opacity="1" transform="matrix(1,0,0,1,158.1490020751953,370.9490051269531)"><path fill="rgb(236,155,145)" fill-opacity="1" d=" M-22.180999755859375,-13.262999534606934 C-22.180999755859375,-13.262999534606934 17.009000778198242,-14.781999588012695 17.009000778198242,-14.781999588012695 C17.009000778198242,-14.781999588012695 22.180999755859375,8.423999786376953 22.180999755859375,8.423999786376953 C22.180999755859375,8.423999786376953 -19.670000076293945,14.781999588012695 -19.670000076293945,14.781999588012695 C-19.670000076293945,14.781999588012695 -22.180999755859375,-13.262999534606934 -22.180999755859375,-13.262999534606934z"/></g><g opacity="1" transform="matrix(1,0,0,1,163.13400268554688,368.33099365234375)"><path fill="rgb(255,255,255)" fill-opacity="1" d=" M-10.767999649047852,-15.163999557495117 C-10.767999649047852,-15.163999557495117 6.2870001792907715,-16.12299919128418 6.2870001792907715,-16.12299919128418 C6.2870001792907715,-16.12299919128418 10.767999649047852,13.666999816894531 10.767999649047852,13.666999816894531 C10.767999649047852,13.666999816894531 -7.915999889373779,16.12299919128418 -7.915999889373779,16.12299919128418 C-7.915999889373779,16.12299919128418 -10.767999649047852,-15.163999557495117 -10.767999649047852,-15.163999557495117z"/></g><g opacity="1" transform="matrix(1,0,0,1,103.20899963378906,378.47698974609375)"><path fill="rgb(244,167,158)" fill-opacity="1" d=" M-34.393001556396484,-26.20199966430664 C-34.393001556396484,-26.20199966430664 45.229000091552734,-30.06800079345703 45.229000091552734,-30.06800079345703 C51.10900115966797,-30.354000091552734 56.124000549316406,-25.854000091552734 56.4739990234375,-19.97800064086914 C56.4739990234375,-19.97800064086914 57.85100173950195,3.0799999237060547 57.85100173950195,3.0799999237060547 C58.17499923706055,8.510000228881836 54.38999938964844,13.324000358581543 49.03799819946289,14.291999816894531 C49.03799819946289,14.291999816894531 -26.5049991607666,27.947999954223633 -26.5049991607666,27.947999954223633 C-38.95899963378906,30.354000091552734 -51.152000427246094,22.716999053955078 -54.42599868774414,10.463000297546387 C-58.17499923706055,-3.571000099182129 -48.78200149536133,-24.214000701904297 -34.393001556396484,-26.20199966430664z"/></g><g opacity="1" transform="matrix(1,0,0,1,93.3290023803711,351.0849914550781)"><path stroke-linecap="round" stroke-linejoin="round" fill-opacity="0" stroke="rgb(223,132,122)" stroke-opacity="1" stroke-width="2.431" d=" M13.614999771118164,-0.6610000133514404 C13.614999771118164,-0.6610000133514404 -13.614999771118164,0.6610000133514404 -13.614999771118164,0.6610000133514404"/></g></g><g transform="matrix(1,0,0,1,625,750)" opacity="1" style="display: block;"><g opacity="1" transform="matrix(1,0,0,1,173.6999969482422,205.07899475097656)"><path fill="rgb(236,155,145)" fill-opacity="1" d=" M19.74799919128418,-6.664000034332275 C19.74799919128418,-6.664000034332275 15.819999694824219,34.141998291015625 15.819999694824219,34.141998291015625 C15.819999694824219,34.141998291015625 -19.74799919128418,21.607999801635742 -19.74799919128418,21.607999801635742 C-19.74799919128418,21.607999801635742 -10.04699993133545,-34.141998291015625 -10.04699993133545,-34.141998291015625 C-10.04699993133545,-34.141998291015625 19.74799919128418,-6.664000034332275 19.74799919128418,-6.664000034332275z"/></g><g opacity="1" transform="matrix(1,0,0,1,183.2689971923828,204.0570068359375)"><path fill="rgb(214,113,101)" fill-opacity="1" d=" M8.46500015258789,12.151000022888184 C8.46500015258789,12.151000022888184 -8.888999938964844,11.40999984741211 -9.84000015258789,-12.151000022888184 C-9.84000015258789,-12.151000022888184 9.84000015258789,-1.7200000286102295 9.84000015258789,-1.7200000286102295 C9.84000015258789,-1.7200000286102295 8.46500015258789,12.151000022888184 8.46500015258789,12.151000022888184z"/></g></g><g transform="matrix(1,0,0,1,625,750)" opacity="1" style="display: block;"><g opacity="1" transform="matrix(1,0,0,1,215.07000732421875,147.3939971923828)"><path fill="rgb(22,22,22)" fill-opacity="1" d=" M3.2219998836517334,-6.664000034332275 C3.2219998836517334,-6.664000034332275 4.828000068664551,-0.5450000166893005 -0.27799999713897705,8.050999641418457 C-0.27799999713897705,8.050999641418457 -4.827000141143799,-8.050999641418457 -4.827000141143799,-8.050999641418457 C-4.827000141143799,-8.050999641418457 3.2219998836517334,-6.664000034332275 3.2219998836517334,-6.664000034332275z"/></g><g opacity="1" transform="matrix(1,0,0,1,211.91700744628906,173.91400146484375)"><path fill="rgb(214,113,101)" fill-opacity="1" d=" M-9.87399959564209,2.2290000915527344 C-8.642999649047852,7.682000160217285 -3.2239999771118164,11.104999542236328 2.2290000915527344,9.87399959564209 C7.682000160217285,8.642000198364258 11.104000091552734,3.2239999771118164 9.873000144958496,-2.2290000915527344 C8.640999794006348,-7.682000160217285 3.2219998836517334,-11.104999542236328 -2.2300000190734863,-9.87399959564209 C-7.684000015258789,-8.642999649047852 -11.104999542236328,-3.2239999771118164 -9.87399959564209,2.2290000915527344z"/></g><g opacity="1" transform="matrix(1,0,0,1,187.51600646972656,163.26499938964844)"><path fill="rgb(236,155,145)" fill-opacity="1" d=" M28.093000411987305,-21.304000854492188 C28.093000411987305,-21.304000854492188 33.507999420166016,12.991999626159668 28.12700080871582,26.131999969482422 C22.746999740600586,39.27299880981445 11.322999954223633,46.97600173950195 -5.953000068664551,42.29199981689453 C-5.953000068664551,42.29199981689453 -26.18000030517578,39.82600021362305 -29.104999542236328,9.329999923706055 C-33.507999420166016,-36.58300018310547 8.699999809265137,-46.97600173950195 28.093000411987305,-21.304000854492188z"/></g><g opacity="1" transform="matrix(1,0,0,1,213.2429962158203,167.3209991455078)"><path fill="rgb(22,22,22)" fill-opacity="1" d=" M-2.2760000228881836,0.42500001192092896 C-2.0409998893737793,1.6820000410079956 -0.8309999704360962,2.510999917984009 0.4259999990463257,2.2760000228881836 C1.6829999685287476,2.0409998893737793 2.51200008392334,0.8309999704360962 2.2769999504089355,-0.4269999861717224 C2.0420000553131104,-1.684000015258789 0.8320000171661377,-2.51200008392334 -0.42500001192092896,-2.2769999504089355 C-1.6829999685287476,-2.0420000553131104 -2.510999917984009,-0.8320000171661377 -2.2760000228881836,0.42500001192092896z"/></g><g opacity="1" transform="matrix(1,0,0,1,193.6929931640625,166.30099487304688)"><path fill="rgb(22,22,22)" fill-opacity="1" d=" M-2.2769999504089355,0.4259999990463257 C-2.0420000553131104,1.6829999685287476 -0.8320000171661377,2.51200008392334 0.42500001192092896,2.2769999504089355 C1.6820000410079956,2.0420000553131104 2.510999917984009,0.8320000171661377 2.2760000228881836,-0.4259999990463257 C2.0409998893737793,-1.6829999685287476 0.8309999704360962,-2.51200008392334 -0.4259999990463257,-2.2760000228881836 C-1.684000015258789,-2.0409998893737793 -2.51200008392334,-0.8309999704360962 -2.2769999504089355,0.4259999990463257z"/></g><g opacity="1" transform="matrix(1,0,0,1,206.75100708007812,173.6529998779297)"><path stroke-linecap="round" stroke-linejoin="round" fill-opacity="0" stroke="rgb(214,113,101)" stroke-opacity="1" stroke-width="1.441" d=" M-0.07699999958276749,-4.35699987411499 C-0.07699999958276749,-4.35699987411499 1.8860000371932983,3.628000020980835 1.8860000371932983,3.628000020980835 C1.8860000371932983,3.628000020980835 -1.8860000371932983,4.35699987411499 -1.8860000371932983,4.35699987411499"/></g><g opacity="1" transform="matrix(1,0,0,1,189.74899291992188,154.24099731445312)"><path fill="rgb(22,22,22)" fill-opacity="1" d=" M8.729000091552734,-1.8860000371932983 C8.729000091552734,-1.8860000371932983 8.729000091552734,-1.8860000371932983 8.729000091552734,-1.8860000371932983 C9.07699966430664,-0.027000000700354576 7.750999927520752,1.7200000286102295 5.867000102996826,1.8839999437332153 C3.0230000019073486,2.130000114440918 -1.100000023841858,2.755000114440918 -4.835000038146973,4.328999996185303 C-6.224999904632568,4.914000034332275 -7.824999809265137,4.3470001220703125 -8.46399974822998,2.9809999465942383 C-9.07699966430664,1.6720000505447388 -8.494999885559082,0.2540000081062317 -7.327000141143799,-0.597000002861023 C-4.935999870300293,-2.3399999141693115 -1.1449999809265137,-4.914000034332275 5.627999782562256,-4.499000072479248 C7.146999835968018,-4.40500020980835 8.449000358581543,-3.382999897003174 8.729000091552734,-1.8860000371932983z"/></g><g opacity="1" transform="matrix(1,0,0,1,213.47300720214844,155.52499389648438)"><path fill="rgb(22,22,22)" fill-opacity="1" d=" M-5.734000205993652,-2.3919999599456787 C-5.734000205993652,-2.3919999599456787 -5.734000205993652,-2.3919999599456787 -5.734000205993652,-2.3919999599456787 C-5.988999843597412,-0.5640000104904175 -5.13700008392334,1.2239999771118164 -3.8940000534057617,1.465000033378601 C-2.0169999599456787,1.8289999961853027 0.699999988079071,2.621000051498413 3.1489999294281006,4.339000225067139 C4.059000015258789,4.978000164031982 5.125,4.482999801635742 5.565999984741211,3.1559998989105225 C5.988999843597412,1.8839999437332153 5.623000144958496,0.453000009059906 4.86299991607666,-0.4390000104904175 C3.305000066757202,-2.2669999599456787 0.8330000042915344,-4.979000091552734 -3.6500000953674316,-4.85099983215332 C-4.656000137329102,-4.822999954223633 -5.5289998054504395,-3.864000082015991 -5.734000205993652,-2.3919999599456787z"/></g><g opacity="1" transform="matrix(1,0,0,1,200.65899658203125,186.4290008544922)"><path fill="rgb(60,37,254)" fill-opacity="1" d=" M9.098999977111816,-3.0360000133514404 C9.098999977111816,-3.0360000133514404 -8.23799991607666,-4.776000022888184 -8.23799991607666,-4.776000022888184 C-8.23799991607666,-4.776000022888184 -9.135000228881836,3.318000078201294 -0.0010000000474974513,4.046999931335449 C9.133999824523926,4.776000022888184 9.098999977111816,-3.0360000133514404 9.098999977111816,-3.0360000133514404z"/></g><g opacity="1" transform="matrix(1,0,0,1,200.65899658203125,183.9250030517578)"><path fill="rgb(255,255,255)" fill-opacity="1" d=" M8.072999954223633,2.1470000743865967 C8.072999954223633,2.1470000743865967 -7.627999782562256,0.4259999990463257 -7.627999782562256,0.4259999990463257 C-7.627999782562256,0.4259999990463257 -8.012999534606934,-2.359999895095825 -8.012999534606934,-2.359999895095825 C-8.012999534606934,-2.359999895095825 8.911999702453613,-0.40700000524520874 8.911999702453613,-0.40700000524520874 C8.911999702453613,-0.40700000524520874 8.072999954223633,2.1470000743865967 8.072999954223633,2.1470000743865967z"/></g><g opacity="1" transform="matrix(1,0,0,1,197.1540069580078,188.22500610351562)"><path fill="rgb(225,127,116)" fill-opacity="1" d=" M4.703999996185303,1.8040000200271606 C3.7790000438690186,-1.253000020980835 0.550000011920929,-2.9800000190734863 -2.506999969482422,-2.053999900817871 C-5.564000129699707,-1.128999948501587 5.630000114440918,4.861999988555908 4.703999996185303,1.8040000200271606z"/></g><g opacity="1" transform="matrix(1,0,0,1,181.61099243164062,139.05099487304688)"><path fill="rgb(22,22,22)" fill-opacity="1" d=" M-16.104000091552734,33.87200164794922 C-16.104000091552734,33.87200164794922 -6.173999786376953,33.25 -8.74899959564209,7.86299991607666 C-8.74899959564209,7.86299991607666 1.6920000314712524,1.00600004196167 15.37600040435791,4.190999984741211 C29.059999465942383,7.376999855041504 47.75199890136719,5.64300012588501 48.231998443603516,-9.130999565124512 C48.85599899291992,-28.31599998474121 18.099000930786133,-34.215999603271484 -3.5199999809265137,-21.04599952697754 C-23.117000579833984,-9.107000350952148 -48.85599899291992,-3.2720000743865967 -28.9689998626709,34.21699905395508 C-28.9689998626709,34.21699905395508 -16.104000091552734,33.87200164794922 -16.104000091552734,33.87200164794922z"/></g><g opacity="1" transform="matrix(1,0,0,1,159.67599487304688,185.1320037841797)"><path fill="rgb(22,22,22)" fill-opacity="1" d=" M-5.010000228881836,-9.246000289916992 C-5.010000228881836,-9.246000289916992 -0.7419999837875366,9.246000289916992 -0.7419999837875366,9.246000289916992 C-0.7419999837875366,9.246000289916992 5.010000228881836,-5.589000225067139 5.010000228881836,-5.589000225067139 C5.010000228881836,-5.589000225067139 -5.010000228881836,-9.246000289916992 -5.010000228881836,-9.246000289916992z"/></g><g opacity="1" transform="matrix(1,0,0,1,157.35299682617188,171.60499572753906)"><path fill="rgb(236,155,145)" fill-opacity="1" d=" M-11.980999946594238,2.7049999237060547 C-10.486000061035156,9.321999549865723 -3.9110000133514404,13.47599983215332 2.7060000896453857,11.980999946594238 C9.322999954223633,10.487000465393066 13.475000381469727,3.9119999408721924 11.979999542236328,-2.7060000896453857 C10.486000061035156,-9.322999954223633 3.9119999408721924,-13.475000381469727 -2.7060000896453857,-11.980999946594238 C-9.321999549865723,-10.487000465393066 -13.475000381469727,-3.9119999408721924 -11.980999946594238,2.7049999237060547z"/></g><g opacity="1" transform="matrix(1,0,0,1,157.5070037841797,170.7239990234375)"><path stroke-linecap="round" stroke-linejoin="round" fill-opacity="0" stroke="rgb(214,113,101)" stroke-opacity="1" stroke-width="1.441" d=" M-5.421000003814697,-3.0980000495910645 C-5.421000003814697,-3.0980000495910645 3.746000051498413,-5.0279998779296875 5.421000003814697,5.0289998054504395"/></g></g></g><g clip-path="url(#__lottie_element_114)" transform="matrix(2.700000047683716,0,0,2.700000047683716,-1700,-2000)" opacity="1" style="display: block;"><g class="05" transform="matrix(1,0,0,1,625,750)" opacity="1" style="display: block;"><g opacity="1" transform="matrix(1,0,0,1,417.62200927734375,343.4779968261719)"><path fill="rgb(221,221,221)" fill-opacity="1" d=" M60.641998291015625,92.08000183105469 C58.8380012512207,94.33200073242188 -21.117000579833984,126.04900360107422 -59.11000061035156,83.68199920654297 C-59.11000061035156,83.68199920654297 -60.641998291015625,-92.60299682617188 -60.641998291015625,-92.60299682617188 C-60.641998291015625,-92.60299682617188 -32.49700164794922,-126.04900360107422 -32.49700164794922,-126.04900360107422 C-32.49700164794922,-126.04900360107422 2.052999973297119,-125.71900177001953 2.052999973297119,-125.71900177001953 C2.052999973297119,-125.71900177001953 56.5,-26.360000610351562 56.5,-26.360000610351562 C56.5,-26.360000610351562 60.641998291015625,92.08000183105469 60.641998291015625,92.08000183105469z"/></g><g opacity="1" transform="matrix(1,0,0,1,341.6310119628906,329.3059997558594)"><path fill="rgb(166,91,83)" fill-opacity="1" d=" M8.083000183105469,-91.11699676513672 C8.083000183105469,-91.11699676513672 -23.61400032043457,-74.43099975585938 -9.954999923706055,41.03200149536133 C-9.954999923706055,41.03200149536133 -27.457000732421875,91.11699676513672 -27.457000732421875,91.11699676513672 C-27.457000732421875,91.11699676513672 17.983999252319336,91.11699676513672 17.983999252319336,91.11699676513672 C17.983999252319336,91.11699676513672 27.457000732421875,-23.20599937438965 27.457000732421875,-23.20599937438965 C27.457000732421875,-23.20599937438965 8.083000183105469,-91.11699676513672 8.083000183105469,-91.11699676513672z"/></g><g opacity="1" transform="matrix(1,0,0,1,363.3919982910156,326.9989929199219)"><path fill="rgb(166,91,83)" fill-opacity="1" d=" M11.470000267028809,-57.422000885009766 C11.470000267028809,-57.422000885009766 9.041999816894531,98.73400115966797 9.041999816894531,98.73400115966797 C0.2370000034570694,109.56999969482422 -11.140999794006348,108.55799865722656 -11.140999794006348,108.55799865722656 C-11.140999794006348,108.55799865722656 -21.733999252319336,-82.68399810791016 -14.960000038146973,-87.8489990234375 C-0.503000020980835,-98.87100219726562 21.732999801635742,-109.56999969482422 21.732999801635742,-109.56999969482422 C21.732999801635742,-109.56999969482422 11.470000267028809,-57.422000885009766 11.470000267028809,-57.422000885009766z"/></g><g opacity="1" transform="matrix(1,0,0,1,348.4070129394531,355.9010009765625)"><path stroke-linecap="round" stroke-linejoin="round" fill-opacity="0" stroke="rgb(125,78,73)" stroke-opacity="1" stroke-width="2.208" d=" M2.884000062942505,64.52200317382812 C2.884000062942505,64.52200317382812 -2.884000062942505,-64.52200317382812 -2.884000062942505,-64.52200317382812"/></g><g opacity="1" transform="matrix(1,0,0,1,365.2120056152344,252.55299377441406)"><path fill="rgb(255,138,125)" fill-opacity="1" d=" M16.180999755859375,-13.404000282287598 C16.180999755859375,-13.404000282287598 9.649999618530273,17.023000717163086 9.649999618530273,17.023000717163086 C9.649999618530273,17.023000717163086 -8.859000205993652,32.66600036621094 -8.859000205993652,32.66600036621094 C-11.767999649047852,35.124000549316406 -16.180999755859375,32.7239990234375 -15.697999954223633,28.945999145507812 C-15.697999954223633,28.945999145507812 -13.663999557495117,13.020000457763672 -13.663999557495117,13.020000457763672 C-12.993000030517578,7.771999835968018 -11.13599967956543,2.744999885559082 -8.232999801635742,-1.6790000200271606 C-8.232999801635742,-1.6790000200271606 11.32699966430664,-35.124000549316406 11.32699966430664,-35.124000549316406 C11.32699966430664,-35.124000549316406 16.180999755859375,-13.404000282287598 16.180999755859375,-13.404000282287598z"/></g></g><g transform="matrix(1,0,0,1,625,750)" opacity="1" style="display: block;"><g opacity="1" transform="matrix(1,0,0,1,393.8089904785156,203.59500122070312)"><path fill="rgb(236,155,145)" fill-opacity="1" d=" M-21.375,-4.539000034332275 C-21.375,-4.539000034332275 -12.416999816894531,35.55500030517578 -12.416999816894531,35.55500030517578 C-12.416999816894531,35.55500030517578 13.869999885559082,25.732999801635742 13.869999885559082,25.732999801635742 C18.753999710083008,23.908000946044922 21.375,18.59600067138672 19.85300064086914,13.609000205993652 C19.85300064086914,13.609000205993652 4.8520002365112305,-35.55500030517578 4.8520002365112305,-35.55500030517578 C4.8520002365112305,-35.55500030517578 -21.375,-4.539000034332275 -21.375,-4.539000034332275z"/></g><g opacity="1" transform="matrix(1,0,0,1,383.1419982910156,202.37100219726562)"><path fill="rgb(214,113,101)" fill-opacity="1" d=" M-7.48199987411499,11.163999557495117 C-7.48199987411499,11.163999557495117 9.887999534606934,9.258000373840332 8.392999649047852,-11.163999557495117 C8.392999649047852,-11.163999557495117 -9.887999534606934,0.5429999828338623 -9.887999534606934,0.5429999828338623 C-9.887999534606934,0.5429999828338623 -7.48199987411499,11.163999557495117 -7.48199987411499,11.163999557495117z"/></g><g opacity="1" transform="matrix(1,0,0,1,396.5050048828125,238.5019989013672)"><path fill="rgb(236,155,145)" fill-opacity="1" d=" M-15.112000465393066,0.6480000019073486 C-15.112000465393066,0.6480000019073486 -17.158000946044922,10.177000045776367 -17.158000946044922,10.177000045776367 C-17.158000946044922,10.177000045776367 0.07800000160932541,21.297000885009766 13.628000259399414,3.25600004196167 C13.628000259399414,3.25600004196167 17.158000946044922,-21.297000885009766 17.158000946044922,-21.297000885009766 C17.158000946044922,-21.297000885009766 -15.112000465393066,0.6480000019073486 -15.112000465393066,0.6480000019073486z"/></g></g><g class="5" transform="matrix(1,0,0,1,625,750)" opacity="1" style="display: block;"><g opacity="1" transform="matrix(1,0,0,1,450.3219909667969,330.93499755859375)"><path fill="rgb(166,91,83)" fill-opacity="1" d=" M-44.263999938964844,-60.834999084472656 C-44.263999938964844,-60.834999084472656 -46.17399978637695,78.61499786376953 -29.947999954223633,91.66799926757812 C0.04800000041723251,115.7969970703125 46.17399978637695,111.97699737548828 46.17399978637695,111.97699737548828 C46.17399978637695,111.97699737548828 36.104000091552734,37.30699920654297 23.19300079345703,-51.814998626708984 C23.19300079345703,-51.814998626708984 25.674999237060547,-101.94400024414062 25.674999237060547,-101.94400024414062 C25.674999237060547,-101.94400024414062 0.37299999594688416,-115.7979965209961 -30.64699935913086,-113.177001953125 C-30.64699935913086,-113.177001953125 -44.263999938964844,-60.834999084472656 -44.263999938964844,-60.834999084472656z"/></g><g opacity="1" transform="matrix(1,0,0,1,419.364013671875,249.22900390625)"><path fill="rgb(255,138,125)" fill-opacity="1" d=" M-5.701000213623047,-32.025001525878906 C-5.701000213623047,-32.025001525878906 -20.030000686645508,-0.550000011920929 -13.305000305175781,20.871000289916992 C-11.376999855041504,27.01300048828125 6.913000106811523,36.814998626708984 6.913000106811523,36.814998626708984 C11.897000312805176,41.51599884033203 20.0310001373291,37.43199920654297 19.238000869750977,30.628000259399414 C19.238000869750977,30.628000259399414 12.668999671936035,-25.743000030517578 12.668999671936035,-25.743000030517578 C11.607000350952148,-34.867000579833984 3.0209999084472656,-41.516998291015625 -5.966000080108643,-39.611000061035156 C-6.580999851226807,-39.48099899291992 -7.2170000076293945,-39.32500076293945 -7.872000217437744,-39.14099884033203 C-7.872000217437744,-39.14099884033203 -5.701000213623047,-32.025001525878906 -5.701000213623047,-32.025001525878906z"/></g></g><g transform="matrix(0.9707679152488708,0.24002017080783844,-0.24002017080783844,0.9707679152488708,698.1810913085938,643.3216552734375)" opacity="1" style="display: block;"><g opacity="1" transform="matrix(1,0,0,1,480.0950012207031,307.51300048828125)"><path fill="rgb(166,91,83)" fill-opacity="1" d=" M-8.310165405273438,-77.9622573852539 C-8.310165405273438,-77.9622573852539 -44.874000549316406,-43.97100067138672 -16.399999618530273,29.246000289916992 C-16.399999618530273,29.246000289916992 -11.618000030517578,55.12799835205078 -11.618000030517578,55.12799835205078 C-8.848999977111816,70.11100006103516 5.928999900817871,79.70099639892578 20.739999771118164,76.1259994506836 C34.138999938964844,72.89099884033203 44.875,59.957000732421875 42.78900146484375,46.33300018310547 C36.720001220703125,6.681000232696533 26.661834716796875,-64.2402572631836 -8.310165405273438,-77.9622573852539z"/></g><g opacity="1" transform="matrix(1,0,0,1,457.25799560546875,313.2749938964844)"><path stroke-linecap="round" stroke-linejoin="round" fill-opacity="0" stroke="rgb(125,78,73)" stroke-opacity="1" stroke-width="2.208" d=" M-7.301000118255615,-28.160999298095703 C-7.301000118255615,-28.160999298095703 7.302000045776367,28.160999298095703 7.302000045776367,28.160999298095703"/></g></g><g class="1" transform="matrix(0.9707679152488708,0.24002017080783844,-0.24002017080783844,0.9707679152488708,698.1810913085938,643.3216552734375)" opacity="1" style="display: block;"><g opacity="1" transform="matrix(1,0,0,1,410.1199951171875,370.5690002441406)"><path fill="rgb(236,155,145)" fill-opacity="1" d=" M19.933000564575195,-16.44300079345703 C19.933000564575195,-16.44300079345703 -27.32699966430664,1.715999960899353 -27.32699966430664,1.715999960899353 C-27.32699966430664,1.715999960899353 -28.363000869750977,16.44300079345703 -28.363000869750977,16.44300079345703 C-28.363000869750977,16.44300079345703 28.363000869750977,13.413000106811523 28.363000869750977,13.413000106811523 C28.363000869750977,13.413000106811523 19.933000564575195,-16.44300079345703 19.933000564575195,-16.44300079345703z"/></g><g opacity="1" transform="matrix(1,0,0,1,350.45098876953125,373.947998046875)"><path fill="rgb(236,155,145)" fill-opacity="1" d=" M39.974998474121094,-1.031000018119812 C39.974998474121094,-1.031000018119812 27.93199920654297,-10.821000099182129 10.795000076293945,-7.593999862670898 C10.795000076293945,-7.593999862670898 -4.941999912261963,-13.237000465393066 -4.941999912261963,-13.237000465393066 C-7.385000228881836,-14.11299991607666 -10.152999877929688,-13.192000389099121 -11.430999755859375,-11.079000473022461 C-12.8149995803833,-8.791000366210938 -11.980999946594238,-5.9019999504089355 -9.54800033569336,-4.552000045776367 C-9.54800033569336,-4.552000045776367 -0.8450000286102295,0.2750000059604645 -0.8450000286102295,0.2750000059604645 C-0.8450000286102295,0.2750000059604645 -4.38700008392334,0.2720000147819519 -4.38700008392334,0.2720000147819519 C-10.01099967956543,0.2680000066757202 -15.468999862670898,-1.4889999628067017 -19.878000259399414,-4.714000225067139 C-19.878000259399414,-4.714000225067139 -32.42499923706055,-13.892999649047852 -32.42499923706055,-13.892999649047852 C-33.85300064086914,-14.937999725341797 -35.784000396728516,-15.180999755859375 -37.4630012512207,-14.529000282287598 C-40.70800018310547,-13.265999794006348 -41.555999755859375,-9.380999565124512 -39.09400177001953,-7.054999828338623 C-39.09400177001953,-7.054999828338623 -24.308000564575195,6.90500020980835 -24.308000564575195,6.90500020980835 C-18.577999114990234,12.315999984741211 -10.600000381469727,15.180999755859375 -2.4179999828338623,14.767999649047852 C-2.4179999828338623,14.767999649047852 41.55500030517578,12.543999671936035 41.55500030517578,12.543999671936035 C41.55500030517578,12.543999671936035 39.974998474121094,-1.031000018119812 39.974998474121094,-1.031000018119812z"/></g><g opacity="1" transform="matrix(1,0,0,1,406.8609924316406,371.35400390625)"><path fill="rgb(255,255,255)" fill-opacity="1" d=" M5.203999996185303,-16.60700035095215 C5.203999996185303,-16.60700035095215 -12.3100004196167,-12.473999977111816 -12.3100004196167,-12.473999977111816 C-12.3100004196167,-12.473999977111816 -7.324999809265137,16.60700035095215 -7.324999809265137,16.60700035095215 C-7.324999809265137,16.60700035095215 12.3100004196167,13.388999938964844 12.3100004196167,13.388999938964844 C12.3100004196167,13.388999938964844 5.203999996185303,-16.60700035095215 5.203999996185303,-16.60700035095215z"/></g><g opacity="1" transform="matrix(1,0,0,1,464.5719909667969,359.5989990234375)"><path fill="rgb(166,91,83)" fill-opacity="1" d=" M27.107999801635742,-30.305999755859375 C27.107999801635742,-30.305999755859375 -48.231998443603516,-10.444000244140625 -48.231998443603516,-10.444000244140625 C-53.79499816894531,-8.97700023651123 -57.141998291015625,-3.305999994277954 -55.73699951171875,2.2739999294281006 C-55.73699951171875,2.2739999294281006 -50.2239990234375,24.167999267578125 -50.2239990234375,24.167999267578125 C-48.92599868774414,29.322999954223633 -43.98099899291992,32.694000244140625 -38.707000732421875,32.018001556396484 C-38.707000732421875,32.018001556396484 36.26300048828125,24.040000915527344 36.26300048828125,24.040000915527344 C48.577999114990234,22.611000061035156 57.141998291015625,10.342000007629395 56.582000732421875,-2.0420000553131104 C55.939998626708984,-16.225000381469727 41.10300064086914,-32.694000244140625 27.107999801635742,-30.305999755859375z"/></g><g opacity="1" transform="matrix(1,0,0,1,444.95599365234375,345.2919921875)"><path stroke-linecap="round" stroke-linejoin="round" fill-opacity="0" stroke="rgb(125,78,73)" stroke-opacity="1" stroke-width="2.208" d=" M36.4109992980957,-13.279999732971191 C36.4109992980957,-13.279999732971191 -28.83099937438965,3.9200000762939453 -28.83099937438965,3.9200000762939453 C-33.082000732421875,5.040999889373779 -36.13600158691406,8.762999534606934 -36.40299987792969,13.152000427246094 C-36.40299987792969,13.152000427246094 -36.4109992980957,13.279999732971191 -36.4109992980957,13.279999732971191"/></g><g opacity="1" transform="matrix(1,0,0,1,450.989990234375,388.8160095214844)"><path stroke-linecap="round" stroke-linejoin="round" fill-opacity="0" stroke="rgb(125,78,73)" stroke-opacity="1" stroke-width="2.208" d=" M36.16699981689453,-3.7209999561309814 C36.16699981689453,-3.7209999561309814 -26.402000427246094,3.259000062942505 -26.402000427246094,3.259000062942505 C-30.54400062561035,3.7209999561309814 -34.50299835205078,1.4299999475479126 -36.16699981689453,-2.390000104904175"/></g></g><g transform="matrix(0.9999344348907471,0.011450345627963543,-0.011450345627963543,0.9999344348907471,626.7841796875,745.2411499023438)" opacity="1" style="display: block;"><g opacity="1" transform="matrix(1,0,0,1,348.7380065917969,134.19400024414062)"><path fill="rgb(131,78,72)" fill-opacity="1" d=" M-13.265000343322754,-14.222999572753906 C-13.390000343322754,-14.24899959564209 -13.50100040435791,-14.248000144958496 -13.62399959564209,-14.213000297546387 C-14.659000396728516,-13.916000366210938 -19.738000869750977,-12.13700008392334 -18.423999786376953,-6.109000205993652 C-16.959999084472656,0.6050000190734863 4.827000141143799,14.248000144958496 19.738000869750977,5.765999794006348 C19.738000869750977,5.765999794006348 14.282999992370605,-8.906000137329102 14.282999992370605,-8.906000137329102 C14.282999992370605,-8.906000137329102 -13.265000343322754,-14.222999572753906 -13.265000343322754,-14.222999572753906z"/><g opacity="1" transform="matrix(1,0,0,1,0,0)"/></g></g><g transform="matrix(1,0,0,1,625,750)" opacity="1" style="display: block;"><g opacity="1" transform="matrix(1,0,0,1,352.9469909667969,173.5749969482422)"><path fill="rgb(214,113,101)" fill-opacity="1" d=" M9.895000457763672,2.2339999675750732 C8.66100025177002,7.698999881744385 3.2300000190734863,11.128999710083008 -2.2339999675750732,9.894000053405762 C-7.698999881744385,8.65999984741211 -11.128000259399414,3.2300000190734863 -9.894000053405762,-2.234999895095825 C-8.65999984741211,-7.699999809265137 -3.2300000190734863,-11.128999710083008 2.234999895095825,-9.895000457763672 C7.699999809265137,-8.66100025177002 11.128999710083008,-3.2300000190734863 9.895000457763672,2.2339999675750732z"/></g><g opacity="1" transform="matrix(1,0,0,1,378.7300109863281,163.06700134277344)"><path fill="rgb(236,155,145)" fill-opacity="1" d=" M-28.15399932861328,-21.350000381469727 C-28.15399932861328,-21.350000381469727 -33.58000183105469,13.020000457763672 -28.18899917602539,26.18899917602539 C-22.797000885009766,39.358001708984375 -11.347999572753906,47.077999114990234 5.966000080108643,42.382999420166016 C5.966000080108643,42.382999420166016 26.236000061035156,39.9119987487793 29.167999267578125,9.350000381469727 C33.58000183105469,-36.66299819946289 -8.718999862670898,-47.077999114990234 -28.15399932861328,-21.350000381469727z"/></g><g opacity="1" transform="matrix(1,0,0,1,388.3739929199219,149.34300231933594)"><path fill="rgb(22,22,22)" fill-opacity="1" d=" M9.48799991607666,16.766000747680664 C9.48799991607666,16.766000747680664 5.947999954223633,11.164999961853027 9.52299976348877,-4.0279998779296875 C13.097000122070312,-19.22100067138672 -28.045000076293945,-18.819000244140625 -37.79800033569336,-7.625999927520752 C-37.79800033569336,-7.625999927520752 -31.239999771118164,-24.583999633789062 -6.663000106811523,-25.476999282836914 C17.913999557495117,-26.371000289916992 37.79800033569336,-10.697999954223633 29.30699920654297,16.766000747680664 C29.30699920654297,16.766000747680664 23.275999069213867,26.371999740600586 23.275999069213867,26.371999740600586 C23.275999069213867,26.371999740600586 9.48799991607666,16.766000747680664 9.48799991607666,16.766000747680664z"/></g><g opacity="1" transform="matrix(1,0,0,1,379.72198486328125,185.51699829101562)"><path fill="rgb(22,22,22)" fill-opacity="1" d=" M16.58099937438965,-27.6299991607666 C16.58099937438965,-27.6299991607666 18.47100067138672,-7.603000164031982 1.3930000066757202,-4.058000087738037 C-9.503000259399414,-1.7970000505447388 -20.534000396728516,-9.802000045776367 -30.815000534057617,-2.638000011444092 C-30.815000534057617,-2.638000011444092 -26.774999618530273,27.6299991607666 4.263999938964844,20.332000732421875 C8.418999671936035,19.354999542236328 12.24899959564209,17.356000900268555 15.472999572753906,14.557999610900879 C21.774999618530273,9.088000297546387 30.81599998474121,-2.059000015258789 25.44700050354004,-18.121999740600586 C25.44700050354004,-18.121999740600586 16.58099937438965,-27.6299991607666 16.58099937438965,-27.6299991607666z"/></g><g opacity="1" transform="matrix(1,0,0,1,411.6449890136719,173.57400512695312)"><path fill="rgb(236,155,145)" fill-opacity="1" d=" M12.006999969482422,2.7109999656677246 C10.510000228881836,9.342000007629395 3.9200000762939453,13.503999710083008 -2.7119998931884766,12.006999969482422 C-9.343000411987305,10.508999824523926 -13.505000114440918,3.9189999103546143 -12.006999969482422,-2.7119998931884766 C-10.510000228881836,-9.343999862670898 -3.9200000762939453,-13.505000114440918 2.7119998931884766,-12.008000373840332 C9.343000411987305,-10.510000228881836 13.505000114440918,-3.9200000762939453 12.006999969482422,2.7109999656677246z"/></g><g opacity="1" transform="matrix(1,0,0,1,411.4909973144531,172.69200134277344)"><path stroke-linecap="round" stroke-linejoin="round" fill-opacity="0" stroke="rgb(214,113,101)" stroke-opacity="1" stroke-width="1.444" d=" M5.433000087738037,-3.1050000190734863 C5.433000087738037,-3.1050000190734863 -3.755000114440918,-5.039000034332275 -5.433000087738037,5.039999961853027"/></g><g opacity="1" transform="matrix(1,0,0,1,352.9469909667969,167.13099670410156)"><path fill="rgb(22,22,22)" fill-opacity="1" d=" M2.2809998989105225,0.4269999861717224 C2.0460000038146973,1.687000036239624 0.8330000042915344,2.5169999599456787 -0.4269999861717224,2.2809998989105225 C-1.687000036239624,2.0460000038146973 -2.5169999599456787,0.8339999914169312 -2.2809998989105225,-0.4269999861717224 C-2.0460000038146973,-1.6859999895095825 -0.8330000042915344,-2.5169999599456787 0.4269999861717224,-2.2809998989105225 C1.6859999895095825,-2.0450000762939453 2.5169999599456787,-0.8330000042915344 2.2809998989105225,0.4269999861717224z"/></g><g opacity="1" transform="matrix(1,0,0,1,372.5400085449219,166.10899353027344)"><path fill="rgb(22,22,22)" fill-opacity="1" d=" M2.2809998989105225,0.4269999861717224 C2.0450000762939453,1.687000036239624 0.8330000042915344,2.5169999599456787 -0.4269999861717224,2.2820000648498535 C-1.687000036239624,2.0460000038146973 -2.5169999599456787,0.8339999914169312 -2.2809998989105225,-0.4269999861717224 C-2.0460000038146973,-1.6859999895095825 -0.8339999914169312,-2.5169999599456787 0.4269999861717224,-2.2809998989105225 C1.6859999895095825,-2.0450000762939453 2.5169999599456787,-0.8330000042915344 2.2809998989105225,0.4269999861717224z"/></g><g opacity="1" transform="matrix(1,0,0,1,358.510986328125,173.57400512695312)"><path stroke-linecap="round" stroke-linejoin="round" fill-opacity="0" stroke="rgb(214,113,101)" stroke-opacity="1" stroke-width="1.444" d=" M1.8910000324249268,-4.122000217437744 C1.8910000324249268,-4.122000217437744 -1.8910000324249268,2.1410000324249268 -1.8910000324249268,2.1410000324249268 C-1.8910000324249268,2.1410000324249268 1.8910000324249268,4.122000217437744 1.8910000324249268,4.122000217437744"/></g><g opacity="1" transform="matrix(1,0,0,1,376.5820007324219,152.4499969482422)"><path fill="rgb(22,22,22)" fill-opacity="1" d=" M-9.001999855041504,-0.44600000977516174 C-9.001999855041504,-0.44600000977516174 -9.001999855041504,-0.44600000977516174 -9.001999855041504,-0.44600000977516174 C-9.133000373840332,1.4450000524520874 -7.61299991607666,3.0320000648498535 -5.718999862670898,2.9769999980926514 C-2.859999895095825,2.8940000534057617 1.3170000314712524,3.0409998893737793 5.216000080108643,4.177000045776367 C6.666999816894531,4.598999977111816 8.196000099182129,3.8499999046325684 8.673999786376953,2.4170000553131104 C9.133000373840332,1.0429999828338623 8.390000343322754,-0.3009999990463257 7.129000186920166,-1.0140000581741333 C4.546999931335449,-2.4730000495910645 0.47699999809265137,-4.598999977111816 -6.2170000076293945,-3.4040000438690186 C-7.718999862670898,-3.135999917984009 -8.895999908447266,-1.968000054359436 -9.001999855041504,-0.44600000977516174z"/></g><g opacity="1" transform="matrix(1,0,0,1,352.5150146484375,153.73199462890625)"><path fill="rgb(22,22,22)" fill-opacity="1" d=" M5.99399995803833,-1.0110000371932983 C5.99399995803833,-1.0110000371932983 5.99399995803833,-1.0110000371932983 5.99399995803833,-1.0110000371932983 C5.927999973297119,0.8370000123977661 4.801000118255615,2.4619998931884766 3.559999942779541,2.49399995803833 C1.687000036239624,2.5429999828338623 -1.069000005722046,2.878000020980835 -3.7239999771118164,4.170000076293945 C-4.7129998207092285,4.651000022888184 -5.656000137329102,3.9860000610351562 -5.855999946594238,2.6019999980926514 C-6.046999931335449,1.2769999504089355 -5.448999881744385,-0.07699999958276749 -4.564000129699707,-0.8330000042915344 C-2.749000072479248,-2.38100004196167 0.09799999743700027,-4.650000095367432 4.4019999504089355,-3.7829999923706055 C5.368000030517578,-3.5889999866485596 6.046999931335449,-2.497999906539917 5.99399995803833,-1.0110000371932983z"/></g><g opacity="1" transform="matrix(1,0,0,1,363.6409912109375,185.97500610351562)"><path fill="rgb(255,255,255)" fill-opacity="1" d=" M-5.2870001792907715,-1.7480000257492065 C-5.2870001792907715,-1.7480000257492065 5.447000026702881,-1.5700000524520874 5.447000026702881,-1.5700000524520874 C5.447000026702881,-1.5700000524520874 5.4710001945495605,1.7480000257492065 0.0010000000474974513,1.6920000314712524 C-5.4710001945495605,1.6369999647140503 -5.2870001792907715,-1.7480000257492065 -5.2870001792907715,-1.7480000257492065z"/></g></g><g transform="matrix(0.9999344348907471,0.011450345627963543,-0.011450345627963543,0.9999344348907471,626.7841796875,745.2411499023438)" opacity="1" style="display: block;"><g opacity="1" transform="matrix(1,0,0,1,406.0580139160156,118.87300109863281)"><path fill="rgb(166,91,83)" fill-opacity="1" d=" M4.896999835968018,0.7670000195503235 C4.4730000495910645,3.4719998836517334 1.937000036239624,5.321000099182129 -0.7670000195503235,4.896999835968018 C-3.4719998836517334,4.4730000495910645 -5.321000099182129,1.937000036239624 -4.896999835968018,-0.7680000066757202 C-4.4730000495910645,-3.4719998836517334 -1.937000036239624,-5.321000099182129 0.7670000195503235,-4.8979997634887695 C3.4719998836517334,-4.473999977111816 5.321000099182129,-1.937999963760376 4.896999835968018,0.7670000195503235z"/><g opacity="1" transform="matrix(1,0,0,1,0,0)"/></g><g opacity="1" transform="matrix(1,0,0,1,392.3240051269531,133.79600524902344)"><path fill="rgb(255,138,125)" fill-opacity="1" d=" M6.556000232696533,-18.63800048828125 C24.51799964904785,-11.418000221252441 33.667999267578125,7.919000148773193 27.082000732421875,24.631999969482422 C27.082000732421875,24.631999969482422 -33.667999267578125,-9.263999938964844 -33.667999267578125,-9.263999938964844 C-24.660999298095703,-20.38800048828125 -8.355999946594238,-24.631999969482422 6.556000232696533,-18.63800048828125z"/><g opacity="1" transform="matrix(1,0,0,1,0,0)"/></g><g opacity="1" transform="matrix(1,0,0,1,366.56500244140625,134.28700256347656)"><path fill="rgb(166,91,83)" fill-opacity="1" d=" M31.139999389648438,12.031000137329102 C31.139999389648438,12.031000137329102 15.53600025177002,-8.621999740600586 -6.947999954223633,-10.91100025177002 C-6.947999954223633,-10.91100025177002 -31.139999389648438,-14.324999809265137 -31.139999389648438,-14.324999809265137 C-31.139999389648438,-14.324999809265137 -12.434000015258789,-7.420000076293945 -5.033999919891357,0.515999972820282 C2.365000009536743,8.45199966430664 22.136999130249023,14.324000358581543 31.139999389648438,12.031000137329102z"/><g opacity="1" transform="matrix(1,0,0,1,0,0)"/></g></g><g transform="matrix(1,0,0,1,625,750)" opacity="1" style="display: block;"><g opacity="0.5" transform="matrix(1,0,0,1,376.3039855957031,165.13999938964844)"><path fill="rgb(255,255,255)" fill-opacity="1" d=" M-12.017000198364258,0.13899999856948853 C-11.939000129699707,6.921000003814697 -6.495999813079834,12.357000350952148 0.14100000262260437,12.279999732971191 C6.7769999504089355,12.204000473022461 12.093999862670898,6.644000053405762 12.015999794006348,-0.1379999965429306 C11.937999725341797,-6.920000076293945 6.49399995803833,-12.355999946594238 -0.1420000046491623,-12.279000282287598 C-6.7789998054504395,-12.20300006866455 -12.095000267028809,-6.64300012588501 -12.017000198364258,0.13899999856948853z"/><g opacity="1" transform="matrix(1,0,0,1,0,0)"/></g><g opacity="0.5" transform="matrix(1,0,0,1,346.7650146484375,165.37899780273438)"><path fill="rgb(255,255,255)" fill-opacity="1" d=" M-10.298999786376953,0.11900000274181366 C-10.223999977111816,6.631999969482422 -5.552000045776367,11.859000205993652 0.13500000536441803,11.793000221252441 C5.822999954223633,11.72700023651123 10.371999740600586,6.394999980926514 10.29699993133545,-0.11800000071525574 C10.222000122070312,-6.63100004196167 5.551000118255615,-11.857999801635742 -0.13600000739097595,-11.791999816894531 C-5.823999881744385,-11.72599983215332 -10.37399959564209,-6.394000053405762 -10.298999786376953,0.11900000274181366z"/><g opacity="1" transform="matrix(1,0,0,1,0,0)"/></g><g opacity="1" transform="matrix(1,0,0,1,376.3030090332031,165.14100646972656)"><path stroke-linecap="round" stroke-linejoin="round" fill-opacity="0" stroke="rgb(255,255,255)" stroke-opacity="1" stroke-width="1.374" d=" M-12.017000198364258,0.1379999965429306 C-11.939000129699707,6.920000076293945 -6.495999813079834,12.357000350952148 0.14100000262260437,12.279999732971191 C6.7769999504089355,12.204000473022461 12.093999862670898,6.644000053405762 12.015999794006348,-0.1379999965429306 C11.937999725341797,-6.920000076293945 6.49399995803833,-12.357000350952148 -0.1420000046491623,-12.279999732971191 C-6.7789998054504395,-12.204000473022461 -12.095000267028809,-6.644000053405762 -12.017000198364258,0.1379999965429306z"/></g><g opacity="1" transform="matrix(1,0,0,1,346.7640075683594,165.37899780273438)"><path stroke-linecap="round" stroke-linejoin="round" fill-opacity="0" stroke="rgb(255,255,255)" stroke-opacity="1" stroke-width="1.374" d=" M-10.29800033569336,0.11800000071525574 C-10.222999572753906,6.63100004196167 -5.551000118255615,11.857999801635742 0.13600000739097595,11.791999816894531 C5.823999881744385,11.72599983215332 10.373000144958496,6.394000053405762 10.29800033569336,-0.11900000274181366 C10.222999572753906,-6.631999969482422 5.552000045776367,-11.857999801635742 -0.13500000536441803,-11.791999816894531 C-5.822999954223633,-11.72599983215332 -10.373000144958496,-6.394999980926514 -10.29800033569336,0.11800000071525574z"/></g><g opacity="1" transform="matrix(1,0,0,1,360.67498779296875,163.75999450683594)"><path stroke-linecap="round" stroke-linejoin="round" fill-opacity="0" stroke="rgb(255,255,255)" stroke-opacity="1" stroke-width="1.374" d=" M3.611999988555908,1.5190000534057617 C3.611999988555908,1.5190000534057617 -0.03500000014901161,-1.5190000534057617 -3.611999988555908,1.5"/></g><g opacity="1" transform="matrix(1,0,0,1,394.4020080566406,165.8939971923828)"><path stroke-linecap="round" stroke-linejoin="round" fill-opacity="0" stroke="rgb(255,255,255)" stroke-opacity="1" stroke-width="1.374" d=" M-6.081999778747559,-0.8920000195503235 C-6.081999778747559,-0.8920000195503235 6.081999778747559,0.8920000195503235 6.081999778747559,0.8920000195503235"/></g></g></g><g clip-path="url(#__lottie_element_86)" transform="matrix(2.700000047683716,0,0,2.700000047683716,-1700,-2000)" opacity="1" style="display: block;"><g transform="matrix(1,0,0,1,624.9999389648438,750)" opacity="1" style="display: block;"><g opacity="1" transform="matrix(1,0,0,1,616.6320190429688,353.07501220703125)"><path fill="rgb(235,64,45)" fill-opacity="1" d=" M32.12699890136719,4.51200008392334 C32.12699890136719,4.51200008392334 -32.125999450683594,4.51200008392334 -32.125999450683594,4.51200008392334 C-32.125999450683594,4.51200008392334 -32.125999450683594,-4.513000011444092 -32.125999450683594,-4.513000011444092 C-32.125999450683594,-4.513000011444092 32.12699890136719,-4.513000011444092 32.12699890136719,-4.513000011444092 C32.12699890136719,-4.513000011444092 32.12699890136719,4.51200008392334 32.12699890136719,4.51200008392334z"/></g><g opacity="1" transform="matrix(1,0,0,1,619.0070190429688,412.92498779296875)"><path fill="rgb(247,225,82)" fill-opacity="1" d=" M-34.500999450683594,-55.3380012512207 C-34.500999450683594,-55.3380012512207 -61.62099838256836,-37.69499969482422 -71.99700164794922,21.908000946044922 C-71.99700164794922,21.908000946044922 -15.701000213623047,55.3380012512207 71.99700164794922,22.514999389648438 C71.99700164794922,22.514999389648438 56.48699951171875,-27.236000061035156 29.75200080871582,-55.3380012512207 C29.75200080871582,-55.3380012512207 -34.500999450683594,-55.3380012512207 -34.500999450683594,-55.3380012512207z"/></g></g><g transform="matrix(1,0,0,1,625,750)" opacity="1" style="display: block;"><g opacity="1" transform="matrix(1,0,0,1,472.25,267.3340148925781)"><path fill="rgb(206,105,93)" fill-opacity="1" d=" M23.211000442504883,13.763999938964844 C23.211000442504883,13.763999938964844 23.027999877929688,5.557000160217285 23.027999877929688,5.557000160217285 C22.93400001525879,1.2740000486373901 21.83300018310547,-2.9260001182556152 19.81599998474121,-6.705999851226807 C19.81599998474121,-6.705999851226807 16.267000198364258,-13.361000061035156 16.267000198364258,-13.361000061035156 C15.42300033569336,-14.942000389099121 13.359999656677246,-15.383999824523926 11.9399995803833,-14.289999961853027 C10.741999626159668,-13.366000175476074 10.22700023651123,-11.805000305175781 10.63700008392334,-10.348999977111816 C10.63700008392334,-10.348999977111816 12.805999755859375,-2.6429998874664307 12.805999755859375,-2.6429998874664307 C12.805999755859375,-2.6429998874664307 -9.48900032043457,-24.67799949645996 -9.48900032043457,-24.67799949645996 C-10.430999755859375,-25.64900016784668 -12.01099967956543,-25.572999954223633 -12.852999687194824,-24.516000747680664 C-12.852999687194824,-24.516000747680664 -13.418999671936035,-23.805999755859375 -13.418999671936035,-23.805999755859375 C-14.085000038146973,-22.97100067138672 -14.069999694824219,-21.783000946044922 -13.383999824523926,-20.96500015258789 C-13.383999824523926,-20.96500015258789 -0.5910000205039978,-7.502999782562256 -0.5910000205039978,-7.502999782562256 C-0.5910000205039978,-7.502999782562256 -17.424999237060547,-20.93400001525879 -17.424999237060547,-20.93400001525879 C-18.424999237060547,-21.83799934387207 -19.98900032043457,-21.663000106811523 -20.764999389648438,-20.56100082397461 C-20.764999389648438,-20.56100082397461 -21.148000717163086,-20.016000747680664 -21.148000717163086,-20.016000747680664 C-21.801000595092773,-19.089000701904297 -21.65999984741211,-17.82200050354004 -20.81999969482422,-17.06100082397461 C-20.81999969482422,-17.06100082397461 -3.7179999351501465,-2.568000078201294 -3.7179999351501465,-2.568000078201294 C-3.7179999351501465,-2.568000078201294 -19.516000747680664,-11.630000114440918 -19.516000747680664,-11.630000114440918 C-20.742000579833984,-12.371999740600586 -22.34000015258789,-11.788999557495117 -22.802000045776367,-10.432000160217285 C-22.802000045776367,-10.432000160217285 -22.893999099731445,-10.159000396728516 -22.893999099731445,-10.159000396728516 C-23.211000442504883,-9.227999687194824 -22.885000228881836,-8.201000213623047 -22.090999603271484,-7.622000217437744 C-22.090999603271484,-7.622000217437744 -6.63700008392334,3.621999979019165 -6.63700008392334,3.621999979019165 C-6.63700008392334,3.621999979019165 -16.847000122070312,-1.9600000381469727 -16.847000122070312,-1.9600000381469727 C-18.29800033569336,-2.753000020980835 -20.07900047302246,-1.75600004196167 -20.163999557495117,-0.10400000214576721 C-20.202999114990234,0.6819999814033508 -19.82900047302246,1.4299999475479126 -19.177000045776367,1.8700000047683716 C-19.177000045776367,1.8700000047683716 16.121999740600586,25.649999618530273 16.121999740600586,25.649999618530273 C16.121999740600586,25.649999618530273 23.211000442504883,13.763999938964844 23.211000442504883,13.763999938964844z"/></g><g opacity="1" transform="matrix(1,0,0,1,483.3399963378906,270.9440002441406)"><path stroke-linecap="round" stroke-linejoin="round" fill-opacity="0" stroke="rgb(183,77,66)" stroke-opacity="1" stroke-width="1.434" d=" M1.715999960899353,-6.254000186920166 C1.715999960899353,-6.254000186920166 -1.715999960899353,-1.0759999752044678 0.871999979019165,6.254000186920166"/></g></g><g transform="matrix(1,0,0,1,625,750)" opacity="1" style="display: block;"><g opacity="1" transform="matrix(1,0,0,1,518.8800048828125,325.260986328125)"><path fill="rgb(206,105,93)" fill-opacity="1" d=" M-23.41900062561035,-44.16299819946289 C-23.41900062561035,-44.16299819946289 -34.66699981689453,-39.23400115966797 -34.66699981689453,-39.23400115966797 C-34.66699981689453,-39.23400115966797 5.923999786376953,33.395999908447266 5.923999786376953,33.395999908447266 C9.774999618530273,41.641998291015625 20.297000885009766,44.16299819946289 27.465999603271484,38.55699920654297 C33.426998138427734,33.895999908447266 34.66699981689453,25.3700008392334 30.2810001373291,19.202999114990234 C30.2810001373291,19.202999114990234 -23.41900062561035,-44.16299819946289 -23.41900062561035,-44.16299819946289z"/></g></g><g class="1" transform="matrix(1,0,0,1,625,750)" opacity="1" style="display: block;"><g opacity="1" transform="matrix(1,0,0,1,551.1079711914062,327.62200927734375)"><path fill="rgb(206,105,93)" fill-opacity="1" d=" M0.08299999684095383,29.070999145507812 C0.08299999684095383,29.070999145507812 18.052000045776367,-29.070999145507812 18.052000045776367,-29.070999145507812 C18.052000045776367,-29.070999145507812 -9.468000411987305,-27.909000396728516 -9.468000411987305,-27.909000396728516 C-9.468000411987305,-27.909000396728516 -18.052000045776367,4.605999946594238 -18.052000045776367,4.605999946594238 C-18.052000045776367,4.605999946594238 0.08299999684095383,29.070999145507812 0.08299999684095383,29.070999145507812z"/></g><g opacity="1" transform="matrix(1,0,0,1,551.9459838867188,286.81298828125)"><path fill="rgb(247,225,82)" fill-opacity="1" d=" M17.21500015258789,-36.750999450683594 C17.21500015258789,-36.750999450683594 -8.225000381469727,-35.5099983215332 -20.68199920654297,17.72800064086914 C-20.68199920654297,17.72800064086914 20.68199920654297,36.75199890136719 20.68199920654297,36.75199890136719 C20.68199920654297,36.75199890136719 17.21500015258789,-36.750999450683594 17.21500015258789,-36.750999450683594z"/></g></g><g transform="matrix(1,0,0,1,625,750)" opacity="1" style="display: block;"><g opacity="1" transform="matrix(1,0,0,1,607.9929809570312,298.5329895019531)"><path fill="rgb(247,225,82)" fill-opacity="1" d=" M-38.83300018310547,-48.47100067138672 C-38.83300018310547,-48.47100067138672 -62.356998443603516,6.684999942779541 -45.83300018310547,23.96500015258789 C-45.83300018310547,23.96500015258789 -23.48699951171875,50.02899932861328 -23.48699951171875,50.02899932861328 C-23.48699951171875,50.02899932861328 40.76599884033203,50.02899932861328 40.76599884033203,50.02899932861328 C40.76599884033203,50.02899932861328 62.356998443603516,23.808000564575195 61.770999908447266,-11.265000343322754 C61.1870002746582,-46.3390007019043 33.465999603271484,-50.02799987792969 33.465999603271484,-50.02799987792969 C33.465999603271484,-50.02799987792969 -33.926998138427734,-49.25899887084961 -33.926998138427734,-49.25899887084961 C-33.926998138427734,-49.25899887084961 -38.83300018310547,-48.47100067138672 -38.83300018310547,-48.47100067138672z"/></g><g opacity="1" transform="matrix(1,0,0,1,556.43701171875,295.5639953613281)"><path stroke-linecap="round" stroke-linejoin="round" fill-opacity="0" stroke="rgb(233,56,36)" stroke-opacity="1" stroke-width="1.989" d=" M5.138999938964844,-21.60099983215332 C5.138999938964844,-21.60099983215332 -5.138999938964844,5.02400016784668 2.2760000228881836,21.60099983215332"/></g><g opacity="1" transform="matrix(1,0,0,1,607.7630004882812,268.239013671875)"><path fill="rgb(206,105,93)" fill-opacity="1" d=" M-33.69599914550781,-18.965999603271484 C-33.69599914550781,-18.965999603271484 -11.312000274658203,-24.243000030517578 -6.145999908447266,-24.243000030517578 C-6.145999908447266,-24.243000030517578 8.187999725341797,-25.34000015258789 33.69599914550781,-19.735000610351562 C33.69599914550781,-19.735000610351562 8.411999702453613,0.4300000071525574 -13.95300006866455,25.34000015258789 C-13.95300006866455,25.34000015258789 -33.69599914550781,-18.965999603271484 -33.69599914550781,-18.965999603271484z"/></g></g><g transform="matrix(0.999399721622467,0.03464438393712044,-0.03464438393712044,0.999399721622467,634.8609008789062,727.1700439453125)" opacity="1" style="display: block;"><g opacity="1" transform="matrix(1,0,0,1,669.6019897460938,373.8580017089844)"><path fill="rgb(206,105,93)" fill-opacity="1" d=" M-15.204999923706055,-69.9010009765625 C-15.204999923706055,-69.9010009765625 -7.128836154937744,71.41357421875 -7.128836154937744,71.41357421875 C-7.128836154937744,71.41357421875 12.370163917541504,66.04357147216797 12.370163917541504,66.04357147216797 C12.370163917541504,66.04357147216797 15.204000473022461,-60.784000396728516 15.204000473022461,-60.784000396728516 C15.204000473022461,-60.784000396728516 -15.204999923706055,-69.9010009765625 -15.204999923706055,-69.9010009765625z"/></g><g opacity="1" transform="matrix(1,0,0,1,671.7130126953125,284.7409973144531)"><path fill="rgb(247,225,82)" fill-opacity="1" d=" M-30.098573684692383,-34.970333099365234 C-30.098573684692383,-34.970333099365234 1.899999976158142,-35.35599899291992 9.093999862670898,-23.218000411987305 C16.28700065612793,-11.079000473022461 30.253999710083008,28.106000900268555 30.253999710083008,28.106000900268555 C30.253999710083008,28.106000900268555 -19.724000930786133,36.23699951171875 -19.724000930786133,36.23699951171875 C-19.724000930786133,36.23699951171875 -30.098573684692383,-34.970333099365234 -30.098573684692383,-34.970333099365234z"/></g><g opacity="1" transform="matrix(1,0,0,1,647.927978515625,307.5119934082031)"><path stroke-linecap="round" stroke-linejoin="round" fill-opacity="0" stroke="rgb(233,56,36)" stroke-opacity="1" stroke-width="1.989" d=" M6.468999862670898,13.095999717712402 C6.468999862670898,13.095999717712402 -2.8559999465942383,14.529000282287598 -2.8559999465942383,14.529000282287598 C-2.8559999465942383,14.529000282287598 -6.468999862670898,-14.529000282287598 -6.468999862670898,-14.529000282287598"/></g></g><g transform="matrix(0.9998973608016968,-0.014327814802527428,0.014327814802527428,0.9998973608016968,621.5403442382812,758.7252807617188)" opacity="1" style="display: block;"><g opacity="1" transform="matrix(1,0,0,1,606.2150268554688,218.81500244140625)"><path fill="rgb(206,105,93)" fill-opacity="1" d=" M-16.708999633789062,-9.13599967956543 C-16.708999633789062,-9.13599967956543 -15.718000411987305,32.48699951171875 -15.718000411987305,32.48699951171875 C-15.718000411987305,32.48699951171875 16.708999633789062,28.702999114990234 16.708999633789062,28.702999114990234 C16.708999633789062,28.702999114990234 10.562000274658203,-32.48699951171875 10.562000274658203,-32.48699951171875 C10.562000274658203,-32.48699951171875 -16.708999633789062,-9.13599967956543 -16.708999633789062,-9.13599967956543z"/></g><g opacity="1" transform="matrix(1,0,0,1,599.0170288085938,217.57000732421875)"><path fill="rgb(183,77,66)" fill-opacity="1" d=" M-9.133000373840332,7.553999900817871 C-9.133000373840332,7.553999900817871 7.803999900817871,9.956999778747559 9.378999710083008,-9.956000328063965 C9.378999710083008,-9.956000328063965 -9.380000114440918,-1.687000036239624 -9.380000114440918,-1.687000036239624 C-9.380000114440918,-1.687000036239624 -9.133000373840332,7.553999900817871 -9.133000373840332,7.553999900817871z"/></g></g><g transform="matrix(0.9998973608016968,-0.014327814802527428,0.014327814802527428,0.9998973608016968,621.5403442382812,758.7252807617188)" opacity="1" style="display: block;"><g opacity="1" transform="matrix(1,0,0,1,644.3740234375,140.67599487304688)"><path fill="rgb(22,22,22)" fill-opacity="1" d=" M29.700000762939453,2.1470000743865967 C28.513999938964844,18.549999237060547 14.255000114440918,30.885000228881836 -2.1480000019073486,29.700000762939453 C-18.549999237060547,28.513999938964844 -30.88599967956543,14.255999565124512 -29.700000762939453,-2.1459999084472656 C-28.513999938964844,-18.548999786376953 -14.255999565124512,-30.885000228881836 2.1459999084472656,-29.698999404907227 C18.548999786376953,-28.51300048828125 30.88599967956543,-14.255000114440918 29.700000762939453,2.1470000743865967z"/></g><g opacity="1" transform="matrix(1,0,0,1,620.8359985351562,155.79200744628906)"><path fill="rgb(247,225,82)" fill-opacity="1" d=" M20.56800079345703,1.4859999418258667 C19.746999740600586,12.845999717712402 9.873000144958496,21.388999938964844 -1.4880000352859497,20.56800079345703 C-12.847000122070312,19.746000289916992 -21.389999389648438,9.871999740600586 -20.569000244140625,-1.4880000352859497 C-19.746999740600586,-12.847000122070312 -9.873000144958496,-21.389999389648438 1.4859999418258667,-20.569000244140625 C12.845999717712402,-19.74799919128418 21.388999938964844,-9.873000144958496 20.56800079345703,1.4859999418258667z"/></g><g opacity="1" transform="matrix(1,0,0,1,567.6690063476562,185.80799865722656)"><path fill="rgb(183,77,66)" fill-opacity="1" d=" M9.83899974822998,2.9820001125335693 C8.192000389099121,8.416000366210938 2.4519999027252197,11.484999656677246 -2.9809999465942383,9.838000297546387 C-8.414999961853027,8.192000389099121 -11.484999656677246,2.4519999027252197 -9.838000297546387,-2.9809999465942383 C-8.190999984741211,-8.414999961853027 -2.4519999027252197,-11.484999656677246 2.9820001125335693,-9.838000297546387 C8.414999961853027,-8.190999984741211 11.484999656677246,-2.4519999027252197 9.83899974822998,2.9820001125335693z"/></g><g opacity="1" transform="matrix(1,0,0,1,594.4039916992188,175.47799682617188)"><path fill="rgb(206,105,93)" fill-opacity="1" d=" M-24.17099952697754,-26.354999542236328 C-26.763999938964844,-24.163999557495117 -28.415000915527344,-21.086999893188477 -29.07900047302246,-17.770000457763672 C-31.04599952697754,-7.934000015258789 -34.90800094604492,12.520999908447266 -31.427000045776367,22.961000442504883 C-26.899999618530273,36.53799819946289 -15.875,45.12200164794922 1.940999984741211,41.73400115966797 C1.940999984741211,41.73400115966797 22.589000701904297,40.79499816894531 27.68199920654297,10.45300006866455 C34.90800094604492,-32.59400177001953 -1.965000033378601,-45.12200164794922 -24.17099952697754,-26.354999542236328z"/></g><g opacity="1" transform="matrix(1,0,0,1,566.8070068359375,179.0330047607422)"><path fill="rgb(22,22,22)" fill-opacity="1" d=" M2.2750000953674316,0.5979999899864197 C1.9450000524520874,1.8539999723434448 0.6589999794960022,2.6050000190734863 -0.5979999899864197,2.2750000953674316 C-1.8539999723434448,1.9450000524520874 -2.6050000190734863,0.6589999794960022 -2.2750000953674316,-0.5979999899864197 C-1.9450000524520874,-1.8539999723434448 -0.6589999794960022,-2.6050000190734863 0.5979999899864197,-2.2750000953674316 C1.8550000190734863,-1.944000005722046 2.6050000190734863,-0.6579999923706055 2.2750000953674316,0.5979999899864197z"/></g><g opacity="1" transform="matrix(1,0,0,1,586.68701171875,179.43099975585938)"><path fill="rgb(22,22,22)" fill-opacity="1" d=" M2.2750000953674316,0.5979999899864197 C1.9450000524520874,1.8539999723434448 0.6589999794960022,2.6050000190734863 -0.5979999899864197,2.2750000953674316 C-1.8539999723434448,1.944000005722046 -2.6050000190734863,0.6579999923706055 -2.2750000953674316,-0.5979999899864197 C-1.9450000524520874,-1.8550000190734863 -0.6589999794960022,-2.6059999465942383 0.5979999899864197,-2.2750000953674316 C1.8539999723434448,-1.9450000524520874 2.6050000190734863,-0.6579999923706055 2.2750000953674316,0.5979999899864197z"/></g><g opacity="1" transform="matrix(1,0,0,1,572.6270141601562,187.16600036621094)"><path stroke-linecap="round" stroke-linejoin="round" fill-opacity="0" stroke="rgb(183,77,66)" stroke-opacity="1" stroke-width="1.434" d=" M0.44200000166893005,-3.308000087738037 C0.44200000166893005,-3.308000087738037 -1.8839999437332153,2.2929999828338623 -1.8839999437332153,2.2929999828338623 C-1.8839999437332153,2.2929999828338623 1.8839999437332153,3.308000087738037 1.8839999437332153,3.308000087738037"/></g><g opacity="1" transform="matrix(1,0,0,1,590.1090087890625,164.1009979248047)"><path fill="rgb(22,22,22)" fill-opacity="1" d=" M-7.281000137329102,-2.3369998931884766 C-7.281000137329102,-2.3369998931884766 -7.281000137329102,-2.3369998931884766 -7.281000137329102,-2.3369998931884766 C-7.692999839782715,-0.7720000147819519 -6.670000076293945,0.8009999990463257 -5.072000026702881,1.0570000410079956 C-2.6610000133514404,1.4420000314712524 0.8190000057220459,2.2290000915527344 3.9089999198913574,3.803999900817871 C5.059999942779541,4.388999938964844 6.460000038146973,4.004000186920166 7.090000152587891,2.877000093460083 C7.693999767303467,1.7979999780654907 7.283999919891357,0.5519999861717224 6.340000152587891,-0.24699999392032623 C4.4070000648498535,-1.88100004196167 1.3300000429153442,-4.311999797821045 -4.474999904632568,-4.375 C-5.7769999504089355,-4.388999938964844 -6.949999809265137,-3.5969998836517334 -7.281000137329102,-2.3369998931884766z"/></g><g opacity="1" transform="matrix(1,0,0,1,566.2119750976562,163.13499450683594)"><path fill="rgb(22,22,22)" fill-opacity="1" d=" M5.083000183105469,-1.5360000133514404 C5.083000183105469,-1.5360000133514404 5.083000183105469,-1.5360000133514404 5.083000183105469,-1.5360000133514404 C5.186999797821045,0.03999999910593033 4.348999977111816,1.5130000114440918 3.2730000019073486,1.6419999599456787 C1.6490000486373901,1.8370000123977661 -0.718999981880188,2.3450000286102295 -2.9140000343322754,3.6600000858306885 C-3.7309999465942383,4.14900016784668 -4.610000133514404,3.6610000133514404 -4.9039998054504395,2.500999927520752 C-5.186999797821045,1.3899999856948853 -4.784999847412109,0.19200000166893005 -4.080999851226807,-0.5239999890327454 C-2.640000104904175,-1.9880000352859497 -0.3610000014305115,-4.14900016784668 3.4560000896453857,-3.7639999389648438 C4.313000202178955,-3.677000045776367 4.999000072479248,-2.805000066757202 5.083000183105469,-1.5360000133514404z"/></g><g opacity="1" transform="matrix(1,0,0,1,577.7429809570312,197.3939971923828)"><path fill="rgb(255,255,255)" fill-opacity="1" d=" M-6.906000137329102,-2.065999984741211 C-6.906000137329102,-2.065999984741211 6.242000102996826,-3.134999990463257 6.242000102996826,-3.134999990463257 C6.242000102996826,-3.134999990463257 6.906000137329102,1.9639999866485596 0.20800000429153442,2.5490000247955322 C-6.488999843597412,3.134999990463257 -6.906000137329102,-2.065999984741211 -6.906000137329102,-2.065999984741211z"/></g><g opacity="1" transform="matrix(1,0,0,1,610.1599731445312,168.58299255371094)"><path fill="rgb(22,22,22)" fill-opacity="1" d=" M4.114999771118164,14.14900016784668 C4.114999771118164,14.14900016784668 -6.666999816894531,4.609000205993652 -4.520999908447266,-13.949999809265137 C-4.520999908447266,-13.949999809265137 -22.834999084472656,-10.701000213623047 -44.56700134277344,-12.3149995803833 C-44.56700134277344,-12.3149995803833 -39.71799850463867,-37.970001220703125 1.6169999837875366,-31.089000701904297 C44.566001892089844,-23.940000534057617 24.608999252319336,23.424999237060547 8.64900016784668,37.970001220703125 C8.64900016784668,37.970001220703125 4.114999771118164,14.14900016784668 4.114999771118164,14.14900016784668z"/></g><g opacity="1" transform="matrix(1,0,0,1,623.1099853515625,187.46499633789062)"><path fill="rgb(206,105,93)" fill-opacity="1" d=" M11.939000129699707,3.618000030517578 C9.940999984741211,10.211999893188477 2.9760000705718994,13.937000274658203 -3.618000030517578,11.939000129699707 C-10.211000442504883,9.9399995803833 -13.937000274658203,2.9749999046325684 -11.937999725341797,-3.618000030517578 C-9.9399995803833,-10.211999893188477 -2.9749999046325684,-13.937000274658203 3.61899995803833,-11.939000129699707 C10.211999893188477,-9.940999984741211 13.937999725341797,-2.9749999046325684 11.939000129699707,3.618000030517578z"/></g><g opacity="1" transform="matrix(1,0,0,1,622.947998046875,186.2259979248047)"><path stroke-linecap="round" stroke-linejoin="round" fill-opacity="0" stroke="rgb(183,77,66)" stroke-opacity="1" stroke-width="1.434" d=" M5.789999961853027,-2.4059998989105225 C5.789999961853027,-2.4059998989105225 -3.3559999465942383,-5.0320000648498535 -5.789000034332275,5.0329999923706055"/></g></g></g></g></g></svg>